<svg width="249" height="248" viewBox="0 0 249 248" fill="none" xmlns="http://www.w3.org/2000/svg">
<path d="M46.8762 50.4022C60.7245 20.92 109.898 25.0765 128.875 45.8142C147.852 66.552 154.022 79.8398 171.139 72.1022C188.256 64.3646 210.085 66.428 211.315 91.0346C212.545 115.641 192.532 144.722 160.708 153.327C128.885 161.933 128.885 192.392 86.7546 186.247C63.7849 182.894 63.2641 158.044 66.5079 137.49C69.7517 116.936 30.8157 84.6014 46.8762 50.4022Z" fill="#451482"/>
<path opacity="0.9" d="M46.8762 50.4022C60.7245 20.92 109.898 25.0765 128.875 45.8142C147.852 66.552 154.022 79.8398 171.139 72.1022C188.256 64.3646 210.085 66.428 211.315 91.0346C212.545 115.641 192.532 144.722 160.708 153.327C128.885 161.933 128.885 192.392 86.7546 186.247C63.7849 182.894 63.2641 158.044 66.5079 137.49C69.7517 116.936 30.8157 84.6014 46.8762 50.4022Z" fill="white"/>
<path d="M124.5 212.069C177.613 212.069 220.67 209.555 220.67 206.455C220.67 203.354 177.613 200.84 124.5 200.84C71.3876 200.84 28.3311 203.354 28.3311 206.455C28.3311 209.555 71.3876 212.069 124.5 212.069Z" fill="#F5F5F5"/>
<path d="M193.314 83.8592V206.5H115.507V152.158L123.78 140.636L171.084 74.7725L193.314 83.8592Z" fill="#263238"/>
<path opacity="0.2" d="M193.314 83.8592V206.5H115.507V152.158L123.78 140.636L171.084 74.7725L193.314 83.8592Z" fill="white"/>
<path opacity="0.2" d="M158.778 140.636V206.678H115.507V152.158L123.78 140.636H158.778Z" fill="white"/>
<path opacity="0.2" d="M149.017 190.811H122.277V165.416H149.017V190.811ZM122.729 190.355H148.555V165.872H122.734L122.729 190.355Z" fill="black"/>
<path d="M174.223 72.6494H138.7C138.7 72.6494 112.174 125.875 112.174 136.45V152.848C112.174 153.709 112.516 154.536 113.125 155.145C113.735 155.754 114.561 156.096 115.423 156.096H159.314C159.74 156.096 160.163 156.012 160.557 155.849C160.951 155.686 161.309 155.447 161.611 155.145C161.913 154.843 162.152 154.485 162.315 154.091C162.478 153.697 162.562 153.274 162.562 152.848V136.028C162.562 121.709 176.535 74.7723 176.535 74.7723L174.223 72.6494Z" fill="#451482"/>
<path opacity="0.2" d="M155.529 156.096C156.391 156.096 157.217 155.754 157.826 155.145C158.436 154.536 158.778 153.709 158.778 152.848V136.45C158.778 122.433 174.223 72.6494 174.223 72.6494H138.7C138.7 72.6494 112.174 125.875 112.174 136.45V152.848C112.174 153.709 112.516 154.536 113.125 155.145C113.735 155.754 114.561 156.096 115.423 156.096H155.529Z" fill="white"/>
<path opacity="0.2" d="M121.604 120.077H154.95L166.893 82.8125H138.8L121.604 120.077Z" fill="black"/>
<path opacity="0.2" d="M143.332 89.5184L138.799 82.8125H166.892L164.779 89.5184H143.332Z" fill="black"/>
<path d="M143.075 131.381H124.405L126.672 122.468H145.341L143.075 131.381Z" fill="#263238"/>
<path opacity="0.2" d="M143.075 131.381H124.405L126.672 122.468H145.341L143.075 131.381Z" fill="white"/>
<path d="M143.348 123.584H127.927C127.787 123.586 127.651 123.637 127.544 123.727C127.436 123.817 127.363 123.942 127.337 124.08L126.915 125.88C126.899 125.949 126.898 126.02 126.913 126.088C126.928 126.157 126.958 126.221 127.002 126.276C127.045 126.331 127.101 126.375 127.164 126.405C127.227 126.436 127.297 126.451 127.367 126.451H131.409C131.478 126.451 131.547 126.466 131.609 126.496C131.671 126.526 131.726 126.569 131.769 126.623C131.813 126.677 131.843 126.739 131.859 126.807C131.875 126.874 131.875 126.944 131.861 127.011L131.365 129.397C131.351 129.464 131.352 129.534 131.368 129.6C131.384 129.667 131.415 129.729 131.458 129.782C131.501 129.835 131.556 129.878 131.618 129.908C131.68 129.937 131.747 129.953 131.816 129.953H135.784C135.999 129.953 136.208 129.88 136.375 129.746C136.543 129.611 136.66 129.424 136.706 129.214L137.153 127.195C137.198 126.984 137.315 126.795 137.483 126.66C137.65 126.524 137.86 126.451 138.075 126.451H142.257C142.471 126.452 142.679 126.379 142.847 126.246C143.015 126.112 143.132 125.926 143.179 125.717L143.586 123.956C143.599 123.916 143.602 123.873 143.597 123.832C143.591 123.79 143.577 123.75 143.554 123.714C143.531 123.679 143.501 123.649 143.465 123.626C143.43 123.604 143.39 123.589 143.348 123.584Z" fill="#263238"/>
<path d="M164.78 89.5186H143.333L132.476 116.62H156.06L164.78 89.5186Z" fill="#263238"/>
<path opacity="0.5" d="M164.78 89.5186H143.333L132.476 116.62H156.06L164.78 89.5186Z" fill="white"/>
<path d="M163.887 92.1973H144.26L138.799 105.763H159.393" fill="#451482"/>
<path opacity="0.2" d="M141.596 105.763L146.794 92.1973H144.26L138.799 105.763H141.596Z" fill="black"/>
<path opacity="0.2" d="M137.614 108.962L136.582 111.859H147.216L148.045 108.962H137.614Z" fill="black"/>
<path opacity="0.4" d="M137.589 110.062L137.465 110.41H147.102L147.201 110.062H137.589Z" fill="black"/>
<path opacity="0.2" d="M158.515 108.962H152.276L151.249 111.859H157.662" fill="black"/>
<path opacity="0.2" d="M142.355 105.033L147.221 92.7969H161.947C161.947 92.7969 154.607 97.0575 149.081 100.773C151.139 98.5699 153.317 96.4819 155.604 94.518H153.62C153.62 94.518 146.482 99.1407 142.355 105.033Z" fill="white"/>
<path d="M121.604 120.077L132.476 116.62H156.061L154.95 120.077H121.604Z" fill="#263238"/>
<path opacity="0.6" d="M121.604 120.077L132.476 116.62H156.061L154.95 120.077H121.604Z" fill="white"/>
<path d="M128.79 118.931L130.179 114.373H141.597L143.531 116.997L140.997 118.931H128.79Z" fill="#263238"/>
<path opacity="0.2" d="M128.79 118.931L130.179 114.373H141.597L143.531 116.997L140.997 118.931H128.79Z" fill="white"/>
<path d="M129.396 118.931L130.606 114.943H140.392V118.931H129.396Z" fill="#263238"/>
<path d="M153.724 79.7126C159.337 78.8146 163.729 77.0977 163.533 75.8778C163.338 74.6579 158.63 74.3969 153.017 75.2949C147.405 76.1929 143.013 77.9098 143.208 79.1298C143.403 80.3497 148.111 80.6107 153.724 79.7126Z" fill="white"/>
<path d="M144.561 79.4993L148.033 75.2197H149.241L149.596 79.4993H148.376L148.201 75.7944H148.684L145.855 79.4993H144.561ZM145.909 78.6678L146.549 77.7752H148.667L148.659 78.6678H145.909ZM150.855 79.4993L152.053 76.2169H150.736L151.086 75.2679H154.925L154.576 76.2169H153.265L152.067 79.4993H150.855ZM153.836 79.4993L155.377 75.2679H156.363L157.078 78.1513H156.558L159.314 75.2679H160.349L158.82 79.4993H157.699L158.622 76.9363L158.825 76.9302L156.781 79.0822H156.248L155.672 76.9242L155.884 76.9423L154.95 79.4993H153.836Z" fill="#263238"/>
<path opacity="0.2" d="M152.187 143.701H143.199V152.689H152.187V143.701Z" fill="white"/>
<path opacity="0.2" d="M142.335 143.701H133.348V152.689H142.335V143.701Z" fill="white"/>
<path opacity="0.2" d="M119.247 148.646H115.73V152.163H119.247V148.646Z" fill="white"/>
<path d="M207.715 194.72C207.817 194.512 207.867 194.281 207.86 194.049C207.854 193.817 207.792 193.59 207.679 193.388C207.566 193.185 207.405 193.012 207.211 192.885C207.017 192.758 206.795 192.68 206.564 192.657C206.76 192.063 206.77 191.423 206.593 190.823C206.415 190.223 206.059 189.691 205.572 189.299C205.455 189.193 205.307 189.129 205.15 189.115C204.981 189.13 204.821 189.2 204.694 189.314L202.006 191.243C201.789 191.375 201.607 191.557 201.475 191.774C200.925 192.835 202.904 194.199 202.09 195.082C201.857 195.335 201.48 195.385 201.187 195.578C200.548 195.975 200.473 196.858 200.195 197.562C199.918 198.266 198.856 198.797 198.459 198.152C198.752 197.488 197.864 196.917 197.14 196.833C196.416 196.749 195.652 196.709 195.265 196.029C194.238 196.927 191.947 194.427 192.001 193.421C191.158 193.485 190.583 194.274 190.399 195.062C190.279 195.893 190.251 196.735 190.315 197.572C190.285 199.204 189.76 200.801 189.789 202.433C189.814 203.698 190.285 205.106 191.466 205.617C192.042 205.825 192.656 205.908 193.266 205.86L206.495 205.776C206.813 205.8 207.133 205.748 207.427 205.622C208.022 205.31 208.151 204.526 208.206 203.856C208.444 200.98 208.68 198.104 208.915 195.231L207.715 194.72Z" fill="#451482"/>
<path opacity="0.3" d="M207.715 194.72C207.817 194.512 207.867 194.281 207.86 194.049C207.854 193.817 207.792 193.59 207.679 193.388C207.566 193.185 207.405 193.012 207.211 192.885C207.017 192.758 206.795 192.68 206.564 192.657C206.76 192.063 206.77 191.423 206.593 190.823C206.415 190.223 206.059 189.691 205.572 189.299C205.455 189.193 205.307 189.129 205.15 189.115C204.981 189.13 204.821 189.2 204.694 189.314L202.006 191.243C201.789 191.375 201.607 191.557 201.475 191.774C200.925 192.835 202.904 194.199 202.09 195.082C201.857 195.335 201.48 195.385 201.187 195.578C200.548 195.975 200.473 196.858 200.195 197.562C199.918 198.266 198.856 198.797 198.459 198.152C198.752 197.488 197.864 196.917 197.14 196.833C196.416 196.749 195.652 196.709 195.265 196.029C194.238 196.927 191.947 194.427 192.001 193.421C191.158 193.485 190.583 194.274 190.399 195.062C190.279 195.893 190.251 196.735 190.315 197.572C190.285 199.204 189.76 200.801 189.789 202.433C189.814 203.698 190.285 205.106 191.466 205.617C192.042 205.825 192.656 205.908 193.266 205.86L206.495 205.776C206.813 205.8 207.133 205.748 207.427 205.622C208.022 205.31 208.151 204.526 208.206 203.856C208.444 200.98 208.68 198.104 208.915 195.231L207.715 194.72Z" fill="white"/>
<path d="M208.483 180.737H187.959L188.128 182.811L188.247 184.299L188.559 188.153L188.738 190.37L188.976 193.316L189.075 194.576L189.11 194.953L189.229 196.441L189.397 198.474L189.497 199.739L189.601 201.024L189.725 202.512L189.814 203.638L189.918 204.902L189.958 205.448H208.806L208.846 204.902L208.95 203.643L209.039 202.507L209.163 201.019L209.267 199.739L209.366 198.474L209.53 196.436L209.654 194.948L209.684 194.571L209.783 193.311L210.026 190.365L210.205 188.153L210.512 184.294L210.631 182.806L210.8 180.732L208.483 180.737ZM209.719 182.096L209.327 181.7H209.753L209.719 182.096ZM209.619 183.356L209.58 183.852L207.744 185.687L205.636 183.579L207.521 181.695H207.963L209.619 183.356ZM209.089 189.923L207.744 191.267L205.636 189.159L207.744 187.056L209.198 188.515L209.089 189.923ZM189.556 188.515L191.009 187.056L193.117 189.159L191.009 191.267L189.67 189.923L189.556 188.515ZM207.065 186.372L204.957 188.48L202.869 186.372L204.977 184.264L207.065 186.372ZM203.747 181.7H206.162L204.957 182.905L203.747 181.7ZM204.267 189.14L202.169 191.248L200.061 189.14L202.169 187.037L204.267 189.14ZM197.274 191.952L199.377 189.849L201.48 191.952L199.397 194.055L197.274 191.952ZM198.692 194.744L196.584 196.847L194.481 194.744L196.589 192.641L198.692 194.744ZM202.164 192.641L204.263 194.744L202.164 196.847L200.056 194.744L202.164 192.641ZM199.397 188.48L197.294 186.372L199.397 184.264L201.5 186.372L199.397 188.48ZM198.712 189.159L196.609 191.267L194.501 189.159L196.609 187.056L198.712 189.159ZM193.797 188.48L191.694 186.372L193.797 184.264L195.905 186.372L193.797 188.48ZM193.797 189.844L195.925 191.952L193.817 194.06L191.694 191.952L193.797 189.844ZM195.905 197.532L193.797 199.635L191.694 197.532L193.797 195.424L195.905 197.532ZM196.584 198.211L198.692 200.319L196.589 202.427L194.481 200.319L196.584 198.211ZM197.274 197.532L199.397 195.424L201.5 197.532L199.397 199.635L197.274 197.532ZM202.169 198.211L204.267 200.319L202.169 202.427L200.061 200.319L202.169 198.211ZM204.957 200.999L207.065 203.107L205.696 204.471H204.208L202.869 203.107L204.957 200.999ZM202.849 197.527L204.957 195.419L207.065 197.527L204.957 199.63L202.849 197.527ZM202.869 191.952L204.977 189.849L207.085 191.952L204.977 194.06L202.869 191.952ZM204.287 183.589L202.189 185.697L200.081 183.589L201.966 181.705H202.373L204.287 183.589ZM199.397 182.905L198.191 181.7H200.602L199.397 182.905ZM198.712 183.584L196.609 185.692L194.501 183.584L196.391 181.7H196.832L198.712 183.584ZM195.022 181.7L193.817 182.905L192.616 181.7H195.022ZM191.252 181.7L193.137 183.584L191.029 185.692L189.199 183.857L189.159 183.361L190.811 181.705L191.252 181.7ZM189.447 181.7L189.06 182.091L189.025 181.7H189.447ZM189.318 185.34L190.35 186.372L189.477 187.25L189.318 185.34ZM189.893 192.408L189.809 191.416L190.35 191.952L189.893 192.413V192.408ZM189.993 193.678L191.029 192.636L193.137 194.739L191.029 196.842L190.181 195.994L189.993 193.678ZM190.305 197.572V197.482L190.355 197.532L190.31 197.572H190.305ZM190.672 202.065L190.409 198.831L191.029 198.211L193.137 200.319L191.029 202.422L190.672 202.065ZM190.866 204.471L190.826 203.975L191.029 203.772L191.714 204.456L190.866 204.471ZM191.714 203.107L193.817 200.999L195.925 203.107L194.561 204.471H193.073L191.714 203.107ZM195.925 204.471L196.609 203.786L197.294 204.471H195.925ZM198.658 204.471L197.294 203.107L199.397 200.999L201.5 203.107L200.141 204.471H198.658ZM201.5 204.471L202.189 203.786L202.874 204.471H201.5ZM207.948 204.471H207.1L207.784 203.786L207.987 203.99L207.948 204.471ZM208.146 202.065L207.784 202.422L205.676 200.319L207.784 198.211L208.404 198.831L208.146 202.065ZM208.513 197.477V197.572L208.474 197.532L208.523 197.477H208.513ZM208.637 195.989L207.784 196.838L205.676 194.734L207.784 192.631L208.826 193.673L208.637 195.989ZM208.925 192.408L208.464 191.942L209.009 191.406L208.925 192.408ZM209.5 185.33L209.347 187.25L208.464 186.367L209.5 185.33Z" fill="#451482"/>
<g opacity="0.6">
<path d="M208.483 180.737H187.959L188.128 182.811L188.247 184.299L188.559 188.153L188.738 190.37L188.976 193.316L189.075 194.576L189.11 194.953L189.229 196.441L189.397 198.474L189.497 199.739L189.601 201.024L189.725 202.512L189.814 203.638L189.918 204.902L189.958 205.448H208.806L208.846 204.902L208.95 203.643L209.039 202.507L209.163 201.019L209.267 199.739L209.366 198.474L209.53 196.436L209.654 194.948L209.684 194.571L209.783 193.311L210.026 190.365L210.205 188.153L210.512 184.294L210.631 182.806L210.8 180.732L208.483 180.737ZM209.719 182.096L209.327 181.7H209.753L209.719 182.096ZM209.619 183.356L209.58 183.852L207.744 185.687L205.636 183.579L207.521 181.695H207.963L209.619 183.356ZM209.089 189.923L207.744 191.267L205.636 189.159L207.744 187.056L209.198 188.515L209.089 189.923ZM189.556 188.515L191.009 187.056L193.117 189.159L191.009 191.267L189.67 189.923L189.556 188.515ZM207.065 186.372L204.957 188.48L202.869 186.372L204.977 184.264L207.065 186.372ZM203.747 181.7H206.162L204.957 182.905L203.747 181.7ZM204.267 189.14L202.169 191.248L200.061 189.14L202.169 187.037L204.267 189.14ZM197.274 191.952L199.377 189.849L201.48 191.952L199.397 194.055L197.274 191.952ZM198.692 194.744L196.584 196.847L194.481 194.744L196.589 192.641L198.692 194.744ZM202.164 192.641L204.263 194.744L202.164 196.847L200.056 194.744L202.164 192.641ZM199.397 188.48L197.294 186.372L199.397 184.264L201.5 186.372L199.397 188.48ZM198.712 189.159L196.609 191.267L194.501 189.159L196.609 187.056L198.712 189.159ZM193.797 188.48L191.694 186.372L193.797 184.264L195.905 186.372L193.797 188.48ZM193.797 189.844L195.925 191.952L193.817 194.06L191.694 191.952L193.797 189.844ZM195.905 197.532L193.797 199.635L191.694 197.532L193.797 195.424L195.905 197.532ZM196.584 198.211L198.692 200.319L196.589 202.427L194.481 200.319L196.584 198.211ZM197.274 197.532L199.397 195.424L201.5 197.532L199.397 199.635L197.274 197.532ZM202.169 198.211L204.267 200.319L202.169 202.427L200.061 200.319L202.169 198.211ZM204.957 200.999L207.065 203.107L205.696 204.471H204.208L202.869 203.107L204.957 200.999ZM202.849 197.527L204.957 195.419L207.065 197.527L204.957 199.63L202.849 197.527ZM202.869 191.952L204.977 189.849L207.085 191.952L204.977 194.06L202.869 191.952ZM204.287 183.589L202.189 185.697L200.081 183.589L201.966 181.705H202.373L204.287 183.589ZM199.397 182.905L198.191 181.7H200.602L199.397 182.905ZM198.712 183.584L196.609 185.692L194.501 183.584L196.391 181.7H196.832L198.712 183.584ZM195.022 181.7L193.817 182.905L192.616 181.7H195.022ZM191.252 181.7L193.137 183.584L191.029 185.692L189.199 183.857L189.159 183.361L190.811 181.705L191.252 181.7ZM189.447 181.7L189.06 182.091L189.025 181.7H189.447ZM189.318 185.34L190.35 186.372L189.477 187.25L189.318 185.34ZM189.893 192.408L189.809 191.416L190.35 191.952L189.893 192.413V192.408ZM189.993 193.678L191.029 192.636L193.137 194.739L191.029 196.842L190.181 195.994L189.993 193.678ZM190.305 197.572V197.482L190.355 197.532L190.31 197.572H190.305ZM190.672 202.065L190.409 198.831L191.029 198.211L193.137 200.319L191.029 202.422L190.672 202.065ZM190.866 204.471L190.826 203.975L191.029 203.772L191.714 204.456L190.866 204.471ZM191.714 203.107L193.817 200.999L195.925 203.107L194.561 204.471H193.073L191.714 203.107ZM195.925 204.471L196.609 203.786L197.294 204.471H195.925ZM198.658 204.471L197.294 203.107L199.397 200.999L201.5 203.107L200.141 204.471H198.658ZM201.5 204.471L202.189 203.786L202.874 204.471H201.5ZM207.948 204.471H207.1L207.784 203.786L207.987 203.99L207.948 204.471ZM208.146 202.065L207.784 202.422L205.676 200.319L207.784 198.211L208.404 198.831L208.146 202.065ZM208.513 197.477V197.572L208.474 197.532L208.523 197.477H208.513ZM208.637 195.989L207.784 196.838L205.676 194.734L207.784 192.631L208.826 193.673L208.637 195.989ZM208.925 192.408L208.464 191.942L209.009 191.406L208.925 192.408ZM209.5 185.33L209.347 187.25L208.464 186.367L209.5 185.33Z" fill="white"/>
</g>
<path d="M187.622 182.563H211.127C211.67 182.563 212.109 182.124 212.109 181.581V180.862C212.109 180.32 211.67 179.88 211.127 179.88H187.622C187.079 179.88 186.64 180.32 186.64 180.862V181.581C186.64 182.124 187.079 182.563 187.622 182.563Z" fill="#451482"/>
<path d="M209.292 203.99H189.462C188.919 203.99 188.479 204.43 188.479 204.972V205.692C188.479 206.234 188.919 206.674 189.462 206.674H209.292C209.834 206.674 210.274 206.234 210.274 205.692V204.972C210.274 204.43 209.834 203.99 209.292 203.99Z" fill="#451482"/>
<path d="M88.8174 112.593C88.1974 112.419 84.408 120.033 84.4725 120.752C84.537 121.471 89.6359 122.017 89.6359 122.017L88.8174 112.593Z" fill="#451482"/>
<path opacity="0.4" d="M88.8174 112.593C88.1974 112.419 84.408 120.033 84.4725 120.752C84.537 121.471 89.6359 122.017 89.6359 122.017L88.8174 112.593Z" fill="black"/>
<path d="M88.8175 112.593C88.8175 112.593 84.3535 123.738 85.4843 126.352C86.6152 128.966 100.072 129.035 101.51 128.832C102.949 128.628 103.871 114.889 103.871 114.889C98.7845 114.674 93.7367 113.904 88.8175 112.593Z" fill="#451482"/>
<path opacity="0.2" d="M88.8175 112.593C88.8175 112.593 84.3535 123.738 85.4843 126.352C86.6152 128.966 100.072 129.035 101.51 128.832C102.949 128.628 103.871 114.889 103.871 114.889C98.7845 114.674 93.7367 113.904 88.8175 112.593Z" fill="black"/>
<path d="M97.9885 97.9207C97.7455 98.1439 97.4132 98.4613 97.1205 98.744C96.8279 99.0268 96.5253 99.3343 96.2327 99.6418C95.6573 100.257 95.077 100.877 94.5314 101.527C93.4424 102.807 92.4478 104.165 91.5554 105.589L91.238 106.125L91.0793 106.392L90.9999 106.526C91.0257 106.432 91.0407 106.336 91.0445 106.239C91.0528 106.087 91.0378 105.935 90.9999 105.787C90.9477 105.567 90.8478 105.36 90.7073 105.182C90.5282 104.945 90.2779 104.771 89.993 104.686C89.869 104.656 89.8442 104.686 89.8442 104.686C90.1186 104.73 90.3982 104.73 90.6725 104.686C91.0495 104.646 91.4562 104.577 91.8679 104.493C93.5245 104.15 95.2754 103.679 96.9965 103.243L97.9042 105.301C96.3129 106.312 94.6308 107.172 92.8797 107.87C92.4234 108.044 91.9572 108.213 91.4463 108.366C90.843 108.548 90.2163 108.64 89.5863 108.639C89.3111 108.631 89.0379 108.59 88.7729 108.515C88.3556 108.398 87.9772 108.172 87.6765 107.859C87.3757 107.547 87.1635 107.161 87.0617 106.74C87.0031 106.481 86.983 106.215 87.0021 105.951C87.0258 105.627 87.0994 105.309 87.2204 105.009L87.3444 104.721L87.4237 104.557L87.5775 104.225L87.8999 103.565C88.7926 101.842 89.8472 100.208 91.0495 98.6845C91.6497 97.9356 92.2697 97.1965 92.9393 96.5071C93.2716 96.1549 93.6138 95.8127 93.961 95.4754C94.3082 95.1381 94.6554 94.8306 95.0919 94.4834L97.9885 97.9207Z" fill="#E9B376"/>
<path d="M94.7643 93.531C93.2131 94.4697 91.9421 95.8075 91.084 97.4048L95.5976 102.365C95.5976 102.365 100.905 89.8606 94.7643 93.531Z" fill="#451482"/>
<path opacity="0.6" d="M97.0013 98.4217C96.5993 99.7538 96.1308 101.065 95.5976 102.35L93.7425 100.316L91.084 97.4049C91.9421 95.8076 93.2131 94.4699 94.7643 93.5311C98.5389 91.2644 97.9883 95.1233 97.0013 98.4217Z" fill="white"/>
<path opacity="0.2" d="M97.0009 98.4219C96.599 99.754 96.1305 101.065 95.5972 102.35L93.7422 100.317C94.3714 99.1183 95.3819 98.1637 96.614 97.6035C96.768 97.8638 96.8975 98.1377 97.0009 98.4219Z" fill="black"/>
<path d="M116.509 78.5371C116.509 78.5371 121.295 94.4488 111.216 96.5816C101.138 98.7144 100.081 91.3934 100.081 91.3934C100.081 91.3934 108.334 78.8645 116.509 78.5371Z" fill="#263238"/>
<path d="M118.667 82.2672C118.651 82.2675 118.635 82.2646 118.621 82.2586C118.606 82.2526 118.593 82.2437 118.582 82.2325C118.387 82.0441 118.152 81.9018 117.895 81.816C117.637 81.7302 117.364 81.703 117.094 81.7365C117.065 81.7394 117.035 81.7317 117.011 81.7145C116.986 81.6974 116.969 81.6721 116.962 81.6432C116.954 81.6143 116.958 81.5837 116.971 81.5571C116.985 81.5306 117.007 81.5097 117.035 81.4984C117.345 81.4483 117.663 81.4716 117.963 81.5663C118.262 81.661 118.536 81.8246 118.761 82.044C118.777 82.0616 118.788 82.0835 118.792 82.1072C118.796 82.1308 118.793 82.1551 118.784 82.1772C118.775 82.1992 118.759 82.2181 118.739 82.2314C118.719 82.2447 118.696 82.252 118.672 82.2523L118.667 82.2672Z" fill="#263238"/>
<path d="M117.923 84.5781C118.173 85.1489 118.489 85.6883 118.865 86.1852C118.747 86.3275 118.592 86.434 118.416 86.4927C118.241 86.5514 118.053 86.56 117.873 86.5175L117.923 84.5781Z" fill="#D58745"/>
<path d="M118.641 83.6261C118.641 83.9287 118.443 84.1618 118.244 84.1519C118.046 84.1419 117.897 83.884 117.912 83.5815C117.927 83.2789 118.106 83.0458 118.309 83.0855C118.512 83.1251 118.656 83.3285 118.641 83.6261Z" fill="#263238"/>
<path d="M118.226 83.0708L118.895 82.8525C118.895 82.8525 118.548 83.3833 118.226 83.0708Z" fill="#263238"/>
<path d="M109.674 89.2401C109.705 89.2784 109.74 89.3134 109.778 89.3443C110.287 89.8538 110.89 90.2597 111.554 90.5396C113.503 91.2786 114.917 91.1943 115.938 90.4057C117.387 89.2153 118.031 86.8345 118.26 83.8932C118.385 82.7342 118.328 81.5627 118.091 80.4212C118.091 80.4212 118.091 80.3766 118.091 80.3666L118.061 80.2377C117.9 79.5859 117.578 78.9847 117.125 78.4892C116.672 77.9936 116.102 77.6194 115.467 77.4006C114.917 77.1967 114.347 77.052 113.766 76.969C108.082 76.101 105.76 85.3862 109.674 89.2401Z" fill="#EBB376"/>
<path opacity="0.2" d="M109.778 89.3456C110.295 89.8306 110.902 90.2097 111.564 90.4616C113.513 91.2006 114.937 91.0518 115.963 90.2483C114.718 90.3815 113.464 90.1028 112.392 89.4547C111.993 89.2403 111.551 89.1192 111.098 89.1003C110.645 89.0814 110.194 89.1652 109.778 89.3456Z" fill="black"/>
<path d="M118.101 80.353C118.101 80.353 117.868 84.3905 113.845 85.5809C113.845 85.5809 111.653 89.5042 109.252 89.2364C105.979 88.8644 103.747 83.83 105.527 79.2618C107.834 73.3396 117.188 74.1183 118.101 80.353Z" fill="#263238"/>
<path d="M115.919 84.7077C116.003 84.0827 115.651 82.9667 114.659 82.9766C113.667 82.9865 112.744 85.3773 115.155 86.2701C115.472 86.399 115.745 86.0072 115.919 84.7077Z" fill="#EBB376"/>
<path d="M111.733 75.1591C111.733 75.1591 115.701 74.7177 117.571 76.538C119.783 78.6659 120.462 80.6449 117.154 83.115C117.154 83.115 111.043 80.1638 108.856 80.3076C107.58 80.3901 106.312 80.5758 105.066 80.8631C105.2 76.5777 109.729 73.9985 111.733 75.1591Z" fill="#263238"/>
<path d="M112.556 90.3267C112.556 90.3267 110.572 92.9009 110.81 96.0207L101.386 93.883C101.386 93.883 107.169 90.5003 107.487 87.7574C107.492 87.7574 111.812 86.9638 112.556 90.3267Z" fill="#EBB376"/>
<path d="M93.5791 116.626C96.6989 117.186 103.325 116.923 109.734 118.114C117.367 97.103 115.507 97.7032 115.507 97.7032C115.507 97.7032 113.92 95.5803 111.872 94.8363L111.653 94.757C110.622 94.4048 110.403 94.3502 109.02 93.9782C106.639 93.4525 104.427 93.021 101.684 92.649L101.163 92.5845C100.667 92.525 100.171 92.4754 99.6749 92.4357C99.3575 92.401 99.0351 92.3811 98.7325 92.3613L97.686 92.3067C97.1363 92.3031 96.5918 92.4121 96.0859 92.6271C95.58 92.842 95.1236 93.1584 94.7447 93.5566C95.6921 106.641 94.9282 110.564 93.5791 116.626Z" fill="#451482"/>
<path opacity="0.6" d="M115.359 100.589C114.488 104.147 113.432 107.657 112.194 111.104C111.515 113.113 110.706 115.424 109.714 118.083C103.306 116.917 96.6794 117.18 93.5596 116.595C94.9087 110.534 95.6725 106.61 94.745 93.501C95.1239 93.1027 95.5803 92.7864 96.0862 92.5714C96.5921 92.3564 97.1366 92.2474 97.6863 92.2511L98.7329 92.3056C99.0354 92.3056 99.3578 92.3453 99.6753 92.38C100.171 92.4197 100.642 92.4693 101.163 92.5288L101.684 92.5933C104.427 92.9653 106.644 93.3968 109.02 93.9226C110.404 94.2946 110.622 94.3491 111.654 94.7013L111.872 94.7807C113.92 95.5247 115.508 97.6475 115.508 97.6475C115.508 97.6475 116.068 97.5037 115.359 100.589Z" fill="white"/>
<path opacity="0.2" d="M115.358 100.589C114.488 104.147 113.431 107.657 112.193 111.104C111.471 109.952 111.02 108.65 110.874 107.297C110.729 105.945 110.894 104.577 111.355 103.297C111.995 101.551 113.587 100.807 115.358 100.589Z" fill="black"/>
<path d="M115.874 99.1064C116.181 100.188 116.509 101.358 116.866 102.474C117.223 103.59 117.575 104.731 117.967 105.842C118.359 106.953 118.771 108.059 119.207 109.145C119.42 109.691 119.653 110.227 119.882 110.767C119.991 111.035 120.115 111.298 120.234 111.561L120.417 111.958L120.502 112.151C120.502 112.151 120.502 112.151 120.502 112.196C120.677 112.473 120.908 112.709 121.181 112.89C121.587 113.178 122.017 113.43 122.466 113.644C123.482 114.127 124.531 114.536 125.605 114.869C127.813 115.569 130.164 116.149 132.48 116.64L132.272 118.887C129.752 118.876 127.239 118.637 124.762 118.173C123.471 117.931 122.202 117.582 120.968 117.131C120.292 116.878 119.64 116.566 119.019 116.199C118.243 115.75 117.574 115.137 117.059 114.403C116.98 114.292 116.907 114.176 116.841 114.056L116.727 113.843L116.499 113.421C116.345 113.143 116.191 112.861 116.048 112.578C115.755 112.017 115.477 111.447 115.214 110.872C114.679 109.731 114.183 108.57 113.726 107.4C113.27 106.229 112.843 105.049 112.461 103.858C112.08 102.668 111.727 101.487 111.425 100.208L115.874 99.1064Z" fill="#E9B376"/>
<path d="M131.756 116.943L134.677 115.772L135.173 118.53C135.173 118.53 132.535 120.127 131.438 118.228L131.756 116.943Z" fill="#EBB376"/>
<path d="M136.126 115.941L137.063 118.074L135.174 118.53L134.678 115.772L136.126 115.941Z" fill="#EBB376"/>
<path d="M113.979 96.3287C116.494 97.9755 118.101 101.631 118.528 103.729L112.685 108.491C112.685 108.491 109.501 101.383 110.547 99.5627C111.594 97.7423 113.027 95.7286 113.979 96.3287Z" fill="#451482"/>
<path d="M122.327 202.576L124.996 201.872C124.004 188.411 121.38 172.162 119.133 159.98C118.781 158.07 118.439 156.265 118.111 154.583L117.665 152.277C116.951 148.622 116.35 145.74 115.973 143.954C115.701 142.655 115.547 141.94 115.547 141.94L105.944 144.723L106.743 147.143L109.382 155.129L109.684 156.042L111.43 161.314L114.406 170.292C114.808 184.016 122.327 202.576 122.327 202.576Z" fill="#EBB376"/>
<path d="M99.0449 201.927L101.803 201.659C103.241 187.057 103.291 168.878 103.102 156.245C103.067 154.286 103.033 152.461 102.998 150.789C102.998 150.7 102.998 150.62 102.998 150.541C102.919 147.253 102.834 144.639 102.775 142.982L102.691 140.998L92.7705 142.109L93.3905 146.241L94.2932 152.317L94.4718 153.502L95.0918 157.644L96.7236 168.734C94.7942 182.34 99.0449 201.927 99.0449 201.927Z" fill="#EBB376"/>
<path opacity="0.2" d="M94.2682 152.312L102.998 150.824C102.998 150.734 102.998 150.655 102.998 150.576C102.918 147.287 102.834 144.673 102.775 143.017L93.3506 146.255L94.2682 152.312Z" fill="black"/>
<path opacity="0.2" d="M116.936 148.602L107.75 150.159L106.758 147.119L115.983 143.93C116.212 145.066 116.564 146.653 116.936 148.602Z" fill="black"/>
<path d="M93.1374 115.876C93.1374 115.876 87.1854 129.794 92.7456 149.976C92.7456 149.976 95.8258 151.032 103.598 149.882C108.135 149.155 112.573 147.91 116.826 146.172C113.483 129.804 110.468 122.364 110.468 122.364L110.334 117.761L93.1374 115.876Z" fill="#263238"/>
<path d="M97.7149 201.376C97.7149 201.034 101.981 201.302 101.981 201.302C101.981 201.302 104.599 203.965 107.144 204.566C109.688 205.166 108.265 206.693 105.423 206.693H98.4093C96.3856 206.679 97.6504 204.957 97.7149 201.376Z" fill="#263238"/>
<path d="M104.242 202.368C103.627 202.293 103.029 202.11 102.477 201.827C102.461 201.822 102.447 201.812 102.437 201.798C102.427 201.769 102.427 201.737 102.437 201.708C102.437 201.669 102.809 200.672 103.389 200.434C103.476 200.394 103.57 200.374 103.665 200.374C103.76 200.374 103.853 200.394 103.94 200.434C104.133 200.528 104.228 200.647 104.218 200.791C104.218 201.014 103.9 201.242 103.558 201.426C103.879 201.371 104.209 201.407 104.51 201.53C104.566 201.559 104.616 201.6 104.655 201.649C104.694 201.699 104.723 201.756 104.738 201.818C104.771 201.894 104.778 201.979 104.759 202.06C104.74 202.141 104.697 202.214 104.634 202.269C104.52 202.349 104.381 202.384 104.242 202.368ZM102.864 201.758C103.494 202.021 104.272 202.254 104.476 202.095C104.476 202.095 104.545 202.036 104.5 201.867C104.491 201.836 104.476 201.806 104.456 201.781C104.435 201.755 104.41 201.734 104.381 201.718C104.074 201.555 103.345 201.664 102.864 201.768V201.758ZM103.627 200.587C103.568 200.587 103.509 200.599 103.454 200.622C103.12 200.841 102.864 201.161 102.725 201.535C103.355 201.297 103.965 200.964 103.975 200.776C103.975 200.716 103.88 200.662 103.821 200.632C103.76 200.607 103.694 200.595 103.627 200.597V200.587Z" fill="#451482"/>
<path d="M121.568 201.376C121.568 201.034 125.834 201.302 125.834 201.302C125.834 201.302 128.453 203.965 130.997 204.566C133.541 205.166 132.118 206.693 129.276 206.693H122.243C120.219 206.679 121.484 204.957 121.568 201.376Z" fill="#263238"/>
<path d="M128.075 202.368C127.46 202.293 126.862 202.11 126.31 201.827C126.294 201.822 126.28 201.812 126.27 201.798C126.26 201.769 126.26 201.737 126.27 201.708C126.27 201.669 126.642 200.672 127.222 200.434C127.309 200.394 127.403 200.374 127.498 200.374C127.593 200.374 127.687 200.394 127.773 200.434C127.966 200.528 128.061 200.647 128.051 200.791C128.051 201.014 127.733 201.242 127.391 201.426C127.712 201.371 128.042 201.407 128.343 201.53C128.399 201.559 128.449 201.6 128.488 201.649C128.527 201.699 128.556 201.756 128.571 201.818C128.604 201.894 128.611 201.979 128.592 202.06C128.573 202.141 128.53 202.214 128.467 202.269C128.353 202.349 128.214 202.384 128.075 202.368ZM126.697 201.758C127.327 202.021 128.105 202.254 128.309 202.095C128.309 202.095 128.378 202.036 128.333 201.867C128.324 201.836 128.309 201.806 128.289 201.781C128.268 201.755 128.243 201.734 128.214 201.718C127.907 201.555 127.178 201.664 126.697 201.768V201.758ZM127.46 200.587C127.401 200.587 127.342 200.599 127.287 200.622C126.953 200.841 126.697 201.161 126.558 201.535C127.188 201.297 127.798 200.964 127.808 200.776C127.808 200.716 127.713 200.662 127.654 200.632C127.597 200.609 127.537 200.597 127.475 200.597L127.46 200.587Z" fill="#451482"/>
<path d="M96.8174 119.041L105.969 119.998V117.92L97.0852 117.057C97.0158 117.553 96.9017 118.371 96.8174 119.041Z" fill="black"/>
<path d="M106.684 117.983V120.067L110.473 120.463V118.355L106.684 117.983Z" fill="black"/>
<path d="M96.3564 116.962L92.5075 116.58L92.0264 118.534L95.9944 118.946L96.3564 116.962Z" fill="black"/>
<path opacity="0.6" d="M113.979 96.3287C116.494 97.9755 118.101 101.631 118.528 103.729L112.685 108.491C112.685 108.491 109.501 101.383 110.547 99.5627C111.594 97.7423 113.027 95.7286 113.979 96.3287Z" fill="white"/>
<path d="M99.0944 91.8496C99.0944 91.8496 94.9379 96.1747 89.343 113.946L88.4502 113.723C88.4502 113.723 94.4022 93.4715 99.0944 91.8496Z" fill="#451482"/>
<path d="M113.846 85.5849C113.846 85.5849 113.875 91.3584 108.861 93.2729C103.846 95.1875 106.976 101.417 101.391 100.683C98.4151 100.291 94.1892 93.883 101.391 88.2385C105.592 84.95 100.598 74.1422 111.733 75.159C111.733 75.159 111.544 82.5643 113.846 85.5849Z" fill="#263238"/>
</svg>
