<svg width="25" height="25" viewBox="0 0 25 25" fill="none" xmlns="http://www.w3.org/2000/svg">
<path d="M23.001 12.3302C23.001 11.4669 22.9296 10.8369 22.7749 10.1836H12.7153V14.0802H18.62C18.501 15.0486 17.8582 16.5069 16.4296 17.4869L16.4096 17.6173L19.5902 20.032L19.8106 20.0536C21.8343 18.2219 23.001 15.5269 23.001 12.3302Z" fill="#4285F4"/>
<path d="M12.7147 22.5963C15.6075 22.5963 18.036 21.6629 19.8099 20.0529L16.4289 17.4862C15.5242 18.1045 14.3099 18.5362 12.7147 18.5362C9.88136 18.5362 7.47663 16.7045 6.61941 14.1729L6.49376 14.1833L3.1865 16.6917L3.14325 16.8095C4.90513 20.2395 8.52417 22.5963 12.7147 22.5963Z" fill="#34A853"/>
<path d="M6.62003 14.1732C6.39385 13.5198 6.26295 12.8198 6.26295 12.0965C6.26295 11.3731 6.39385 10.6731 6.60813 10.0198L6.60214 9.88066L3.25343 7.33203L3.14387 7.3831C2.41771 8.80645 2.00104 10.4048 2.00104 12.0965C2.00104 13.7881 2.41771 15.3864 3.14387 16.8098L6.62003 14.1732Z" fill="#FBBC05"/>
<path d="M12.7147 5.65665C14.7266 5.65665 16.0837 6.50831 16.8576 7.22003L19.8814 4.32668C18.0243 2.63502 15.6075 1.59668 12.7147 1.59668C8.5242 1.59668 4.90514 3.95333 3.14325 7.3833L6.60753 10.02C7.47665 7.48834 9.8814 5.65665 12.7147 5.65665Z" fill="#EB4335"/>
</svg>
