<svg width="244" height="312" viewBox="0 0 244 312" fill="none" xmlns="http://www.w3.org/2000/svg">
<path d="M75.2268 252.758C75.3838 252.896 75.5859 252.914 75.6844 252.801C75.783 252.689 75.7385 252.49 75.5815 252.353C75.4246 252.215 75.2225 252.197 75.1239 252.309C75.0254 252.422 75.0755 252.625 75.2268 252.758ZM72.3992 252.126C72.8645 252.535 73.4758 252.584 73.7714 252.246C74.0669 251.909 73.9328 251.303 73.4732 250.9C73.008 250.491 72.3967 250.442 72.1011 250.78C71.795 251.118 71.934 251.718 72.3992 252.126ZM54.1784 233.842C54.5371 234.157 55.0053 234.2 55.2368 233.935C55.4634 233.676 55.3592 233.207 55.006 232.897C54.6529 232.587 54.1792 232.539 53.9477 232.803C53.7161 233.068 53.8197 233.527 54.1784 233.842ZM81.7341 282.799C82.5276 282.391 83.2582 281.829 83.8789 281.12C86.554 278.065 86.2554 273.425 83.2119 270.753C83.1951 270.738 83.1783 270.724 83.1559 270.704C83.4112 270.48 83.6602 270.241 83.8869 269.982C86.5619 266.928 86.2634 262.287 83.2199 259.616C82.3287 258.833 81.3007 258.309 80.2308 258.036L80.2751 257.986C79.453 257.702 78.6297 257.646 77.9217 257.82C77.9112 257.821 77.8901 257.822 77.8796 257.823C77.5398 257.226 77.0798 256.653 76.5025 256.146C75.5833 255.339 74.5307 254.843 73.5259 254.678C73.441 254.344 73.2333 253.993 72.9138 253.712C72.2916 253.166 71.4705 253.062 71.0253 253.457C70.3391 252.656 69.3555 252.081 68.3554 251.989C68.0733 251.96 67.805 251.984 67.5649 252.032C67.6483 251.438 67.7783 250.746 67.9802 249.938C68.0654 250.113 68.1935 250.295 68.3616 250.442C68.8661 250.885 69.542 250.951 69.8671 250.58C70.1922 250.209 70.0442 249.551 69.5341 249.104C69.1362 248.754 68.6373 248.645 68.2818 248.79C70.2388 241.891 102.949 197.859 122.08 173.906L121.54 173.402L121.495 173.363L121.45 173.323L120.881 172.853C99.9572 194.675 60.8755 233.134 54.2219 236.079C53.5834 235.608 52.7987 235.576 52.4095 236.02C52.2124 236.245 52.1478 236.557 52.2061 236.887C51.0792 237.29 50.1998 237.513 49.5516 237.631C49.439 237.443 49.2948 237.256 49.1099 237.094C48.8408 236.858 48.54 236.703 48.239 236.628C48.7601 235.274 48.1963 233.416 46.7638 232.029C47.774 228.578 46.7794 224.709 43.9097 222.19C39.9582 218.721 33.9448 219.124 30.4716 223.09C28.8065 224.991 28.029 227.374 28.1109 229.714C25.3607 229.628 22.5868 230.736 20.6261 232.975C17.9658 236.012 17.5724 240.254 19.3023 243.634C18.9316 243.955 18.5784 244.302 18.2484 244.679C14.4649 248.999 14.8876 255.569 19.1922 259.348C20.0217 260.077 20.931 260.646 21.8939 261.063C19.6138 267.709 21.3854 275.354 26.9792 280.264C33.9237 286.361 44.2801 286.059 50.8933 279.855C51.5085 282.265 52.8379 284.517 54.8445 286.279C58.6783 289.644 63.9558 290.297 68.3502 288.404C68.6903 289.827 69.4588 291.168 70.6415 292.206C73.685 294.878 78.3188 294.568 80.9938 291.513C83.1812 289.015 83.3814 285.469 81.7341 282.799ZM49.4501 236.875C50.0498 237.402 50.8478 237.475 51.2321 237.037C51.6163 236.598 51.4391 235.815 50.8394 235.289C50.2396 234.762 49.4416 234.689 49.0574 235.127C48.6731 235.566 48.8504 236.349 49.4501 236.875ZM47.8968 232.705C48.1209 232.902 48.4136 232.93 48.5565 232.767C48.6993 232.604 48.6333 232.317 48.4091 232.12C48.1849 231.924 47.8922 231.896 47.7494 232.059C47.617 232.221 47.6782 232.514 47.8968 232.705Z" fill="url(#paint0_linear_1449_6015)"/>
<g clip-path="url(#clip0_1449_6015)">
<path d="M114.469 168.382L119.745 174.703L126.883 178.745C128.331 179.574 128.849 181.542 127.918 182.889L111.986 206.204C111.986 206.204 105.055 199.054 102.158 196.671C99.2616 194.184 90.5718 188.381 90.5718 188.381L110.434 168.175C111.469 166.932 113.434 167.139 114.469 168.382Z" fill="#665AF0"/>
<path d="M141.78 148.28C141.056 162.684 128.538 182.061 128.538 182.061C121.607 178.952 115.607 173.875 111.262 167.657C111.159 167.554 128.332 151.285 141.78 148.28Z" fill="#FF3C00"/>
<path d="M128.435 182.06C128.435 182.06 131.538 177.605 126.883 184.547C114.365 203.406 111.986 206.204 111.986 206.204C111.986 206.204 107.124 200.401 102.158 196.671C102.158 196.671 108.676 189.003 117.986 177.916C118.4 177.398 118.814 176.879 119.228 176.361C122.021 178.641 125.124 180.506 128.435 182.06Z" fill="#7166FE"/>
<path d="M119.228 176.258C128.124 165.274 136.504 150.249 137.125 149.627C138.676 149.006 140.228 148.488 141.676 148.177C141.676 148.28 141.676 148.384 141.676 148.591C141.573 150.146 140.745 156.466 136.918 165.896C133.09 174.807 128.435 181.957 128.435 181.957C125.124 180.506 122.021 178.641 119.228 176.258Z" fill="#DD2400"/>
<path d="M111.946 206.177C112.421 205.606 107.998 201.139 102.067 196.201C96.1357 191.262 90.9419 187.722 90.4664 188.293C89.9909 188.865 94.4138 193.332 100.345 198.27C106.276 203.209 111.47 206.749 111.946 206.177Z" fill="#A199F9"/>
<path d="M136.593 136.731L154.181 151.522L180.988 119.543L163.4 104.752L136.593 136.731Z" fill="#FF3C00"/>
<path d="M159.263 132.634C159.263 132.634 160.194 131.494 159.677 130.561C159.16 129.629 150.884 122.271 150.884 122.271C150.884 122.271 161.125 128.696 163.298 130.561C165.47 132.426 167.126 136.157 167.126 136.157L165.574 137.918L159.263 132.634Z" fill="#BA2700"/>
<path d="M144.47 113.983L171.988 136.883L174.988 139.784L197.851 112.635L167.229 86.9375L144.47 113.983Z" fill="#3D34F4"/>
<path d="M115.917 161.233L133.608 176.051L165.574 137.918L147.884 123.101L115.917 161.233Z" fill="#665AF0"/>
<path opacity="0.32" d="M155.332 129.318C155.332 129.318 154.918 134.085 151.815 138.955C148.711 143.929 124.71 168.591 124.71 168.591L133.504 176.051L165.47 137.919L155.332 129.318Z" fill="#00898D"/>
<path d="M194.85 61.7573L205.195 73.8809L218.851 81.9633C221.748 83.6212 222.782 87.1443 221.127 89.5276L192.781 130.561C192.781 130.561 179.436 116.883 173.746 112.117C168.057 107.35 151.608 95.8485 151.608 95.8485L187.092 60.8247C189.057 58.8559 192.678 59.2704 194.85 61.7573Z" fill="url(#paint1_linear_1449_6015)"/>
<path d="M243.99 30.982C241.817 56.7836 221.748 88.077 221.748 88.077C208.506 81.6525 197.023 72.0158 188.437 59.9958C188.437 59.9958 216.679 34.2979 240.679 28.1842C242.541 27.6661 244.197 29.1168 243.99 30.982Z" fill="#665AF0"/>
<path d="M192.678 130.665L185.022 127.867C185.022 127.867 178.091 120.717 170.85 114.811C161.436 107.039 154.401 102.169 154.401 102.169L151.504 96.0557L153.263 97.0919C168.263 105.9 181.609 117.298 192.678 130.665Z" fill="#004345"/>
<path d="M167.125 136.158C167.125 136.158 164.229 132.842 159.16 128.593C152.435 122.998 149.539 121.34 149.539 121.34L147.573 116.573C156.677 122.169 165.056 129.111 172.195 137.09L167.125 136.158Z" fill="#004345"/>
<path opacity="0.32" d="M219.368 86.7304C206.023 110.563 192.781 130.666 192.781 130.666C192.781 130.666 186.678 123.723 183.057 120.096C177.781 114.812 175.401 112.946 175.401 112.946C175.401 112.946 189.574 101.03 207.161 79.0625C210.988 81.8603 215.023 84.4508 219.368 86.7304Z" fill="#7D73F2"/>
<path d="M212.333 72.3273C222.264 59.1675 238.092 33.9876 242.334 30.7754C242.748 30.4645 243.368 30.7754 243.265 31.2935C242.851 35.2311 239.955 54.5045 223.713 79.9952C222.264 82.2749 220.816 84.5546 219.368 86.7306C215.023 84.4509 210.988 81.964 207.161 79.0627C208.816 76.8866 210.575 74.607 212.333 72.3273Z" fill="#7D73F2"/>
<path d="M201.238 102.425C206.859 95.7197 205.988 85.7199 199.294 80.0899C192.6 74.4598 182.617 75.3315 176.996 82.0368C171.375 88.742 172.245 98.7418 178.939 104.372C185.634 110.002 195.617 109.13 201.238 102.425Z" fill="#F26338"/>
<path opacity="0.32" d="M162.573 127.557C162.573 127.557 166.091 122.065 165.677 116.158C165.366 112.013 161.642 107.972 159.47 105.9C158.539 104.967 157.814 104.553 157.814 104.553C157.814 104.553 168.677 112.739 174.056 117.505C179.436 122.376 184.919 127.867 184.919 127.867L174.884 139.784C174.987 139.784 166.918 131.287 162.573 127.557Z" fill="#6C70E7"/>
<path d="M195.376 118.284L215.002 95.5576L212.499 93.3884L192.872 116.115L195.376 118.284Z" fill="#004345"/>
<path d="M212.045 97.9083L213.872 95.793L211.603 93.8275L209.776 95.9429L212.045 97.9083Z" fill="#FFD400"/>
<path d="M209.635 100.628L211.462 98.5127L209.193 96.5472L207.367 98.6626L209.635 100.628Z" fill="#FFD400"/>
<path d="M207.228 103.354L209.055 101.238L206.786 99.2728L204.959 101.388L207.228 103.354Z" fill="#FFD400"/>
<path d="M204.894 106.136L206.721 104.021L204.453 102.055L202.626 104.17L204.894 106.136Z" fill="#FFD400"/>
<path d="M202.485 108.855L204.312 106.739L202.043 104.774L200.216 106.889L202.485 108.855Z" fill="#FFD400"/>
<path d="M200.154 111.643L201.98 109.527L199.712 107.562L197.885 109.677L200.154 111.643Z" fill="#FFD400"/>
<path d="M197.747 114.368L199.574 112.253L197.306 110.287L195.479 112.403L197.747 114.368Z" fill="#FFD400"/>
<path d="M195.416 117.156L197.243 115.041L194.975 113.076L193.148 115.191L195.416 117.156Z" fill="#FFD400"/>
<mask id="mask0_1449_6015" style="mask-type:alpha" maskUnits="userSpaceOnUse" x="189" y="29" width="53" height="35">
<path d="M237.783 32.3295C237.783 32.3295 219.265 40.93 207.058 50.1522C194.851 59.3745 191.644 63.8302 191.644 63.8302L189.264 60.4107C189.264 60.4107 203.747 46.4219 220.403 38.3395C237.058 30.257 242.024 28.1846 241.507 29.3244C240.99 30.5679 237.783 32.3295 237.783 32.3295Z" fill="url(#paint2_linear_1449_6015)"/>
</mask>
<g mask="url(#mask0_1449_6015)">
<path opacity="0.66" d="M237.783 32.3295C237.783 32.3295 219.265 40.93 207.058 50.1522C194.851 59.3745 191.644 63.8302 191.644 63.8302L189.264 60.4107C189.264 60.4107 203.747 46.4219 220.403 38.3395C237.058 30.257 242.024 28.1846 241.507 29.3244C240.99 30.5679 237.783 32.3295 237.783 32.3295Z" fill="url(#paint3_linear_1449_6015)"/>
</g>
<mask id="mask1_1449_6015" style="mask-type:alpha" maskUnits="userSpaceOnUse" x="154" y="62" width="39" height="39">
<path d="M192.161 66.6276C192.161 66.6276 182.54 75.8498 175.713 82.896C168.885 89.9423 160.298 100.201 160.298 100.201L154.195 96.0559C154.195 96.0559 168.574 81.6526 177.678 72.8448C185.851 64.866 188.954 62.1719 188.954 62.1719L192.161 66.6276Z" fill="url(#paint4_linear_1449_6015)"/>
</mask>
<g mask="url(#mask1_1449_6015)">
<path opacity="0.66" d="M192.161 66.6266C192.161 66.6266 182.54 75.8488 175.712 82.8951C168.884 89.9413 160.298 100.2 160.298 100.2L154.194 96.0549C154.194 96.0549 168.574 81.6516 177.678 72.8438C185.85 64.865 188.954 62.1709 188.954 62.1709L192.161 66.6266Z" fill="#CBC7FA"/>
<path d="M186.989 84.139C189.989 80.2014 194.23 80.7195 197.541 83.7245C200.954 86.7295 202.196 91.0816 199.196 95.0192C198.989 95.33 198.678 95.6409 198.472 95.8481C197.851 96.5735 197.127 97.0916 196.299 97.5061C195.989 97.6097 195.782 97.8169 195.471 97.9205C194.023 98.5423 190.402 99.6821 189.058 100.407C187.092 101.444 185.126 103.516 184.299 104.345C184.092 104.656 183.782 104.863 183.471 104.967L183.057 105.174C182.54 105.381 182.023 105.278 181.609 104.967L178.402 102.376C177.885 101.962 177.885 101.133 178.402 100.718C180.161 99.164 183.782 95.8481 184.299 93.6721C185.023 90.6671 184.816 87.3512 186.368 85.1752C186.471 84.8643 186.678 84.4498 186.989 84.139Z" fill="#BA2700"/>
<path d="M185.022 82.4818C188.023 78.5442 192.264 79.0623 195.574 82.0673C198.988 85.0723 200.23 89.4243 197.23 93.3619C197.023 93.6728 196.712 93.9837 196.505 94.1909C195.885 94.9162 195.161 95.4343 194.333 95.8488C194.023 95.9524 193.816 96.1597 193.505 96.2633C192.057 96.885 190.505 97.2995 189.16 98.0249C186.574 99.2683 186.471 99.9937 186.471 99.9937L183.781 97.6104L181.091 95.2271C181.091 95.2271 181.712 95.0199 182.333 92.0149C183.057 89.0099 182.85 85.694 184.402 83.518C184.609 83.2071 184.816 82.7926 185.022 82.4818Z" fill="#FFD400"/>
<path d="M181.505 94.6055C181.505 94.6055 182.126 96.1598 183.781 97.6105C185.436 99.0612 186.988 99.4757 186.988 99.4757C186.988 99.4757 187.299 101.03 186.781 101.134C186.367 101.237 186.264 101.134 186.264 101.134C186.264 101.134 184.092 104.346 182.747 104.449C181.505 104.553 179.954 103.102 179.747 102.895C179.54 102.688 177.988 101.444 177.884 100.097C177.781 98.6467 180.264 95.7453 180.264 95.7453C180.264 95.7453 180.16 95.7453 180.16 95.2272C180.057 94.6055 181.505 94.6055 181.505 94.6055Z" fill="url(#paint5_linear_1449_6015)"/>
<path d="M185.229 98.8551C185.539 98.4406 187.505 96.1609 189.367 94.1921C189.16 93.8813 189.057 93.4668 188.953 92.9487C188.746 93.0523 188.436 93.0523 188.229 93.0523C187.919 93.0523 187.608 92.8451 187.401 92.6378L187.919 92.3269C188.022 92.4306 188.126 92.5342 188.229 92.5342C188.436 92.5342 188.643 92.5342 188.85 92.4306C188.85 92.0161 188.953 91.6016 189.264 91.1871C189.677 90.5654 190.402 89.6328 191.022 89.6328C191.126 89.6328 191.333 89.7364 191.436 89.8401C191.746 90.3582 191.022 91.498 190.505 92.1197C190.195 92.4306 189.884 92.6378 189.574 92.8451C189.574 93.1559 189.677 93.5704 189.884 93.8813C191.126 92.6378 192.264 91.6016 192.884 91.3944C193.712 91.0835 194.022 91.498 194.126 91.7052C194.54 92.5342 193.505 93.9849 191.746 95.1247C191.126 95.5392 190.608 95.4356 190.298 95.2283C190.091 95.1247 189.988 95.0211 189.781 94.8138C188.229 96.4718 186.574 98.337 185.746 99.3732L185.229 98.8551ZM192.988 91.8088C192.471 92.0161 191.333 92.9487 190.195 94.1921C190.298 94.2957 190.402 94.3994 190.505 94.503C190.815 94.6066 191.022 94.6066 191.436 94.3994C193.195 93.2595 193.712 92.0161 193.609 91.8088C193.609 91.8088 193.609 91.8088 193.505 91.8088C193.402 91.7052 193.195 91.7052 192.988 91.8088ZM189.781 91.3944C189.677 91.6016 189.574 91.7052 189.574 91.9125C189.677 91.8088 189.884 91.7052 189.988 91.498C190.505 90.9799 190.712 90.4618 190.815 90.1509C190.608 90.4618 190.195 90.8763 189.781 91.3944Z" fill="black"/>
<path d="M182.126 96.1603C182.85 95.0205 184.298 92.9481 185.54 90.9793C185.436 90.8757 185.23 90.772 185.126 90.6684C184.919 90.3576 184.609 89.8395 184.919 89.0105C185.54 87.0417 186.781 85.6946 187.609 85.9019C187.919 85.9019 188.23 86.2127 188.126 87.1453C188.023 87.8707 187.299 89.2177 186.471 90.772C186.781 90.8757 187.092 90.8757 187.402 90.8757C187.505 90.5648 187.609 90.1503 187.816 89.8394C188.23 89.1141 189.264 88.1815 189.781 88.3888C189.885 88.4924 189.988 88.596 190.092 88.6996C190.195 89.2177 189.368 90.3576 188.954 90.772C188.643 91.0829 188.333 91.3938 187.919 91.4974C187.919 91.8082 187.919 92.0155 187.919 92.2227C187.919 92.3263 188.023 92.5336 188.126 92.5336L187.816 93.0517C187.609 92.9481 187.402 92.6372 187.299 92.3263C187.195 92.1191 187.195 91.8082 187.195 91.4974C186.781 91.4974 186.367 91.3938 186.057 91.2901C184.505 93.777 182.747 96.3675 182.54 96.5748L182.126 96.1603ZM187.402 86.42C187.092 86.3164 186.161 87.2489 185.436 89.1141C185.333 89.5286 185.333 89.9431 185.54 90.2539C185.643 90.3576 185.643 90.3576 185.747 90.4612C186.678 89.0105 187.299 87.6634 187.402 87.0417C187.609 86.5236 187.505 86.42 187.402 86.42ZM188.333 90.0467C188.23 90.2539 188.126 90.4612 188.023 90.5648C188.126 90.4612 188.333 90.3576 188.436 90.2539C188.954 89.6322 189.264 89.2177 189.368 88.9069C189.057 89.0105 188.643 89.425 188.333 90.0467Z" fill="black"/>
<path d="M186.057 101.238C186.161 101.238 186.367 101.238 186.367 101.031C186.471 100.824 186.367 100.72 186.161 100.617C186.161 100.617 184.816 100.099 183.057 98.5442C181.298 96.9899 180.471 95.4356 180.471 95.4356C180.367 95.332 180.16 95.2284 180.057 95.332C179.953 95.4356 179.85 95.6428 179.953 95.7465C179.953 95.8501 180.885 97.4044 182.747 99.0623C184.505 100.617 185.954 101.238 186.057 101.238C186.057 101.238 185.954 101.238 186.057 101.238Z" fill="black"/>
<path d="M184.298 102.066C184.402 102.066 184.609 102.066 184.609 101.859C184.712 101.755 184.609 101.548 184.402 101.444C184.402 101.444 182.85 100.719 181.712 99.5793C180.574 98.3359 180.16 97.5069 180.16 97.5069C180.057 97.4033 179.953 97.2997 179.746 97.4033C179.643 97.5069 179.539 97.6105 179.643 97.8178C179.643 97.8178 180.057 98.7503 181.298 100.097C182.54 101.341 184.195 101.963 184.298 102.066Z" fill="black"/>
<path d="M183.781 102.689C183.885 102.689 184.091 102.689 184.091 102.482C184.195 102.378 184.091 102.171 183.885 102.068C183.885 102.068 182.333 101.342 181.195 100.202C180.057 98.9589 179.643 98.1299 179.643 98.1299C179.54 98.0263 179.436 97.9227 179.229 98.0263C179.126 98.1299 179.022 98.2336 179.126 98.4408C179.126 98.4408 179.54 99.3734 180.781 100.72C182.126 101.964 183.678 102.586 183.781 102.689Z" fill="black"/>
<path d="M183.264 103.309C183.368 103.309 183.574 103.309 183.574 103.102C183.678 102.999 183.574 102.791 183.368 102.688C183.368 102.688 181.816 101.962 180.678 100.822C179.54 99.579 179.126 98.7501 179.126 98.7501C179.023 98.6464 178.919 98.5428 178.712 98.6464C178.609 98.7501 178.505 98.8537 178.609 99.0609C178.609 99.0609 179.023 99.9935 180.264 101.341C181.609 102.584 183.161 103.309 183.264 103.309Z" fill="black"/>
<mask id="mask2_1449_6015" style="mask-type:alpha" maskUnits="userSpaceOnUse" x="183" y="81" width="15" height="7">
<path d="M183.781 87.3532C183.781 87.3532 185.54 79.7888 191.54 81.2395C196.195 82.3794 197.23 86.5242 197.23 86.5242C197.23 86.5242 194.437 84.659 191.54 84.2445C186.057 83.5192 184.505 86.5242 183.781 87.3532Z" fill="url(#paint6_linear_1449_6015)"/>
</mask>
<g mask="url(#mask2_1449_6015)">
<path d="M183.781 87.3512C183.781 87.3512 185.54 79.7869 191.54 81.2376C196.195 82.3774 197.23 86.5222 197.23 86.5222C197.23 86.5222 194.437 84.6571 191.54 84.2426C186.057 83.5172 184.505 86.5222 183.781 87.3512Z" fill="url(#paint7_linear_1449_6015)"/>
</g>
<path d="M201.678 75.1241C202.195 75.5385 202.609 75.953 203.126 76.3675C216.265 87.1441 221.437 88.4911 221.644 88.4911C221.954 88.5948 222.161 88.3875 222.265 88.0767C222.368 87.7658 222.161 87.5586 221.851 87.4549C221.851 87.4549 216.678 86.1079 203.747 75.5385C190.919 64.9692 188.954 59.7882 188.954 59.7882C188.85 59.4773 188.54 59.3737 188.23 59.4773C187.919 59.581 187.816 59.8918 187.919 60.0991C188.023 60.3063 189.781 65.1765 201.678 75.1241Z" fill="#004345"/>
</g>
<path opacity="0.58" d="M147.78 116.781L158.539 105.487L156.883 104.14L144.469 113.984L147.78 116.781Z" fill="#1C08FD"/>
<path d="M91.2961 78.4404C91.2961 78.4404 90.1581 90.1496 91.503 98.4392C92.7444 106.729 94.3996 121.547 92.2272 130.665C90.1581 139.784 85.3994 159.161 84.7787 159.679C84.158 160.197 92.2272 158.332 92.2272 158.332C92.2272 158.332 104.434 135.535 105.883 123.93C107.228 112.324 106.917 92.4292 108.572 90.1496C110.228 87.8699 115.297 85.9011 116.642 81.0309C118.297 74.7101 113.641 67.8711 113.641 67.8711C113.641 67.8711 92.641 74.8137 91.2961 78.4404Z" fill="url(#paint8_linear_1449_6015)"/>
<path d="M107.744 74.7099C107.744 74.7099 105.055 77.9221 102.261 79.6837C99.3648 81.4452 96.7786 86.419 96.2613 89.3204C95.744 92.2218 98.951 115.64 99.1579 117.298C99.2614 119.06 103.606 120.821 102.675 121.132C101.744 121.443 96.2613 123.101 97.5027 123.101C98.7441 123.101 102.779 123.826 101.537 124.655C100.296 125.38 95.1233 126.935 96.0544 127.349C96.9855 127.764 101.02 128.8 98.951 129.318C96.9855 129.836 93.3647 142.996 92.2267 147.866C91.0888 152.736 92.3302 158.125 92.3302 158.125L84.6748 159.783C84.6748 159.783 92.744 129.318 92.9509 125.795C93.1578 122.272 90.8819 97.9209 90.2612 92.7399C89.537 86.6263 89.9508 83.6213 89.9508 83.6213C89.9508 83.6213 99.6752 74.7099 102.882 74.0882C106.193 73.5701 107.744 74.7099 107.744 74.7099Z" fill="url(#paint9_linear_1449_6015)"/>
<path d="M43.8311 67.1591L42.9902 66.7588L41.8799 69.0983L42.7208 69.4986L43.8311 67.1591Z" fill="#FFB600"/>
<path d="M54.0562 73.3299L53.2153 72.9297L52.5052 74.4266L53.346 74.8268L54.0562 73.3299Z" fill="#FFB600"/>
<path d="M59.8923 78.3412L32.8867 65.4932L24.6693 82.8059L51.6749 95.6539L59.8923 78.3412Z" fill="#FF3C00"/>
<path d="M61.0451 77.5189L32.8247 64.0898L28.0264 74.1967L56.2468 87.6258L61.0451 77.5189Z" fill="#FF3C00"/>
<path d="M26.3286 79.1669C26.3286 79.1669 30.2597 81.6538 39.5703 83.8299C47.4326 85.6951 50.3292 84.7625 50.3292 84.7625L28.6045 74.4004L26.3286 79.1669Z" fill="#CE2C00"/>
<path d="M45.1145 79.8577L41.8442 78.3008L39.9345 82.3252L43.2048 83.8821L45.1145 79.8577Z" fill="#FFB600"/>
<path d="M42.0531 78.3379C42.0531 78.3379 41.5359 79.8922 41.8462 81.5501C42.1566 83.2081 43.2945 83.7262 43.2945 83.7262L45.1567 79.7886L42.0531 78.3379Z" fill="white"/>
<path d="M56.4327 70.4624L43.3979 64.2451L41.7427 67.6646L43.9151 68.7008L44.9497 66.6284L53.6395 70.7732L52.605 72.8457L54.7775 73.8819L56.4327 70.4624Z" fill="#FF3C00"/>
<path d="M43.4601 69.5873L43.1494 70.2422L51.8383 74.3779L52.149 73.723L43.4601 69.5873Z" fill="#FF3C00"/>
<path d="M114.055 70.8752L119.642 50.4619L119.952 68.5955L114.055 70.8752Z" fill="#232440"/>
<path d="M114.469 70.2538C114.469 70.2538 119.434 59.1663 120.986 46.0065C122.538 32.743 114.365 30.9815 113.744 30.7742C109.606 28.8055 93.4681 29.9453 92.5371 31.9141C90.2611 36.7843 98.7441 47.6644 99.0545 59.1663C99.2614 67.1451 89.2266 83.5172 87.5714 85.1751C84.7782 87.8693 93.2612 87.662 101.537 76.0565C102.468 74.8131 103.503 76.1601 106.71 74.8131C107.744 74.3986 108.675 73.5696 109.503 72.9479C111.779 71.1863 114.469 70.2538 114.469 70.2538Z" fill="url(#paint10_linear_1449_6015)"/>
<path d="M111.366 34.4012L117.883 46.1104L111.159 30.6709L111.366 34.4012Z" fill="#FF9100"/>
<path d="M99.0547 74.3985C99.0547 74.3985 107.124 62.2749 109.607 55.2287C112.089 48.1824 111.055 41.2399 110.641 39.4783C110.227 37.7168 110.745 34.6081 110.745 34.6081L107.227 33.0538L103.296 32.9502C103.296 32.9502 99.4685 71.6007 99.0547 74.3985Z" fill="#FF9100"/>
<path d="M102.365 29.8421C102.365 29.8421 105.882 22.2778 105.986 19.5837C106.089 16.8895 105.986 11.3976 110.227 10.5687C114.468 9.84331 115.606 13.8845 115.917 15.5425C116.124 17.2004 116.538 21.5525 116.227 21.6561C115.917 21.7597 115.089 21.0344 115.089 21.0344C115.089 21.0344 115.193 23.8321 114.055 24.6611C112.917 25.4901 111.365 25.1792 111.365 25.1792C111.365 25.1792 109.813 28.9095 110.02 30.153C110.227 31.2928 111.468 33.987 111.468 33.987C111.468 33.987 103.192 34.1942 102.365 29.8421Z" fill="#FFB68E"/>
<path d="M101.641 29.3243C101.641 29.3243 107.745 37.614 109.193 43.2095C110.641 48.805 100.089 75.1247 96.365 78.3369C92.6408 81.5492 86.6406 83.1035 86.6406 83.1035C86.6406 83.1035 92.7442 62.5866 93.4684 52.1209C94.296 41.5516 90.4683 34.1945 93.158 31.0859C95.8477 28.0809 101.641 29.3243 101.641 29.3243Z" fill="#19437F"/>
<path d="M110.951 29.4277C110.951 29.4277 114.055 38.1319 116.951 42.7948C119.848 47.4578 119.951 68.5964 119.951 68.5964L120.986 67.9747C120.986 67.9747 123.158 43.4165 122.641 38.7536C122.124 34.0907 119.02 30.4639 117.469 30.3603C115.813 30.2567 110.951 29.4277 110.951 29.4277Z" fill="#19437F"/>
<path d="M86.7441 83.1032C86.7441 83.1032 95.2271 81.8598 98.2272 75.8498C101.331 69.8397 104.641 52.4315 104.124 47.6649C103.607 42.8983 103.089 42.4839 103.089 42.4839L106.089 41.8621L102.676 40.2042C102.676 40.2042 102.882 38.6499 100.917 35.7485C98.9513 32.8471 95.6409 29.6349 95.6409 29.6349C95.6409 29.6349 91.5029 29.5313 92.3305 35.334C93.0546 41.0332 93.1581 51.188 92.9512 54.8147C92.5374 58.5451 88.1925 80.0982 86.7441 83.1032Z" fill="url(#paint11_linear_1449_6015)"/>
<path d="M115.193 30.1523C115.193 30.1523 119.641 38.1311 120.262 39.1673C120.779 40.2036 118.089 40.2036 118.089 40.2036L120.676 40.9289C120.676 40.9289 121.607 44.3484 121.917 46.9389C122.124 49.5294 120.365 58.7517 120.365 58.7517L119.952 68.5956L121.814 67.7667C121.814 67.7667 124.297 43.8303 123.159 38.2348C122.021 32.6392 119.124 30.8777 118.296 30.6704C117.469 30.3596 115.193 30.1523 115.193 30.1523Z" fill="url(#paint12_linear_1449_6015)"/>
<path d="M122.745 40.4109C122.745 40.4109 143.435 44.0376 145.4 40.2036C147.366 36.3697 144.469 20.1012 143.745 18.8578C143.021 17.6143 142.09 17.8215 142.09 17.8215L138.986 18.9614C138.986 18.9614 139.4 32.4321 139.09 33.1574C138.78 33.9864 123.469 30.3597 118.193 30.6705C118.193 30.6705 122.124 40.1 122.745 40.4109Z" fill="url(#paint13_linear_1449_6015)"/>
<path d="M94.5031 30.0479C94.5031 30.0479 68.2266 39.8918 62.2265 48.1815C56.2263 56.5748 52.709 61.6522 52.709 61.6522L56.6401 65.1753C56.6401 65.1753 66.1576 53.4661 72.7784 49.1141C79.2958 44.762 93.9859 41.757 96.2618 38.752C98.4342 35.8506 94.5031 30.0479 94.5031 30.0479Z" fill="url(#paint14_linear_1449_6015)"/>
<path d="M52.8125 61.6535C52.8125 61.6535 57.8816 60.7209 60.8817 57.6123C65.33 52.8458 67.606 51.4987 66.9853 50.7733C66.2611 49.9444 65.537 47.872 66.5715 48.3901C67.606 48.8046 70.2957 50.877 70.1922 49.9444C70.0888 49.0118 67.2956 45.5923 68.7439 46.3177C70.1922 46.9394 72.4682 48.9082 72.2613 48.0792C72.0544 47.2502 70.606 43.8308 72.1578 45.2814C73.813 46.7321 78.4683 44.038 82.296 42.5873C86.1237 41.1366 93.5721 34.5049 93.5721 34.5049C93.5721 34.5049 94.5032 40.3076 92.7445 41.033C87.4685 43.209 76.2958 46.9394 72.6751 49.219C69.1577 51.3951 56.6402 65.1766 56.6402 65.1766L52.8125 61.6535Z" fill="#232440"/>
<path d="M123.366 40.9287C123.366 40.9287 122.642 38.8563 121.607 36.2658C120.676 34.0897 119.435 32.3282 119.435 32.3282C119.435 32.3282 126.986 36.473 129.676 37.302C132.366 38.131 138.366 39.7889 139.814 39.7889C141.263 39.7889 140.332 38.2346 139.607 36.6803C138.78 35.1259 141.159 37.7165 142.09 38.0273C143.021 38.4418 139.401 33.7789 140.435 33.8825C141.366 33.9861 144.366 36.9911 144.263 36.1622C144.159 35.3332 141.47 32.5354 141.987 32.7427C142.504 32.9499 144.573 33.3644 144.573 33.3644C144.573 33.3644 142.814 23.1059 142.194 21.3444C141.47 19.5828 139.297 18.8575 139.297 18.8575C139.297 18.8575 141.987 17.0959 143.228 17.5104C144.366 18.0285 144.056 18.7539 144.056 18.7539C144.056 18.7539 146.332 27.7689 146.642 32.9499C146.953 38.0273 146.125 39.2708 145.608 40.5142C144.159 42.7939 128.124 42.483 123.366 40.9287Z" fill="#232440"/>
<path d="M55.9153 64.5547C55.9153 64.5547 55.3981 67.3525 54.3636 69.5285C53.2256 71.7045 52.7084 70.9792 53.0187 69.4249C53.3291 67.8706 53.2256 66.938 53.2256 66.938C53.2256 66.938 51.9842 67.8706 51.6738 68.9068C51.4669 69.3213 52.5015 69.943 52.2946 70.1502C51.0531 70.9792 49.7083 69.3213 49.7083 69.3213C49.7083 69.3213 49.191 70.1502 48.6738 70.0466C47.5358 69.8394 48.3634 68.5959 48.3634 68.5959C48.3634 68.5959 47.4324 69.4249 47.122 68.4923C46.9151 67.5597 47.0186 67.5597 47.0186 67.5597C47.0186 67.5597 44.4323 69.5285 44.5357 68.285C44.6392 67.0416 53.0187 61.6533 53.0187 61.6533L55.9153 64.5547Z" fill="#FFB68E"/>
<path d="M110.951 29.4277L110.537 29.8422C110.537 29.8422 115.503 39.7898 116.641 42.7948C118.503 47.665 118.503 49.1157 119.02 51.6026C119.124 52.3279 119.434 55.4366 119.434 55.4366L119.951 68.3891C119.951 68.3891 121.503 54.504 118.917 46.6288C117.779 43.5202 110.951 29.4277 110.951 29.4277Z" fill="#232440"/>
<path d="M54.0535 62.1705L53.7432 61.9633C54.157 61.3416 63.8813 46.8347 66.0538 45.6948H66.1573C67.0883 45.384 72.3643 42.2753 78.0541 38.9595C86.5371 33.9857 92.2269 30.7734 92.8476 30.7734C92.951 30.7734 93.0545 30.7734 93.1579 30.8771C93.6752 31.4988 94.089 35.6436 93.7786 37.1979L93.4683 37.0943C93.7786 35.4364 93.2614 31.3952 92.8476 31.0843C92.2269 31.1879 84.4681 35.6436 78.261 39.2703C72.5712 42.5862 67.1918 45.6948 66.3642 46.0057H66.2607C64.5021 47.0419 56.9501 58.0257 54.0535 62.1705Z" fill="#232440"/>
<path d="M90.3647 65.3838L95.8476 64.3476L96.3649 62.4824L90.6751 63.9331L90.3647 65.3838Z" fill="#232440"/>
<path d="M91.3988 64.0368H91.2953C91.1919 64.0368 91.1919 63.9331 91.1919 63.8295C91.1919 63.7259 94.7092 55.0218 95.6403 50.1516C96.5713 45.385 96.3644 43.5198 96.3644 43.4162C96.3644 43.3126 96.4679 43.209 96.5713 43.209C96.6748 43.209 96.7782 43.3126 96.7782 43.4162C96.7782 43.5198 96.8817 45.2814 96.0541 50.2552C95.0196 55.0218 91.5022 63.8295 91.3988 64.0368C91.3988 63.9331 91.3988 63.9331 91.3988 64.0368Z" fill="#232440"/>
<path d="M93.158 54.7113C93.0546 54.7113 93.158 54.7113 93.158 54.7113C92.9511 54.7113 92.8477 54.6077 92.8477 54.5041L93.8822 43.9348C93.8822 43.8312 93.9856 43.7275 94.0891 43.7275C94.1925 43.7275 94.296 43.8312 94.296 43.9348L93.2615 54.5041C93.2615 54.6077 93.158 54.6077 93.158 54.7113Z" fill="#232440"/>
<path d="M108.262 43.2086C108.262 43.2086 108.158 43.2086 108.055 43.2086L102.468 40.4108V40.3072C102.468 40.3072 102.261 39.1674 100.71 35.9551C99.1578 32.7429 95.5371 29.9451 95.5371 29.9451C95.4336 29.8415 95.4336 29.7379 95.5371 29.7379C95.6405 29.6343 95.744 29.6343 95.744 29.7379C95.744 29.7379 99.3647 32.5356 101.02 35.8515C102.365 38.6493 102.779 39.8927 102.779 40.2036L108.262 43.0013C108.365 42.8977 108.365 43.0013 108.262 43.2086C108.365 43.2086 108.262 43.2086 108.262 43.2086Z" fill="#232440"/>
<path d="M101.951 64.5539H101.848C101.744 64.5539 101.744 64.4502 101.744 64.3466C101.744 64.243 103.503 57.9221 103.813 52.3266C104.124 46.7311 103.296 42.4826 103.296 42.4826C103.296 42.379 103.296 42.2754 103.399 42.2754C103.503 42.2754 103.606 42.2754 103.606 42.379C103.606 42.379 104.434 46.6275 104.124 52.3266C103.813 57.9221 102.054 64.3466 102.054 64.3466C102.054 64.4502 101.951 64.4502 101.951 64.5539Z" fill="#232440"/>
<path d="M120.159 39.8926C119.642 40.2035 118.4 40.3071 117.986 40.3071C117.883 40.3071 117.779 40.2035 117.779 40.0999C117.779 39.9962 117.883 39.8926 117.986 39.8926C119.021 39.789 120.055 39.5818 120.159 39.3745C119.848 38.96 115.71 31.4993 115.71 31.3957C115.71 31.2921 115.71 31.1885 115.814 31.1885C115.917 31.1885 116.021 31.1885 116.021 31.2921C116.228 31.603 120.159 38.8564 120.469 39.3745C120.469 39.4781 120.469 39.5817 120.469 39.6854C120.366 39.789 120.262 39.789 120.159 39.8926Z" fill="#232440"/>
<path d="M121.193 55.7483H121.09C120.986 55.7483 120.883 55.6447 120.986 55.5411C120.986 55.5411 121.71 50.6709 121.71 47.7695C121.71 44.8681 120.572 41.2414 120.572 41.2414C120.572 41.1378 120.572 41.0342 120.676 41.0342C120.779 41.0342 120.883 41.0342 120.883 41.1378C120.883 41.1378 122.021 44.8681 122.021 47.7695C122.021 50.6709 121.296 55.5411 121.296 55.5411C121.296 55.7483 121.193 55.7483 121.193 55.7483Z" fill="#232440"/>
<path d="M104.848 22.8985C104.848 22.8985 106.917 21.6551 107.744 20.2044C108.572 18.7537 108.779 17.9247 108.468 17.1994C107.848 15.8523 108.675 13.1582 109.192 13.9871C109.71 14.7125 109.399 16.6813 109.917 16.1632C110.434 15.6451 110.227 13.1582 111.779 12.5364C113.227 11.9147 114.158 13.0545 115.813 12.8473C117.675 12.5364 120.158 11.7075 121.089 11.0857C123.986 9.01332 125.02 6.73367 123.986 4.97211C122.331 2.17435 119.124 2.58884 114.675 4.14315C110.227 5.69746 104.33 8.70246 104.537 10.0495C104.744 11.3966 107.123 12.7437 105.882 12.7437C104.537 12.7437 103.813 13.5726 103.916 14.6088C104.02 16.9921 105.779 20.2044 104.848 22.8985Z" fill="#172755"/>
<path d="M101.02 28.3906C101.227 28.3906 103.089 28.9087 105.572 30.0486C108.055 31.292 109.813 32.9499 109.813 32.9499C109.813 32.9499 109.607 33.3644 110.227 33.9861C110.848 34.6079 110.641 34.6079 110.641 34.6079C110.641 34.6079 110.02 35.0224 109.71 34.8151C109.4 34.6079 108.572 33.8825 108.572 33.8825L107.641 35.7477C107.641 35.7477 105.262 34.297 102.986 32.4318C101.227 30.9811 98.8477 29.116 98.8477 29.116L101.02 28.3906Z" fill="url(#paint15_linear_1449_6015)"/>
<path d="M110.021 29.0127H112.297C112.297 29.0127 113.331 30.0489 113.434 31.396C113.538 32.8467 112.71 34.6082 112.607 34.5046C112.607 34.401 111.676 33.1575 111.572 33.3648C111.469 33.572 111.469 34.1937 111.469 34.1937C111.469 34.1937 110.021 30.8779 110.021 30.1525C109.917 29.5308 110.021 29.0127 110.021 29.0127Z" fill="url(#paint16_linear_1449_6015)"/>
<path d="M109.917 34.919L112.296 37.4059L111.986 33.8828C112.089 33.8828 110.745 34.6082 109.917 34.919Z" fill="#FF3C00"/>
<path d="M95.2266 68.4929L98.1232 63.8299C98.1232 63.8299 104.951 56.8873 108.572 49.8411C112.192 42.7949 111.572 36.0596 111.572 36.0596L112.399 37.0958C112.399 37.0958 113.434 48.0796 108.986 56.6801C104.537 65.177 100.709 67.353 95.2266 68.4929Z" fill="#FF3C00"/>
<path d="M111.262 25.2821L108.883 23.5205C108.883 23.5205 108.676 26.7327 108.676 28.3907C108.676 30.0486 110.228 31.3957 110.228 31.3957C110.228 31.3957 109.917 30.6703 110.021 29.5305C110.124 28.2871 111.262 25.2821 111.262 25.2821Z" fill="#EF8B59"/>
<path d="M108.675 17.9251C108.675 17.9251 107.02 16.6816 106.089 15.3346C105.158 13.9875 105.055 12.8477 105.055 12.8477C105.055 12.8477 103.606 13.0549 103.813 14.7128C104.02 16.4744 104.951 19.0649 105.055 20.5156C105.158 21.8627 104.951 22.8989 104.951 22.8989C104.951 22.8989 108.779 20.9301 108.675 17.9251Z" fill="#232440"/>
<path d="M113.331 12.1229C113.227 12.1229 113.124 12.1229 113.124 12.0193C113.124 11.9156 113.124 11.812 113.227 11.812C113.331 11.812 117.572 10.5686 119.435 7.56357C119.848 6.94184 119.848 6.42374 119.641 6.00925C119.021 5.07667 116.331 5.18029 115.296 5.28391C115.193 5.28391 115.09 5.18029 115.09 5.07667C115.09 4.97305 115.193 4.86942 115.296 4.86942C115.503 4.86942 119.124 4.35132 119.952 5.69839C120.262 6.21649 120.159 6.7346 119.745 7.56357C117.883 10.8794 113.745 12.0193 113.331 12.1229Z" fill="#232440"/>
<path d="M112.4 12.2253C112.296 12.2253 112.296 12.2253 112.193 12.2253C112.089 12.1217 112.089 12.0181 112.193 12.0181C114.262 9.32393 115.814 6.83703 115.503 6.52617C115.193 6.11169 113.848 6.52617 113.02 6.83703C112.917 6.83703 112.814 6.83703 112.814 6.73341C112.814 6.62979 112.814 6.52617 112.917 6.52617C113.124 6.42255 115.193 5.48996 115.814 6.31893C116.331 7.04428 113.331 10.9819 112.4 12.2253Z" fill="#232440"/>
<path d="M110.124 14.6091C110.02 14.6091 109.917 14.5055 109.917 14.4019C109.917 14.4019 110.02 13.2621 108.676 11.6041C107.331 9.94621 105.365 10.1534 105.365 10.1534C105.262 10.1534 105.158 10.0498 105.158 9.94621C105.158 9.84259 105.262 9.73896 105.365 9.73896C105.469 9.73896 107.538 9.53172 108.986 11.2933C110.434 13.0548 110.331 14.2983 110.331 14.4019C110.331 14.6091 110.227 14.6091 110.124 14.6091Z" fill="#232440"/>
<path d="M119.642 11.1909C117.47 12.3307 115.401 12.538 115.194 12.6416C115.09 12.6416 114.987 12.538 114.987 12.4344C114.987 12.3307 115.09 12.2271 115.194 12.2271C115.194 12.2271 120.056 11.6054 122.228 8.60039C122.746 7.87505 122.953 7.25332 122.849 6.83884C122.539 6.32073 121.608 6.32073 121.608 6.32073C121.504 6.32073 121.401 6.21711 121.401 6.11349C121.401 6.00987 121.504 5.90625 121.608 5.90625C121.608 5.90625 122.849 5.90625 123.159 6.6316C123.366 7.1497 123.263 7.87504 122.539 8.70401C121.711 9.94746 120.677 10.6728 119.642 11.1909Z" fill="#232440"/>
<path d="M149.989 9.75542L119.459 15.3447L119.924 17.893L150.454 12.3037L149.989 9.75542Z" fill="#FF3C00"/>
<path d="M161.538 11.9142L130.917 16.7844L130.089 12.4323L160.504 6.00781L161.538 11.9142Z" fill="#FF3C00"/>
<path d="M173.642 11.4998L147.159 15.1265L145.917 8.08032L171.884 2.07031L173.642 11.4998Z" fill="#FF3C00"/>
<path d="M171.056 2.1748L147.159 15.1274L172.712 11.6043L171.056 2.1748Z" fill="#DD2400"/>
<path d="M146.021 9.11719L147.055 14.1946L130.917 16.7851L146.021 9.11719Z" fill="#DD2400"/>
<path d="M130.296 13.4697L130.71 15.853L120.882 17.6146L130.296 13.4697Z" fill="#DD2400"/>
<path d="M173.517 -0.0526138L170.769 0.450195L173.244 14.0069L175.992 13.5041L173.517 -0.0526138Z" fill="#FF3C00"/>
<path d="M120.301 14.462L118.265 14.834L118.991 18.8092L121.026 18.4372L120.301 14.462Z" fill="#FF3C00"/>
<path d="M138.365 10.879C138.365 10.879 139.296 12.8478 139.71 13.0551C140.124 13.1587 140.021 12.3297 140.021 12.3297C140.021 12.3297 140.434 13.3659 140.848 13.1587C141.262 13.0551 141.159 12.2261 141.159 12.2261C141.159 12.2261 141.469 13.0551 141.779 12.7442C142.09 12.537 142.09 11.708 142.09 11.708C142.09 11.708 142.193 12.4334 142.607 12.4334C143.021 12.4334 142.917 11.3971 142.607 10.4646C142.297 9.53198 141.986 9.22111 141.779 9.22111C141.572 9.22111 141.469 9.42836 141.469 9.42836C141.469 9.42836 140.952 9.01387 140.745 9.22111C140.434 9.42835 140.434 9.6356 140.434 9.6356C140.434 9.6356 139.71 9.11749 139.4 9.32473C139.09 9.53198 139.09 9.84284 139.09 9.84284C139.09 9.84284 138.469 9.42836 138.262 9.6356C138.055 9.94646 137.848 10.6718 137.848 10.6718L138.365 10.879Z" fill="#FFB68E"/>
<path d="M139.4 18.651C139.4 18.651 136.504 15.8532 136.4 15.1279C136.297 14.4025 137.435 12.2265 137.745 11.9156C138.055 11.6048 138.055 14.4025 138.055 15.0242C138.055 15.646 139.193 15.3351 140.435 15.3351C142.09 15.2315 142.814 15.1279 143.021 15.3351C143.228 15.5423 142.297 17.822 142.297 17.822L139.4 18.651Z" fill="#FFB68E"/>
<path d="M142.193 17.7177C142.193 17.7177 141.159 17.8213 140.021 17.3032C138.779 16.7851 138.262 15.3344 138.262 15.3344C138.262 15.3344 139.917 14.7127 141.262 14.8163C142.607 14.8163 143.124 14.92 143.124 14.92C143.124 14.92 143.124 16.4743 142.193 17.7177Z" fill="#EF8B59"/>
<path d="M120.883 17.6146L130.297 13.4697L120.883 17.6146Z" fill="#DD2400"/>
<mask id="mask3_1449_6015" style="mask-type:alpha" maskUnits="userSpaceOnUse" x="147" y="3" width="21" height="5">
<path d="M147.16 7.87485C147.16 7.87485 152.332 7.66761 156.988 7.46037C161.643 7.35674 167.126 3.21191 167.126 3.21191L147.16 7.87485Z" fill="url(#paint17_linear_1449_6015)"/>
</mask>
<g mask="url(#mask3_1449_6015)">
<path opacity="0.66" d="M147.159 7.87387C147.159 7.87387 152.332 7.66663 156.987 7.45939C161.642 7.35577 167.125 3.21094 167.125 3.21094L147.159 7.87387Z" fill="url(#paint18_linear_1449_6015)"/>
</g>
<mask id="mask4_1449_6015" style="mask-type:alpha" maskUnits="userSpaceOnUse" x="170" y="-1" width="6" height="13">
<path d="M170.746 0.516256C170.746 0.516256 172.401 5.49005 173.436 7.66609C174.367 9.84212 175.608 11.2928 175.608 11.2928L173.539 -0.105469L170.746 0.516256Z" fill="url(#paint19_linear_1449_6015)"/>
</mask>
<g mask="url(#mask4_1449_6015)">
<path opacity="0.66" d="M170.746 0.517232C170.746 0.517232 172.401 5.49103 173.435 7.66707C174.366 9.8431 175.608 11.2938 175.608 11.2938L173.539 -0.104492L170.746 0.517232Z" fill="url(#paint20_linear_1449_6015)"/>
</g>
<path d="M114.469 70.254C117.573 67.9743 147.677 61.5498 150.367 66.1091C153.056 70.6684 148.194 104.552 148.194 104.552L141.263 106.625C141.263 106.625 141.573 99.7859 141.366 92.0143C141.056 79.4762 141.159 77.8183 141.159 77.8183C139.194 76.7821 106.4 88.8021 106.4 88.8021C106.4 88.8021 110.952 72.8445 114.469 70.254Z" fill="#19437F"/>
<path d="M108.572 90.0464C107.641 90.2536 111.262 86.8341 110.951 82.5857C110.641 78.3372 111.158 75.5395 111.055 75.8503C110.951 76.1612 113.331 81.5495 113.951 81.0314C114.572 80.5133 120.055 76.0576 134.952 72.12C141.262 70.4621 142.193 71.7055 142.814 71.6019C143.435 71.4983 148.297 67.7679 147.469 68.9077C146.642 70.0476 143.228 74.6069 143.952 74.1924C144.676 73.8815 147.987 72.4309 146.642 73.9852C145.297 75.6431 142.4 78.959 143.331 78.5445C144.263 78.13 146.332 77.6119 145.504 78.7517C144.676 79.8916 144.676 92.3261 145.504 95.5383C146.228 98.8542 148.401 104.346 148.401 104.346L141.469 106.418C141.469 106.418 141.573 78.3372 140.228 77.8191C138.055 77.0938 118.814 83.8291 116.227 85.1762C113.848 86.5233 112.503 89.1138 108.572 90.0464Z" fill="url(#paint21_linear_1449_6015)"/>
<path d="M91.1926 163.306C91.1926 163.306 90.1581 163.099 90.1581 161.648C90.1581 160.094 90.365 158.747 90.365 158.747L85.2959 159.783C85.2959 159.783 85.8132 166.933 87.7787 167.348C89.0201 167.555 89.8477 164.653 91.1926 163.306Z" fill="white"/>
<path d="M85.917 166.83C85.917 166.83 87.3653 168.799 88.8136 167.866C90.2619 166.934 101.021 159.991 100.504 159.784C100.09 159.473 99.7794 158.644 99.5725 158.851C99.2622 158.955 94.1931 161.753 92.5378 161.131C90.7792 160.509 90.6757 159.058 90.6757 159.058L88.2964 160.613C88.2964 160.613 89.7447 162.374 89.6412 163.411C89.6412 164.239 85.917 166.83 85.917 166.83Z" fill="#050023"/>
<path d="M148.918 109.319C148.918 109.319 147.884 109.215 147.781 107.765C147.677 106.21 147.781 104.863 147.781 104.863L142.711 106.21C142.711 106.21 143.746 113.36 145.711 113.567C147.056 113.671 147.677 110.77 148.918 109.319Z" fill="white"/>
<path d="M143.849 113.05C143.849 113.05 145.401 114.915 146.849 113.879C148.298 112.947 158.539 105.279 158.022 105.071C157.505 104.864 157.298 104.035 156.987 104.139C156.677 104.346 151.815 107.351 150.056 106.833C148.298 106.315 148.091 104.864 148.091 104.864L145.815 106.626C145.815 106.626 147.366 108.284 147.366 109.32C147.47 110.252 143.849 113.05 143.849 113.05Z" fill="#050023"/>
<path d="M87.7781 86.7298C87.6747 86.7298 87.6747 86.7298 87.6747 86.7298C87.5712 86.7298 87.4678 86.6262 87.4678 86.5225C87.4678 86.4189 87.5712 86.3153 87.6747 86.3153C87.6747 86.3153 89.4333 86.4189 93.261 84.0356C95.8473 82.3777 98.537 79.1655 100.192 77.1967C101.123 76.0568 101.537 75.5387 101.847 75.4351C102.054 75.3315 102.365 75.3315 102.882 75.3315C104.227 75.2279 106.399 75.0206 107.641 73.9844C108.986 72.9482 110.434 72.1192 111.468 71.6011C111.779 71.3939 112.193 71.2903 112.399 71.083C113.434 70.4613 114.468 70.0468 114.468 70.0468C114.572 69.9432 114.675 70.0468 114.779 70.1504C114.882 70.2541 114.779 70.3577 114.675 70.4613C114.675 70.4613 113.641 70.9794 112.606 71.4975C112.296 71.6011 111.986 71.8084 111.675 72.0156C110.641 72.5337 109.296 73.2591 107.951 74.2953C106.606 75.4351 104.33 75.6424 102.985 75.746C102.572 75.746 102.261 75.8496 102.054 75.8496C101.847 75.9532 101.227 76.6786 100.606 77.5075C98.9508 79.4763 96.2611 82.7922 93.5714 84.4501C90.054 86.6262 88.2954 86.7298 87.7781 86.7298Z" fill="#232440"/>
<path d="M99.1581 77.1965C98.9512 77.1965 98.9512 76.9893 98.9512 76.8857C98.9512 76.7821 99.7788 74.1915 101.537 71.9119C103.606 69.2178 105.262 67.9743 105.365 67.8707C105.469 67.7671 105.572 67.7671 105.675 67.8707C105.779 67.9743 105.779 68.0779 105.675 68.1815C105.675 68.1815 103.917 69.5286 101.951 72.1191C100.193 74.3988 99.4684 76.9893 99.4684 76.9893C99.365 77.0929 99.2615 77.1965 99.1581 77.1965Z" fill="#232440"/>
<path d="M104.848 75.3315C104.745 75.3315 104.641 75.2279 104.641 75.1243C104.641 75.1243 104.538 74.1917 105.055 73.0519C105.469 71.912 107.124 69.3215 107.228 69.2179C107.331 69.1143 107.434 69.1143 107.538 69.1143C107.641 69.2179 107.641 69.3215 107.641 69.4251C107.641 69.4251 105.986 72.1193 105.572 73.2591C105.159 74.2953 105.159 75.2279 105.159 75.2279C105.159 75.2279 105.055 75.3315 104.848 75.3315C104.952 75.3315 104.848 75.3315 104.848 75.3315Z" fill="#232440"/>
<path d="M91.9169 90.6671L91.71 88.3874L91.9169 88.2838C91.9169 88.2838 95.9514 86.7295 97.917 85.6933C99.7791 84.6571 100.193 84.2426 100.193 84.2426L100.503 83.8281L100.917 86.2114L100.814 86.315C100.814 86.315 98.4343 87.8693 96.6756 88.9055C94.9169 89.8381 92.3307 90.5635 92.2272 90.6671H91.9169ZM92.2272 88.5947L92.3307 90.0454C93.0548 89.8381 95.1238 89.2164 96.4687 88.3874C97.917 87.5585 99.8826 86.315 100.4 85.9005L100.193 84.7607C99.8826 84.968 99.2619 85.3824 98.1239 86.0042C96.2618 87.0404 92.9514 88.2838 92.2272 88.5947Z" fill="#232440"/>
<path d="M98.9508 129.007C98.3301 129.007 97.5025 128.8 96.2611 128.178C93.5714 126.831 92.8472 126.105 92.8472 126.002L92.7438 125.898V125.795C92.7438 125.795 92.7438 123.204 92.5369 120.717C92.4334 118.23 90.5713 97.4025 90.054 92.8432C89.6402 88.3875 89.9506 86.0042 89.9506 85.9006C89.9506 85.797 90.054 85.6934 90.1575 85.6934C90.2609 85.6934 90.3644 85.797 90.3644 85.9006C90.3644 85.9006 90.054 88.3875 90.4678 92.7396C90.9851 97.2989 92.8472 118.127 92.9507 120.614C93.0541 122.893 93.1576 125.173 93.1576 125.691C93.3645 125.898 94.2955 126.624 96.468 127.66C98.9508 128.903 99.7784 128.178 99.7784 128.178C99.8819 128.074 99.9853 128.074 100.089 128.178C100.192 128.281 100.192 128.385 100.089 128.489C99.9853 128.696 99.675 129.007 98.9508 129.007Z" fill="#232440"/>
<path d="M99.6752 124.965C99.5718 124.965 99.5718 124.965 99.6752 124.965C98.02 124.447 94.1923 123.1 94.0889 122.375C94.0889 122.271 94.0889 122.168 94.1923 122.064C94.6061 121.546 99.7787 120.821 102.055 120.613C102.158 120.613 102.261 120.717 102.261 120.821C102.261 120.924 102.158 121.028 102.055 121.028C98.8476 121.442 95.2268 121.96 94.6061 122.271C95.1234 122.686 97.6062 123.722 99.7787 124.447C99.8821 124.447 99.9856 124.654 99.8821 124.758C99.7787 124.862 99.7787 124.965 99.6752 124.965Z" fill="#232440"/>
<path d="M100.787 118.378L95.7046 120.142L95.8404 120.533L100.923 118.769L100.787 118.378Z" fill="#232440"/>
<path d="M84.9852 159.783C84.8818 159.783 84.8818 159.783 84.9852 159.783C84.7783 159.783 84.7783 159.576 84.7783 159.472L85.8128 155.845L92.8475 155.327C92.9509 155.327 93.0544 155.431 93.0544 155.534C93.0544 155.638 92.9509 155.742 92.8475 155.742L86.1232 156.156L85.1921 159.472C85.0887 159.679 85.0887 159.783 84.9852 159.783Z" fill="#232440"/>
<path d="M108.572 90.2531C108.469 90.2531 108.572 90.2531 108.572 90.2531C108.365 90.1495 108.365 90.0459 108.365 89.9422C108.365 89.9422 109.296 87.8698 110.331 85.4865C111.055 83.725 110.848 82.4815 110.745 81.6526C110.745 81.3417 110.641 81.1345 110.641 80.8236C110.641 79.7874 110.745 75.9534 110.745 75.8498C110.745 75.7462 110.848 75.6426 110.951 75.6426C111.055 75.6426 111.158 75.7462 111.158 75.8498C111.158 75.8498 110.951 79.891 111.055 80.8236C111.055 81.0309 111.158 81.2381 111.158 81.549C111.365 82.4815 111.572 83.8286 110.745 85.6938C109.71 88.0771 108.779 90.1495 108.779 90.1495C108.779 90.2531 108.676 90.2531 108.572 90.2531Z" fill="#232440"/>
<path d="M108.572 90.2523C108.469 90.2523 108.365 90.1487 108.365 90.0451C108.365 89.9414 108.469 89.8378 108.572 89.7342C108.572 89.7342 111.883 89.2161 113.848 86.7292C115.296 84.9676 117.055 84.4495 120.676 83.3097C122.538 82.688 124.917 81.9626 128.021 80.8228C133.918 78.6468 136.607 78.1287 138.263 77.8178C138.987 77.7142 139.504 77.6106 140.021 77.4033C141.263 76.9888 143.745 72.4295 144.676 70.7716C144.78 70.668 144.883 70.668 144.987 70.668C145.09 70.7716 145.09 70.8752 145.09 70.9788C144.78 71.6006 141.78 77.1961 140.228 77.8178C139.711 78.025 139.09 78.1287 138.366 78.2323C136.711 78.5432 134.021 78.9576 128.124 81.2373C125.021 82.3771 122.641 83.1025 120.779 83.7242C117.262 84.864 115.503 85.3821 114.158 87.0401C112.089 89.7342 108.779 90.2523 108.572 90.2523Z" fill="#232440"/>
<path d="M142.09 79.3729C141.573 79.3729 141.573 79.2692 141.573 79.1656C141.366 78.7511 142.918 76.7823 146.228 73.3629C146.332 73.2593 146.435 73.2593 146.539 73.3629C146.642 73.4665 146.642 73.5701 146.539 73.6737C144.47 75.8498 142.297 78.3366 142.09 78.9584C142.607 79.062 144.883 78.4403 146.849 77.7149C146.952 77.7149 147.056 77.7149 147.159 77.8185C147.159 77.9222 147.159 78.0258 147.056 78.1294C143.952 79.062 142.711 79.3729 142.09 79.3729Z" fill="#232440"/>
<path d="M140.952 106.936L141.262 102.584L143.849 101.858L148.918 100.926L148.401 104.76H148.297C148.297 104.76 147.159 105.071 146.228 105.381C145.297 105.692 141.573 106.729 141.366 106.832L140.952 106.936ZM141.676 102.895L141.469 106.314C142.4 106.003 145.194 105.278 146.021 104.967C146.745 104.656 147.676 104.449 147.987 104.345L148.401 101.444L143.952 102.273L141.676 102.895Z" fill="#232440"/>
<path d="M120.158 67.9753H119.745C119.745 67.8716 120.365 59.4784 120.883 55.6444C120.986 54.8154 120.986 54.8154 121.193 54.8154C121.296 54.8154 121.296 54.8154 121.4 55.1263C121.4 55.1263 121.4 55.2299 121.4 55.3335C121.4 56.0589 121.193 57.6132 120.883 61.5508C120.469 64.763 120.158 67.9753 120.158 67.9753Z" fill="#232440"/>
<path d="M112.193 87.0416C112.09 87.0416 112.193 87.0416 112.193 87.0416C111.986 86.9379 111.883 86.8343 111.986 86.7307C111.986 86.7307 113.435 83.6221 114.262 81.3424C114.986 79.1664 114.883 77.094 114.883 77.094C114.883 76.9903 114.986 76.8867 115.09 76.8867C115.193 76.8867 115.297 76.9903 115.297 77.094C115.297 77.1976 115.504 79.27 114.676 81.5497C113.848 83.8293 112.4 86.9379 112.4 86.9379C112.4 86.9379 112.297 87.0416 112.193 87.0416Z" fill="#232440"/>
<path d="M116.331 18.3407C116.227 18.3407 116.124 18.3407 116.02 18.3407H115.813L115.71 15.7502L115.917 15.6465C116.227 15.5429 116.641 15.4393 116.951 15.5429C117.055 15.5429 117.055 15.6465 117.158 15.7502C117.262 15.9574 117.158 17.9262 116.848 18.1334C116.641 18.2371 116.538 18.3407 116.331 18.3407ZM116.331 17.8226C116.331 17.8226 116.434 17.8226 116.331 17.8226C116.538 17.5117 116.641 16.3719 116.641 16.061C116.538 16.061 116.331 16.061 116.227 16.1646L116.331 17.8226Z" fill="#232440"/>
<path d="M111.467 18.5467C111.157 18.5467 111.054 18.443 111.054 18.443L110.95 18.3394V18.2358C110.95 17.9249 111.157 16.5779 111.157 16.4742V16.267H111.364C115.295 15.6453 115.295 15.6453 115.399 15.9561C115.502 16.1634 115.192 17.1996 114.881 17.7177C114.778 17.9249 114.571 18.1322 114.468 18.1322C112.605 18.443 111.881 18.5467 111.467 18.5467ZM111.364 18.1322C111.778 18.1322 112.916 17.9249 114.261 17.7177C114.468 17.7177 114.778 16.7851 114.778 16.267C114.261 16.267 112.812 16.4742 111.467 16.7851C111.467 17.1996 111.467 17.8213 111.364 18.1322Z" fill="#232440"/>
<path d="M116.02 17.4075C115.916 17.4075 116.02 17.4075 116.02 17.4075L114.882 17.3039C114.778 17.3039 114.675 17.2004 114.675 17.0968C114.675 16.9932 114.778 16.8896 114.882 16.8896L116.02 16.9932C116.123 16.9932 116.227 17.0968 116.227 17.2004C116.227 17.3039 116.123 17.4075 116.02 17.4075Z" fill="#232440"/>
<path d="M111.365 16.5783C111.365 16.5783 109.503 13.8841 108.985 13.7805C108.365 13.6769 107.434 14.6095 107.434 14.6095L107.64 14.8167C107.64 14.8167 108.468 14.0914 108.778 14.5058C109.089 14.9203 111.054 18.5471 111.054 18.5471L111.365 16.5783Z" fill="#232440"/>
</g>
<defs>
<linearGradient id="paint0_linear_1449_6015" x1="99.3245" y1="206.841" x2="23.4612" y2="293.257" gradientUnits="userSpaceOnUse">
<stop stop-color="white"/>
<stop offset="0.0987288" stop-color="#FCF0CB"/>
<stop offset="0.2679" stop-color="#FFE18A"/>
<stop offset="0.3878" stop-color="#FBD461"/>
<stop offset="0.4462" stop-color="#FFD764"/>
<stop offset="0.5641" stop-color="#FEBF74"/>
<stop offset="0.630208" stop-color="#F5BF7F"/>
</linearGradient>
<linearGradient id="paint1_linear_1449_6015" x1="192.842" y1="95.3681" x2="172.218" y2="78.0795" gradientUnits="userSpaceOnUse">
<stop offset="0.0892857" stop-color="#665AF0"/>
<stop offset="0.8737" stop-color="#7D73F2"/>
</linearGradient>
<linearGradient id="paint2_linear_1449_6015" x1="215.628" y1="45.934" x2="212.634" y2="31.969" gradientUnits="userSpaceOnUse">
<stop offset="0.0615079" stop-color="white"/>
<stop offset="0.4255" stop-color="#A3A3A3"/>
<stop offset="1"/>
</linearGradient>
<linearGradient id="paint3_linear_1449_6015" x1="215.628" y1="45.934" x2="212.634" y2="31.969" gradientUnits="userSpaceOnUse">
<stop offset="0.0615079" stop-color="white"/>
<stop offset="0.4255" stop-color="white"/>
<stop offset="1" stop-color="white"/>
</linearGradient>
<linearGradient id="paint4_linear_1449_6015" x1="173.018" y1="80.7214" x2="169.061" y2="62.2667" gradientUnits="userSpaceOnUse">
<stop offset="0.0615079" stop-color="white"/>
<stop offset="0.4255" stop-color="#A3A3A3"/>
<stop offset="1"/>
</linearGradient>
<linearGradient id="paint5_linear_1449_6015" x1="193.552" y1="100.398" x2="176.92" y2="99.1089" gradientUnits="userSpaceOnUse">
<stop offset="0.1687" stop-color="#E0F3F4"/>
<stop offset="0.7907" stop-color="#4D98A0"/>
</linearGradient>
<linearGradient id="paint6_linear_1449_6015" x1="194.087" y1="76.7749" x2="187.775" y2="87.6159" gradientUnits="userSpaceOnUse">
<stop offset="0.0615079" stop-color="white"/>
<stop offset="1"/>
</linearGradient>
<linearGradient id="paint7_linear_1449_6015" x1="194.087" y1="76.7729" x2="187.775" y2="87.6139" gradientUnits="userSpaceOnUse">
<stop offset="0.0615079" stop-color="white"/>
<stop offset="1" stop-color="white"/>
</linearGradient>
<linearGradient id="paint8_linear_1449_6015" x1="81.753" y1="114.88" x2="119.337" y2="112.338" gradientUnits="userSpaceOnUse">
<stop offset="0.121" stop-color="#0A2D51"/>
<stop offset="0.8552" stop-color="#19437F"/>
<stop offset="1" stop-color="#0A2D51"/>
</linearGradient>
<linearGradient id="paint9_linear_1449_6015" x1="81.8333" y1="117.822" x2="110.54" y2="115.881" gradientUnits="userSpaceOnUse">
<stop offset="0.121" stop-color="#0A2D51"/>
<stop offset="1" stop-color="#0A2D51"/>
</linearGradient>
<linearGradient id="paint10_linear_1449_6015" x1="85.2157" y1="58.7916" x2="122.187" y2="56.2907" gradientUnits="userSpaceOnUse">
<stop offset="0.1072" stop-color="#FFFFA4"/>
<stop offset="0.4147" stop-color="#FFD234"/>
<stop offset="0.7979" stop-color="#FF9200"/>
</linearGradient>
<linearGradient id="paint11_linear_1449_6015" x1="88.4445" y1="60.6026" x2="125.545" y2="25.7904" gradientUnits="userSpaceOnUse">
<stop offset="0.121" stop-color="#0A2D51"/>
<stop offset="0.4862" stop-color="#19437F"/>
</linearGradient>
<linearGradient id="paint12_linear_1449_6015" x1="116.499" y1="49.4239" x2="123.888" y2="48.9241" gradientUnits="userSpaceOnUse">
<stop offset="0.121" stop-color="#0A2D51"/>
<stop offset="1" stop-color="#0A2D51"/>
</linearGradient>
<linearGradient id="paint13_linear_1449_6015" x1="118.267" y1="31.3305" x2="145.743" y2="29.4719" gradientUnits="userSpaceOnUse">
<stop offset="0.121" stop-color="#0A2D51"/>
<stop offset="1" stop-color="#0A2D51"/>
</linearGradient>
<linearGradient id="paint14_linear_1449_6015" x1="61.6269" y1="54.512" x2="102.432" y2="29.1377" gradientUnits="userSpaceOnUse">
<stop offset="0.121" stop-color="#0A2D51"/>
<stop offset="0.4862" stop-color="#19437F"/>
</linearGradient>
<linearGradient id="paint15_linear_1449_6015" x1="107.526" y1="28.7789" x2="100.055" y2="37.3487" gradientUnits="userSpaceOnUse">
<stop offset="0.1072" stop-color="#FFFFA4"/>
<stop offset="0.4147" stop-color="#FFD234"/>
<stop offset="0.7979" stop-color="#FF9200"/>
</linearGradient>
<linearGradient id="paint16_linear_1449_6015" x1="113.147" y1="28.8488" x2="108.764" y2="35.7182" gradientUnits="userSpaceOnUse">
<stop offset="0.1072" stop-color="#FFFFA4"/>
<stop offset="0.4147" stop-color="#FFD234"/>
<stop offset="0.7979" stop-color="#FF9200"/>
</linearGradient>
<linearGradient id="paint17_linear_1449_6015" x1="147.022" y1="6.34656" x2="167.251" y2="4.97822" gradientUnits="userSpaceOnUse">
<stop offset="0.0615079" stop-color="white"/>
<stop offset="0.4255" stop-color="#A3A3A3"/>
<stop offset="1"/>
</linearGradient>
<linearGradient id="paint18_linear_1449_6015" x1="147.022" y1="6.34559" x2="167.25" y2="4.97725" gradientUnits="userSpaceOnUse">
<stop offset="0.0615079" stop-color="white"/>
<stop offset="0.4255" stop-color="white"/>
<stop offset="1" stop-color="white"/>
</linearGradient>
<linearGradient id="paint19_linear_1449_6015" x1="171.101" y1="5.90253" x2="175.148" y2="5.62875" gradientUnits="userSpaceOnUse">
<stop offset="0.0615079" stop-color="white"/>
<stop offset="0.4255" stop-color="#A3A3A3"/>
<stop offset="1"/>
</linearGradient>
<linearGradient id="paint20_linear_1449_6015" x1="171.1" y1="5.9035" x2="175.148" y2="5.62973" gradientUnits="userSpaceOnUse">
<stop offset="0.0615079" stop-color="white"/>
<stop offset="0.4255" stop-color="white"/>
<stop offset="1" stop-color="white"/>
</linearGradient>
<linearGradient id="paint21_linear_1449_6015" x1="108.417" y1="90.0636" x2="148.714" y2="87.3377" gradientUnits="userSpaceOnUse">
<stop offset="0.121" stop-color="#0A2D51"/>
<stop offset="1" stop-color="#0A2D51"/>
</linearGradient>
<clipPath id="clip0_1449_6015">
<rect width="219.316" height="220.609" fill="white" transform="translate(24.6729)"/>
</clipPath>
</defs>
</svg>
