<svg width="24" height="24" viewBox="0 0 24 24" fill="none" xmlns="http://www.w3.org/2000/svg">
<g clip-path="url(#clip0_2514_626)">
<path d="M0 19.9999C0 20.9429 0.280952 21.8473 0.781049 22.514C1.28115 23.1808 1.95942 23.5554 2.66667 23.5554H21.3333C22.0406 23.5554 22.7189 23.1808 23.219 22.514C23.719 21.8473 24 20.9429 24 19.9999V18.9332H0V19.9999ZM10.3507 14.2221H10.3333L24 14.311V9.68878H10.3507V14.2221ZM21.3333 0.444336H10.3507V5.06656H24V3.99989C24 3.0569 23.719 2.15253 23.219 1.48573C22.7189 0.818938 22.0406 0.444336 21.3333 0.444336Z" fill="#006A4E"/>
<path d="M10.3507 9.62907V9.68863H24V5.06641H10.3507V9.62907ZM0.0173333 14.222L0 18.9331H24V14.3109L10.3333 14.222H0.0173333Z" fill="#FFCE00"/>
<path d="M2.66691 0.444336C1.25291 0.444336 0.107578 1.91634 0.0175781 3.77145V14.2221H10.3509V0.444336H2.66691Z" fill="#D21034"/>
<path d="M8.22673 6.14511H5.92407L5.9154 6.10955L5.18473 3.11133L5.17007 3.17177L4.4454 6.14511H2.05273L3.95807 7.99133L3.98807 8.02066L3.27673 10.9407L3.24873 11.0553L5.18473 9.17977L7.12007 11.0553L6.38073 8.02066L8.31673 6.14511H8.22673Z" fill="white"/>
</g>
<defs>
<clipPath id="clip0_2514_626">
<rect width="24" height="24" fill="white"/>
</clipPath>
</defs>
</svg>
