<?xml version="1.0" standalone="no"?>
<!DOCTYPE svg PUBLIC "-//W3C//DTD SVG 20010904//EN"
 "http://www.w3.org/TR/2001/REC-SVG-20010904/DTD/svg10.dtd">
<svg version="1.0" xmlns="http://www.w3.org/2000/svg"
 width="142.000000pt" height="30.000000pt" viewBox="0 0 142.000000 30.000000"
 preserveAspectRatio="xMidYMid meet">
<metadata>
Created by potrace 1.16, written by Peter Selinger 2001-2019
</metadata>
<g transform="translate(0.000000,30.000000) scale(0.100000,-0.100000)"
fill="#000000" stroke="none">
<path d="M2 153 l3 -118 115 0 115 0 0 115 0 115 -118 3 -118 3 3 -118z m157
58 c13 -13 18 -34 19 -80 l1 -61 -60 0 -59 0 0 62 c0 43 5 67 17 80 21 23 58
23 82 -1z"/>
<path d="M280 170 c0 -58 3 -72 22 -90 37 -34 100 -22 118 23 8 20 9 18 9 -10
1 -26 5 -33 21 -33 16 0 20 7 20 34 0 50 9 66 36 66 22 0 24 -4 24 -50 l0 -50
54 0 c47 0 57 4 75 26 12 15 21 22 21 16 0 -6 7 -18 16 -26 24 -24 137 -20
160 5 17 19 18 19 44 -6 24 -23 28 -24 40 -10 11 13 9 20 -10 40 l-23 25 22
24 c23 24 21 46 -3 46 -7 0 -21 -9 -31 -20 -18 -20 -19 -20 -39 -1 -28 25
-136 29 -160 6 -9 -9 -16 -20 -16 -25 0 -5 -11 2 -25 15 -30 31 -75 34 -75 6
0 -13 8 -21 23 -23 16 -2 22 -10 22 -28 0 -20 -6 -26 -27 -28 l-28 -3 0 70 c0
58 -3 71 -16 71 -9 0 -18 -9 -21 -20 -4 -14 -14 -20 -32 -20 -30 0 -56 -16
-64 -40 -3 -8 -6 6 -6 33 -1 40 -4 47 -21 47 -17 0 -20 -7 -20 -53 0 -64 -17
-93 -48 -83 -20 7 -22 14 -22 72 0 57 -2 64 -20 64 -18 0 -20 -7 -20 -70z"/>
<path d="M1000 140 c0 -83 1 -90 20 -90 16 0 20 7 20 35 0 33 2 35 35 35 36 0
55 20 55 59 0 34 -27 51 -81 51 l-49 0 0 -90z"/>
<path d="M1252 174 c-16 -11 -22 -25 -22 -54 0 -29 6 -43 22 -54 49 -35 111
-4 111 54 0 58 -62 89 -111 54z"/>
</g>
</svg>
