<svg width="227" height="157" viewBox="0 0 227 157" fill="none" xmlns="http://www.w3.org/2000/svg">
<path d="M227 152.664C227 152.734 176.181 152.794 113.5 152.794C50.8189 152.794 0 152.734 0 152.664C0 152.593 50.8088 152.533 113.5 152.533C176.191 152.533 227 152.593 227 152.664Z" fill="#263238"/>
<path d="M156.007 46.5409L153.999 46.1241C152.206 45.5867 151.191 45.3557 150.774 44.7681C150.222 43.9796 151.277 43.5276 151.277 43.5276C151.277 43.5276 150.041 42.8095 150.327 42.021C150.398 41.8646 150.516 41.7346 150.665 41.6498C150.814 41.5649 150.986 41.5296 151.156 41.5489C151.156 41.5489 150.081 40.8609 149.946 40.3285C149.76 39.6054 150.654 39.4145 150.654 39.4145C149.258 38.1188 149.594 37.1746 149.981 37.1546C150.368 37.1345 151.487 37.943 151.487 37.943C152.492 38.4452 155.164 39.8866 154.415 38.0987C153.667 36.3108 153.762 34.6586 154.099 34.2267C154.188 34.1346 154.303 34.0729 154.429 34.0505C154.555 34.028 154.685 34.0459 154.801 34.1015C154.916 34.1572 155.01 34.2478 155.071 34.3604C155.132 34.4731 155.155 34.602 155.139 34.7289C155.183 35.3818 155.317 36.0255 155.535 36.6423C155.694 37.1434 155.937 37.6138 156.253 38.0334C156.625 38.5356 156.957 38.9223 157.258 39.2538L158.709 41.333L156.007 46.5409Z" fill="#FFBE9D"/>
<path d="M148.274 150.655L150.002 147.009L156.852 150.203L154.381 155.561L153.944 155.391C152.005 154.612 144.141 151.308 143.056 150.333C141.846 149.249 148.274 150.655 148.274 150.655Z" fill="#1C1C1C"/>
<g opacity="0.3">
<path d="M151.92 154.346C152.292 153.816 152.846 153.442 153.477 153.296C154.097 153.142 154.752 153.23 155.31 153.542L154.416 155.455L151.92 154.346Z" fill="white"/>
</g>
<g opacity="0.3">
<path d="M145.085 150.067C145.085 150.067 142.775 149.706 142.87 150.163C142.965 150.62 150.79 154.256 154.381 155.562L154.441 155.401L145.281 151.233C145.281 151.233 145.477 150.288 145.085 150.067Z" fill="white"/>
</g>
<path d="M154.546 155.446L154.426 155.405L154.079 155.27L152.808 154.743C151.739 154.291 150.267 153.648 148.665 152.899C147.063 152.151 145.617 151.448 144.582 150.921L143.362 150.288L143.035 150.112L142.92 150.047C142.962 150.058 143.003 150.075 143.04 150.097L143.377 150.258L144.612 150.865C145.652 151.368 147.098 152.071 148.7 152.819C150.302 153.567 151.769 154.215 152.834 154.682L154.089 155.235L154.431 155.385L154.546 155.446Z" fill="#263238"/>
<path d="M145.235 151.338C145.273 151.107 145.287 150.873 145.275 150.64C145.234 150.407 145.166 150.18 145.074 149.962C145.235 150.149 145.336 150.38 145.365 150.625C145.393 150.871 145.348 151.119 145.235 151.338Z" fill="#263238"/>
<path d="M147.712 151.257C147.653 151.143 147.621 151.018 147.616 150.89C147.586 150.768 147.586 150.641 147.616 150.519C147.616 150.519 147.682 150.674 147.707 150.88C147.74 151.003 147.741 151.133 147.712 151.257Z" fill="#263238"/>
<path d="M148.425 151.223C148.4 151.223 148.325 151.107 148.254 150.947C148.184 150.786 148.149 150.65 148.174 150.64C148.199 150.63 148.275 150.751 148.34 150.911C148.395 151.006 148.424 151.113 148.425 151.223Z" fill="#263238"/>
<path d="M149.072 150.735C149.072 150.76 148.896 150.705 148.695 150.614C148.568 150.572 148.452 150.504 148.354 150.413C148.354 150.388 148.534 150.443 148.73 150.534C148.857 150.576 148.973 150.644 149.072 150.735Z" fill="#263238"/>
<path d="M149.409 150.338C149.253 150.361 149.094 150.337 148.952 150.268C148.803 150.226 148.67 150.14 148.57 150.021C148.714 150.062 148.854 150.115 148.987 150.182C149.132 150.222 149.273 150.274 149.409 150.338Z" fill="#263238"/>
<path d="M147.777 150.549C147.621 150.505 147.474 150.436 147.341 150.343C147.19 150.25 147.048 150.142 146.919 150.022C146.84 149.951 146.769 149.872 146.708 149.786C146.67 149.732 146.654 149.665 146.663 149.6C146.669 149.564 146.687 149.53 146.713 149.504C146.739 149.478 146.772 149.461 146.808 149.454C146.941 149.453 147.072 149.481 147.193 149.536C147.313 149.591 147.42 149.672 147.506 149.773C147.592 149.874 147.654 149.993 147.689 150.121C147.724 150.249 147.73 150.383 147.707 150.514C147.701 150.558 147.686 150.601 147.662 150.639C147.678 150.482 147.67 150.322 147.637 150.167C147.59 150.007 147.5 149.863 147.376 149.75C147.304 149.681 147.219 149.627 147.126 149.59C147.033 149.554 146.933 149.537 146.833 149.54C146.738 149.54 146.728 149.655 146.783 149.74C146.842 149.821 146.909 149.895 146.984 149.961C147.108 150.08 147.241 150.189 147.381 150.288C147.617 150.459 147.783 150.534 147.777 150.549Z" fill="#263238"/>
<path d="M147.652 150.519C147.643 150.401 147.677 150.283 147.747 150.187C147.814 150.08 147.905 149.989 148.013 149.921C148.082 149.875 148.161 149.846 148.243 149.837C148.325 149.828 148.409 149.84 148.485 149.871C148.525 149.902 148.551 149.947 148.558 149.996C148.566 150.046 148.554 150.096 148.525 150.137C148.483 150.203 148.427 150.258 148.36 150.298C148.257 150.369 148.146 150.427 148.028 150.469C147.923 150.516 147.807 150.537 147.692 150.529C147.692 150.529 147.817 150.489 148.003 150.408C148.112 150.361 148.215 150.3 148.31 150.228C148.415 150.162 148.536 150.017 148.435 149.946C148.335 149.876 148.164 149.946 148.058 149.997C147.957 150.053 147.868 150.13 147.797 150.223C147.743 150.318 147.694 150.417 147.652 150.519Z" fill="#263238"/>
<path d="M155.281 153.506C155.281 153.506 155.095 153.396 154.778 153.29C154.354 153.15 153.898 153.129 153.463 153.23C153.03 153.342 152.634 153.567 152.318 153.883C152.076 154.129 151.976 154.32 151.961 154.315C151.973 154.264 151.995 154.216 152.026 154.174C152.095 154.053 152.178 153.94 152.272 153.838C152.585 153.495 152.992 153.252 153.442 153.14C153.893 153.034 154.366 153.065 154.798 153.23C154.928 153.277 155.053 153.338 155.17 153.411C155.245 153.466 155.286 153.501 155.281 153.506Z" fill="#263238"/>
<path d="M155.899 150.328C155.731 150.817 155.534 151.295 155.306 151.759C155.106 152.239 154.877 152.707 154.623 153.161C154.795 152.671 154.995 152.192 155.221 151.724C155.42 151.246 155.647 150.78 155.899 150.328Z" fill="#263238"/>
<path d="M151.368 153.301C151.007 153.22 150.656 153.097 150.324 152.934C149.981 152.791 149.657 152.608 149.359 152.387C149.359 152.361 149.806 152.598 150.364 152.849C150.921 153.1 151.378 153.255 151.368 153.301Z" fill="#263238"/>
<path d="M152.734 153.904C152.734 153.904 152.654 153.98 152.559 154.06C152.463 154.14 152.398 154.221 152.378 154.211C152.358 154.201 152.378 154.085 152.498 153.99C152.619 153.894 152.734 153.879 152.734 153.904Z" fill="#263238"/>
<path d="M153.512 153.507C153.512 153.507 153.442 153.583 153.342 153.623C153.241 153.663 153.146 153.673 153.136 153.648C153.126 153.623 153.206 153.573 153.306 153.537C153.407 153.502 153.502 153.482 153.512 153.507Z" fill="#263238"/>
<path d="M154.371 153.557C154.371 153.557 154.266 153.532 154.145 153.522C154.025 153.512 153.935 153.522 153.925 153.522C153.914 153.522 154.015 153.432 154.156 153.447C154.296 153.462 154.387 153.537 154.371 153.557Z" fill="#263238"/>
<path d="M154.948 153.663C154.948 153.663 154.893 153.703 154.823 153.698C154.753 153.693 154.702 153.668 154.707 153.643C154.712 153.617 154.763 153.602 154.833 153.607C154.903 153.612 154.948 153.638 154.948 153.663Z" fill="#263238"/>
<path d="M206.054 152.648L204.346 148.992L211.171 145.768L213.728 151.086L213.316 151.317C211.483 152.321 203.925 156.264 202.483 156.48C200.876 156.706 206.054 152.648 206.054 152.648Z" fill="#1C1C1C"/>
<g opacity="0.3">
<path d="M211.226 152.191C211.05 151.568 211.115 150.901 211.406 150.323C211.686 149.751 212.17 149.305 212.762 149.072L213.671 150.976L211.226 152.191Z" fill="white"/>
</g>
<g opacity="0.3">
<path d="M203.573 154.733C203.573 154.733 201.821 156.284 202.233 156.5C202.644 156.716 210.434 152.985 213.728 151.071L213.643 150.926L204.603 155.325C204.603 155.325 203.96 154.562 203.573 154.733Z" fill="white"/>
</g>
<path d="M213.747 150.87L213.636 150.935L213.31 151.116L212.094 151.759C211.065 152.296 209.634 153.02 208.032 153.768C206.43 154.516 204.973 155.184 203.908 155.646L202.643 156.189L202.296 156.329L202.176 156.369L202.291 156.309L202.628 156.153L203.883 155.591C204.938 155.114 206.394 154.446 207.996 153.683C209.598 152.919 211.01 152.211 212.064 151.674L213.29 151.056L213.626 150.89C213.666 150.879 213.706 150.872 213.747 150.87Z" fill="#263238"/>
<path d="M204.648 155.431C204.5 155.246 204.331 155.077 204.146 154.929C203.941 154.813 203.723 154.721 203.498 154.652C203.746 154.649 203.989 154.719 204.196 154.854C204.404 154.989 204.566 155.183 204.663 155.411L204.648 155.431Z" fill="#263238"/>
<path d="M206.175 153.452C206.175 153.452 206.009 153.402 205.833 153.291C205.658 153.181 205.527 153.075 205.542 153.055C205.557 153.035 205.708 153.105 205.884 153.216C206.059 153.326 206.185 153.432 206.175 153.452Z" fill="#263238"/>
<path d="M206.586 152.894C206.586 152.919 206.436 152.894 206.27 152.849C206.104 152.804 205.974 152.739 205.979 152.713C206.087 152.704 206.195 152.721 206.295 152.764C206.471 152.799 206.591 152.869 206.586 152.894Z" fill="#263238"/>
<path d="M206.631 152.086C206.631 152.111 206.49 152.206 206.295 152.302C206.099 152.397 205.933 152.457 205.918 152.432C206.014 152.337 206.128 152.264 206.254 152.216C206.47 152.121 206.616 152.061 206.631 152.086Z" fill="#263238"/>
<path d="M206.53 151.573C206.53 151.573 206.415 151.754 206.189 151.88C206.06 151.967 205.908 152.016 205.752 152.02C206.014 151.875 206.273 151.726 206.53 151.573Z" fill="#263238"/>
<path d="M205.657 152.965C205.525 153.06 205.377 153.13 205.22 153.171C205.057 153.228 204.889 153.268 204.718 153.292C204.611 153.305 204.503 153.305 204.396 153.292C204.363 153.29 204.331 153.281 204.302 153.267C204.273 153.252 204.247 153.231 204.225 153.206C204.206 153.175 204.195 153.14 204.195 153.103C204.195 153.067 204.206 153.031 204.225 153C204.355 152.839 204.536 152.727 204.738 152.684C204.941 152.641 205.152 152.669 205.335 152.764C205.443 152.82 205.539 152.897 205.617 152.99C205.646 153.022 205.668 153.06 205.682 153.101C205.573 152.988 205.446 152.894 205.305 152.825C205.148 152.752 204.973 152.729 204.803 152.759C204.705 152.77 204.61 152.801 204.524 152.849C204.437 152.898 204.362 152.963 204.301 153.04C204.256 153.126 204.301 153.196 204.421 153.206C204.52 153.216 204.619 153.216 204.718 153.206C204.887 153.189 205.055 153.157 205.22 153.111C205.466 153.03 205.652 152.955 205.657 152.965Z" fill="#263238"/>
<path d="M205.556 153.041C205.556 153.041 205.43 152.97 205.36 152.759C205.319 152.638 205.307 152.509 205.325 152.383C205.332 152.3 205.36 152.221 205.405 152.152C205.451 152.082 205.513 152.025 205.586 151.986C205.635 151.975 205.686 151.984 205.729 152.01C205.772 152.036 205.804 152.078 205.817 152.127C205.834 152.203 205.834 152.282 205.817 152.358C205.805 152.481 205.776 152.603 205.731 152.719C205.661 152.92 205.576 153.026 205.566 153.015C205.556 153.005 205.616 152.895 205.671 152.699C205.704 152.586 205.724 152.47 205.731 152.353C205.731 152.227 205.706 152.041 205.591 152.076C205.475 152.112 205.415 152.282 205.39 152.398C205.364 152.512 205.364 152.63 205.39 152.744C205.433 152.849 205.489 152.949 205.556 153.041Z" fill="#263238"/>
<path d="M212.718 149.067C212.718 149.067 212.517 149.143 212.216 149.328C211.841 149.56 211.538 149.892 211.342 150.288C211.15 150.691 211.071 151.139 211.116 151.583C211.151 151.93 211.232 152.131 211.217 152.136C211.188 152.093 211.166 152.045 211.151 151.995C211.103 151.865 211.069 151.731 211.051 151.593C210.985 151.134 211.057 150.666 211.257 150.247C211.459 149.825 211.785 149.475 212.191 149.243C212.312 149.172 212.44 149.115 212.573 149.072C212.621 149.063 212.67 149.061 212.718 149.067Z" fill="#263238"/>
<path d="M210.664 146.566C210.93 147.01 211.172 147.467 211.387 147.937C211.629 148.397 211.844 148.869 212.03 149.354C211.763 148.909 211.522 148.45 211.307 147.978C211.062 147.522 210.847 147.05 210.664 146.566Z" fill="#263238"/>
<path d="M210.05 151.936C209.76 152.167 209.441 152.359 209.101 152.508C208.775 152.686 208.427 152.819 208.066 152.905C208.066 152.905 208.513 152.694 209.071 152.428C209.628 152.162 210.035 151.916 210.05 151.936Z" fill="#263238"/>
<path d="M211.387 151.292C211.387 151.292 211.387 151.408 211.387 151.528C211.387 151.649 211.412 151.754 211.387 151.764C211.362 151.774 211.297 151.674 211.297 151.533C211.297 151.392 211.362 151.292 211.387 151.292Z" fill="#263238"/>
<path d="M211.593 150.433C211.618 150.433 211.593 150.534 211.568 150.639C211.542 150.745 211.482 150.82 211.462 150.815C211.442 150.81 211.462 150.715 211.462 150.609C211.462 150.504 211.568 150.423 211.593 150.433Z" fill="#263238"/>
<path d="M212.176 149.786C212.176 149.811 212.091 149.856 212.011 149.937C211.93 150.017 211.88 150.107 211.855 150.102C211.83 150.097 211.855 149.972 211.945 149.871C212.036 149.771 212.176 149.786 212.176 149.786Z" fill="#263238"/>
<path d="M212.628 149.424C212.628 149.424 212.628 149.494 212.577 149.544C212.527 149.595 212.477 149.615 212.457 149.6C212.437 149.585 212.457 149.529 212.507 149.479C212.557 149.429 212.608 149.404 212.628 149.424Z" fill="#263238"/>
<path d="M214.034 147.566L202.985 152.704L183.118 117.333C180.531 108.002 178.035 75.1475 178.035 75.1475L192.408 76.2423C192.408 76.2423 194.623 99.8463 198.094 111.98L214.034 147.566Z" fill="#451482"/>
<path d="M201.217 149.243C201.217 149.243 201.357 149.138 201.634 148.992C201.91 148.846 202.317 148.64 202.819 148.394C203.823 147.892 205.224 147.234 206.776 146.511C208.328 145.788 209.734 145.15 210.759 144.703C211.261 144.477 211.693 144.296 211.979 144.201C212.125 144.126 212.281 144.072 212.441 144.04C212.315 144.143 212.175 144.228 212.024 144.291C211.743 144.437 211.341 144.643 210.839 144.889C209.835 145.391 208.434 146.049 206.887 146.772C205.34 147.495 203.929 148.128 202.899 148.58C202.397 148.806 201.97 148.987 201.679 149.082C201.533 149.157 201.378 149.211 201.217 149.243Z" fill="#455A64"/>
<path d="M198.938 61.9238C199.209 61.9238 202.147 70.6272 199.319 76.3976C199.033 76.9751 196.808 80.1541 196.808 80.1541C188.984 89.3848 181.059 107.274 178.849 111.989C174.329 121.637 157.575 153.372 157.575 153.372L146.828 147.22L162.542 106.817L176.805 70.356L198.938 61.9238Z" fill="#451482"/>
<path d="M179.563 99.2528C179.563 99.2528 178.804 102.924 178.413 102.713C177.293 102.105 169.594 99.2378 169.594 99.2378L171.673 96.9326L179.563 99.2528Z" fill="#455A64"/>
<path d="M177.291 102.106C177.291 102.106 175.85 108.027 173.997 107.705C172.144 107.384 168.271 105.435 168.271 105.435L170.607 99.5947L177.291 102.106Z" fill="#007408"/>
<path d="M178.411 102.713L169.818 99.2783L170.23 100.539L177.035 103.03L178.411 102.713Z" fill="#263238"/>
<path d="M193.328 84.7998C193.291 84.8797 193.244 84.9541 193.187 85.0208L192.745 85.6184C192.363 86.1206 191.821 86.9041 191.193 87.8733C189.933 89.8119 188.346 92.5841 186.724 95.7179C185.101 98.8517 183.71 101.744 182.731 103.824L181.551 106.3L181.224 106.967C181.19 107.048 181.146 107.123 181.094 107.193C181.11 107.108 181.137 107.026 181.174 106.947L181.46 106.259C181.711 105.662 182.088 104.803 182.56 103.748C183.514 101.639 184.86 98.7262 186.493 95.5974C187.852 92.9068 189.361 90.2946 191.012 87.7729C191.665 86.8137 192.228 86.0603 192.64 85.5581C192.83 85.3271 192.991 85.1413 193.142 84.9906C193.195 84.9194 193.258 84.8553 193.328 84.7998Z" fill="#455A64"/>
<path d="M147.647 145.336C147.677 145.276 150.213 146.481 153.312 148.033C156.41 149.585 158.891 150.901 158.836 150.966C158.781 151.031 156.27 149.821 153.171 148.269C150.072 146.717 147.617 145.401 147.647 145.336Z" fill="#455A64"/>
<path d="M160.417 41.1221C159.834 42.4375 159.173 43.7171 158.438 44.9539C157.78 46.2343 157.042 47.4721 156.229 48.6603C156.812 47.3437 157.473 46.0625 158.207 44.8234C158.87 43.5468 159.608 42.3108 160.417 41.1221Z" fill="#263238"/>
<path d="M180.722 25.8398C181.31 25.8398 182.008 30.1087 182.601 37.7774C183.274 46.4758 183.213 55.2544 180.808 60.7737C180.586 61.3631 180.25 61.9028 179.819 62.3621C179.388 62.8214 178.871 63.1913 178.297 63.4505C172.069 66.0219 154.889 47.6007 154.889 47.6007L159.117 40.183L171.216 49.9511C171.216 49.9511 172.421 40.0675 172.19 35.5125C172.004 32.0572 175.454 25.88 180.722 25.8398Z" fill="#455A64"/>
<path d="M186.076 25.9251C186.076 25.9251 196.582 27.4619 199.299 31.59C202.016 35.7182 200.64 72.1286 200.64 72.1286L173.631 73.7257C173.631 73.7257 175.81 27.3815 177.146 26.8542C180.501 25.5384 185.674 25.7945 186.076 25.9251Z" fill="#455A64"/>
<path d="M142.835 16.3379C142.756 15.2331 142.962 14.1265 143.433 13.1238C143.641 12.6948 143.751 12.2246 143.754 11.7477V10.5274H128.01C127.369 10.5274 126.755 10.7819 126.302 11.2349C125.849 11.6879 125.594 12.3023 125.594 12.943V28.6221H124.529C124.038 28.6174 123.553 28.5006 123.113 28.2806C122.126 27.8054 121.036 27.5861 119.942 27.6429C118.848 27.6997 117.786 28.0308 116.854 28.6057C115.922 29.1805 115.149 29.9807 114.607 30.9325C114.065 31.8843 113.771 32.9572 113.753 34.0523C113.734 35.1474 113.992 36.2296 114.501 37.1992C115.01 38.1688 115.755 38.9947 116.668 39.6008C117.58 40.2069 118.63 40.5738 119.721 40.6676C120.813 40.7615 121.91 40.5793 122.912 40.1378C123.327 39.949 123.777 39.8497 124.233 39.8465H125.614V55.1339C125.614 55.4515 125.676 55.7662 125.797 56.0598C125.918 56.3535 126.096 56.6204 126.32 56.8452C126.544 57.0701 126.811 57.2484 127.104 57.3702C127.398 57.4919 127.712 57.5545 128.03 57.5545H170.562C171.084 57.5545 171.585 57.3471 171.954 56.9779C172.323 56.6087 172.531 56.108 172.531 55.5858V12.496C172.532 12.2373 172.481 11.981 172.382 11.7419C172.284 11.5027 172.139 11.2854 171.956 11.1025C171.773 10.9195 171.556 10.7746 171.316 10.6759C171.077 10.5772 170.821 10.5267 170.562 10.5274H155.195V12.27C155.193 12.6732 155.271 13.0726 155.426 13.4452C155.785 14.3213 155.95 15.2652 155.908 16.2113C155.867 17.1575 155.62 18.0832 155.185 18.9244C154.75 19.7656 154.137 20.502 153.388 21.0826C152.64 21.6632 151.775 22.074 150.852 22.2867C149.929 22.4993 148.971 22.5086 148.044 22.3139C147.117 22.1193 146.244 21.7253 145.484 21.1593C144.725 20.5934 144.098 19.869 143.646 19.0365C143.195 18.2039 142.93 17.2831 142.87 16.3379H142.835Z" fill="#82B378"/>
<path d="M175.465 33.6689C175.481 33.7686 175.489 33.8694 175.49 33.9703C175.49 34.2013 175.49 34.4725 175.49 34.8391C175.49 35.6276 175.49 36.7124 175.53 38.0332C175.53 40.7301 175.575 44.4565 175.49 48.5796C175.405 52.7028 175.179 56.4242 174.902 59.1261C174.762 60.472 174.626 61.5518 174.516 62.3001C174.46 62.6516 174.415 62.9329 174.375 63.1589C174.368 63.2603 174.346 63.3601 174.31 63.4552C174.303 63.3548 174.303 63.2542 174.31 63.1538C174.335 62.9278 174.36 62.6516 174.4 62.29C174.475 61.5367 174.586 60.4519 174.701 59.111C174.932 56.4242 175.138 52.7078 175.204 48.5947C175.269 44.4816 175.284 40.7602 175.319 38.0482C175.319 36.7274 175.354 35.6426 175.364 34.8542C175.364 34.5026 175.364 34.2113 175.389 33.9853C175.4 33.877 175.426 33.7705 175.465 33.6689Z" fill="#263238"/>
<path d="M191.53 8.75977C191.098 11.5018 191.123 13.9074 192.464 15.6953C192.755 16.0392 193.023 16.4015 193.267 16.7801C193.388 16.9706 193.469 17.1838 193.504 17.4066C193.54 17.6295 193.529 17.8572 193.473 18.0758C193.411 18.2697 193.298 18.4435 193.147 18.5792C192.995 18.715 192.81 18.8079 192.61 18.8484C192.411 18.8888 192.204 18.8753 192.011 18.8092C191.819 18.7431 191.647 18.6269 191.515 18.4726C191.558 18.7827 191.508 19.0988 191.371 19.3806C191.235 19.6623 191.017 19.897 190.746 20.0545C190.608 20.1182 190.457 20.1495 190.304 20.1462C190.152 20.1429 190.003 20.1049 189.867 20.0352C189.732 19.9656 189.614 19.866 189.522 19.744C189.431 19.6221 189.369 19.481 189.34 19.3313C189.34 19.3313 189.697 20.7225 188.1 20.5065L189.225 10.9645L191.53 8.75977Z" fill="#263238"/>
<path d="M184.372 29.8525C183.749 29.8524 183.133 29.7213 182.564 29.4678C181.995 29.2143 181.486 28.8439 181.069 28.3808C180.652 27.9176 180.337 27.3721 180.145 26.7794C179.953 26.1868 179.887 25.5604 179.953 24.9408C180.099 23.5145 180.229 22.3544 180.229 22.3544C180.229 22.3544 176.714 21.807 176.668 18.2915C176.623 14.776 177.236 6.70549 177.236 6.70549C179.234 5.8477 181.425 5.53882 183.583 5.81074C185.741 6.08265 187.787 6.92551 189.51 8.2523L190.012 8.64905L188.792 25.7243C188.712 26.843 188.212 27.8903 187.392 28.6559C186.573 29.4215 185.494 29.849 184.372 29.8525Z" fill="#FFBE9D"/>
<path d="M178.141 13.0536C178.213 12.9864 178.264 12.8993 178.287 12.8032C178.31 12.7071 178.305 12.6064 178.271 12.5136C178.237 12.4208 178.176 12.34 178.097 12.2814C178.017 12.2228 177.922 12.189 177.824 12.1842C177.725 12.1794 177.627 12.2037 177.542 12.2543C177.457 12.3048 177.389 12.3793 177.346 12.4683C177.304 12.5574 177.288 12.6571 177.302 12.7549C177.315 12.8528 177.357 12.9445 177.423 13.0185C177.467 13.0687 177.521 13.1095 177.582 13.1385C177.642 13.1675 177.708 13.1841 177.775 13.1874C177.841 13.1907 177.908 13.1805 177.971 13.1576C178.034 13.1346 178.092 13.0993 178.141 13.0536Z" fill="#263238"/>
<path d="M177.166 11.9428C177.222 12.003 177.568 11.7369 178.05 11.7369C178.532 11.7369 178.889 11.983 178.939 11.9227C178.989 11.8624 178.914 11.7871 178.758 11.6666C178.553 11.5177 178.304 11.4401 178.05 11.4456C177.796 11.4455 177.548 11.5265 177.342 11.6766C177.191 11.8072 177.141 11.9177 177.166 11.9428Z" fill="#263238"/>
<path d="M182.745 12.6819C182.687 12.7159 182.637 12.7612 182.597 12.8149C182.557 12.8687 182.528 12.9299 182.512 12.995C182.497 13.06 182.494 13.1276 182.504 13.1937C182.515 13.2598 182.539 13.3231 182.574 13.38C182.608 13.4383 182.654 13.4892 182.708 13.5295C182.762 13.5699 182.824 13.5989 182.889 13.6149C182.955 13.6308 183.023 13.6333 183.09 13.6223C183.156 13.6113 183.22 13.5869 183.277 13.5507C183.335 13.5162 183.386 13.4705 183.425 13.4161C183.465 13.3618 183.494 13.2999 183.509 13.2343C183.525 13.1687 183.527 13.1007 183.515 13.0342C183.504 12.9678 183.479 12.9043 183.443 12.8476C183.408 12.7904 183.363 12.7406 183.309 12.7012C183.255 12.6618 183.194 12.6335 183.129 12.6181C183.064 12.6026 182.996 12.6003 182.93 12.6113C182.864 12.6222 182.801 12.6462 182.745 12.6819Z" fill="#263238"/>
<path d="M182.424 12.3696C182.479 12.4299 182.826 12.1637 183.308 12.1637C183.79 12.1637 184.147 12.4098 184.197 12.3495C184.247 12.2892 184.167 12.2139 184.016 12.0934C183.809 11.9438 183.558 11.8662 183.303 11.8724C183.048 11.8727 182.801 11.9575 182.6 12.1135C182.449 12.234 182.399 12.3445 182.424 12.3696Z" fill="#263238"/>
<path d="M180.486 16.3634C180.235 16.2677 179.97 16.2117 179.702 16.1977C179.577 16.1977 179.476 16.1575 179.466 16.0872C179.461 15.9604 179.492 15.8349 179.557 15.7256L179.938 14.7212C180.303 13.8899 180.581 13.0232 180.767 12.1348C180.322 12.9333 179.959 13.7745 179.682 14.6458C179.557 14.9873 179.436 15.3138 179.321 15.6503C179.236 15.8124 179.211 15.999 179.25 16.1776C179.268 16.2257 179.297 16.2689 179.334 16.3038C179.372 16.3387 179.417 16.3643 179.466 16.3785C179.537 16.3967 179.609 16.4068 179.682 16.4086C179.951 16.4397 180.222 16.4244 180.486 16.3634Z" fill="#263238"/>
<path d="M182.057 16.9006C182.559 16.5993 180.666 17.6389 179.682 17.5886C179.845 17.8427 180.091 18.0337 180.377 18.1304C180.664 18.2271 180.974 18.2238 181.259 18.121C182.313 17.7343 182.057 16.9006 182.057 16.9006Z" fill="white"/>
<path d="M180.199 22.3048C181.822 22.3349 183.417 21.8803 184.78 20.999C184.78 20.999 183.695 23.5101 180.189 23.2138L180.199 22.3048Z" fill="#EB996E"/>
<path d="M190.013 12.0543C190.088 12.0292 192.635 11.8535 192.213 14.8165C191.791 17.7796 188.938 16.3734 188.943 16.288C188.948 16.2026 190.013 12.0543 190.013 12.0543Z" fill="#FFBE9D"/>
<path d="M189.998 15.3784C189.998 15.3784 190.043 15.4236 190.129 15.4738C190.185 15.5094 190.247 15.5335 190.313 15.5447C190.378 15.5559 190.445 15.554 190.51 15.5391C190.719 15.4445 190.899 15.296 191.031 15.1089C191.164 14.9218 191.244 14.7028 191.264 14.4744C191.311 14.2223 191.299 13.9627 191.228 13.7161C191.214 13.6197 191.176 13.5283 191.118 13.4496C191.06 13.3709 190.984 13.3073 190.897 13.2641C190.84 13.2389 190.775 13.2351 190.715 13.2536C190.655 13.272 190.604 13.3114 190.571 13.3645C190.52 13.4399 190.53 13.5001 190.51 13.5052C190.49 13.5102 190.455 13.4449 190.51 13.3294C190.536 13.2563 190.588 13.1955 190.656 13.1586C190.7 13.1326 190.749 13.1161 190.8 13.11C190.851 13.104 190.903 13.1085 190.952 13.1235C191.07 13.1699 191.174 13.2462 191.253 13.3448C191.332 13.4434 191.384 13.561 191.404 13.686C191.496 13.9592 191.517 14.2512 191.464 14.5347C191.442 14.801 191.342 15.0548 191.176 15.264C191.009 15.4732 190.785 15.6283 190.53 15.7099C190.447 15.7212 190.363 15.714 190.283 15.6888C190.203 15.6636 190.13 15.6211 190.068 15.5642C189.993 15.4487 189.988 15.3834 189.998 15.3784Z" fill="#EB996E"/>
<path d="M176.293 6.36902C176.345 6.07054 176.512 5.80432 176.758 5.62772C177.004 5.45112 177.31 5.37827 177.609 5.42486C177.407 5.40753 177.211 5.34387 177.038 5.23881C176.864 5.13376 176.717 4.99015 176.608 4.8191C176.499 4.64806 176.431 4.45419 176.409 4.25252C176.387 4.05086 176.411 3.84682 176.481 3.65624C176.55 3.46565 176.663 3.29365 176.81 3.15356C176.956 3.01346 177.133 2.90905 177.327 2.84842C177.521 2.78779 177.726 2.77257 177.926 2.80394C178.126 2.83531 178.317 2.91242 178.483 3.02931C178.087 2.65757 177.772 2.20785 177.559 1.70848C177.451 1.45316 177.426 1.17053 177.487 0.90029C177.549 0.630054 177.693 0.385799 177.9 0.201847C178.129 0.0696124 178.389 0 178.653 0C178.918 0 179.178 0.0696124 179.407 0.201847C180.13 0.568462 180.677 1.23139 181.416 1.54276C182.154 1.85413 183.023 1.7788 183.841 1.86418C184.751 1.9384 185.615 2.29879 186.307 2.89371C186.652 3.19042 186.923 3.56403 187.098 3.98446C187.272 4.4049 187.345 4.86043 187.312 5.31437C188.421 5.24909 189.637 5.31437 190.496 6.0024C190.431 5.555 190.486 5.09835 190.655 4.67919C190.824 4.26003 191.102 3.89342 191.46 3.61689C191.916 3.29964 192.446 3.10446 192.999 3.04995C193.552 2.99545 194.109 3.08343 194.619 3.30552C194.86 3.38786 195.082 3.51972 195.27 3.69268C195.457 3.86564 195.607 4.07589 195.709 4.30995C195.935 4.98794 195.508 5.71615 194.97 6.18823C194.468 6.61491 193.872 6.91762 193.23 7.07201C192.589 7.2264 191.921 7.22815 191.279 7.07714C191.483 7.60116 191.568 8.16354 191.53 8.72439C191.475 9.69366 190.696 10.6981 190.355 11.6071L190.28 12.2047L189.697 14.6907L188.14 14.5651L188.567 9.34212C188.567 9.34212 188.858 7.14745 186.95 7.22278C185.042 7.29811 182.335 9.28185 178.679 8.51346C178.079 8.44202 177.502 8.23787 176.991 7.91583C176.75 7.74122 176.559 7.50662 176.436 7.23529C176.314 6.96396 176.264 6.66532 176.293 6.36902Z" fill="#263238"/>
<path d="M196.768 8.66367C196.475 8.88876 196.13 9.03719 195.764 9.09557C194.876 9.29734 193.946 9.18852 193.129 8.78728C192.312 8.38603 191.657 7.71664 191.274 6.89086C191.095 6.56468 191 6.19859 190.998 5.82617C191.043 5.82617 191.124 6.23296 191.44 6.8306C191.845 7.58573 192.477 8.19487 193.246 8.57233C194.015 8.94979 194.884 9.07658 195.729 8.93486C196.372 8.80429 196.748 8.61345 196.768 8.66367Z" fill="#263238"/>
<path d="M193.036 11.5569C192.996 11.5569 193.036 11.2455 192.946 10.7835C192.803 10.1798 192.556 9.60553 192.218 9.08598C191.863 8.55545 191.544 8.00178 191.263 7.42868C191.133 7.19174 191.064 6.92582 191.062 6.65527C191.203 6.87617 191.326 7.10793 191.429 7.34833C191.655 7.77019 192.042 8.31258 192.434 8.95039C192.793 9.49352 193.03 10.1089 193.127 10.7533C193.185 11.0239 193.153 11.3061 193.036 11.5569Z" fill="#263238"/>
<path d="M167.017 40.6048C165.269 39.5415 163.581 38.383 161.96 37.1345C160.016 35.4923 160.157 35.3115 160.383 35.1256C160.985 34.5883 163.898 37.8878 163.682 36.803C163.466 35.7183 159.665 33.1971 160.307 32.6648C161.161 31.9667 164.154 35.4772 164.431 35.7534C164.707 36.0296 165.109 35.6329 164.847 35.3968C164.471 35.0553 160.614 31.3791 161.442 30.6861C161.905 30.2994 162.497 31.2134 162.497 31.2134C162.497 31.2134 165.862 34.9348 166.244 34.5933C166.625 34.2518 164.737 31.9969 164.034 31.2837C163.331 30.5706 163.396 29.9629 163.954 29.9077C164.33 29.8725 166.505 32.0019 167.178 32.72C167.851 33.4382 169.649 35.4521 169.548 33.7245C169.448 31.9969 170 30.6208 170.402 30.3546C170.804 30.0885 171.311 30.5706 171.12 31.0728C170.967 31.6391 170.893 32.2238 170.899 32.8104C170.885 33.2816 170.949 33.7518 171.09 34.2016C171.211 34.5883 171.331 34.9298 171.447 35.2311L172.627 38.4804L169.664 42.2319L167.017 40.6048Z" fill="#FFBE9D"/>
<path d="M196.25 29.4358C196.873 29.5915 200.579 31.51 200.639 39.912C200.684 46.5914 200.172 61.4167 195.617 63.6214C193.553 64.6258 190.419 64.6258 187.697 62.843C180.023 57.8862 166.434 41.9058 166.434 41.9058L172.515 35.4272C172.515 35.4272 188.305 51.498 188.978 50.9054C189.982 50.0115 188.441 42.3377 189.304 34.7542C189.897 29.3605 192.408 28.4766 196.25 29.4358Z" fill="#455A64"/>
<path d="M172.506 35.6582C172.476 35.6994 172.44 35.7366 172.4 35.7687L172.074 36.0901C171.788 36.3663 171.366 36.7781 170.834 37.3306C169.318 38.8958 167.924 40.5747 166.665 42.3527V42.2372C170.954 46.6115 177.212 52.9745 184.157 60.0507C185.798 61.6111 187.799 62.7411 189.983 63.3401C191.012 63.6263 192.092 63.6744 193.142 63.4808C194.14 63.2599 195.068 62.792 195.839 62.1198C197.246 60.831 198.275 59.1834 198.817 57.3538C199.297 55.7586 199.62 54.1203 199.781 52.4622C200.188 49.449 200.404 46.9379 200.499 45.2454C200.549 44.3917 200.575 43.7388 200.595 43.2768V42.7746C200.588 42.7178 200.588 42.6605 200.595 42.6038C200.602 42.6621 200.602 42.7212 200.595 42.7796C200.595 42.9051 200.595 43.0759 200.595 43.2818C200.595 43.7338 200.595 44.3967 200.549 45.2555C200.484 46.968 200.298 49.449 199.912 52.4924C199.762 54.1648 199.447 55.8184 198.972 57.4291C198.43 59.2996 197.388 60.987 195.959 62.3106C195.159 63.0124 194.196 63.5013 193.157 63.7319C192.07 63.9335 190.953 63.8854 189.887 63.5913C187.659 62.9868 185.615 61.8374 183.941 60.2465C176.971 53.1603 170.763 46.7521 166.504 42.3678L166.449 42.3125L166.494 42.2523C167.771 40.4791 169.189 38.8114 170.733 37.2653C171.281 36.7279 171.738 36.3261 172.014 36.0549L172.355 35.7586L172.506 35.6582Z" fill="#263238"/>
<path d="M172.51 35.4267C172.51 35.4267 172.546 35.4267 172.596 35.497L172.832 35.733L173.731 36.6421C174.509 37.4355 175.649 38.5705 177.081 39.9617C178.512 41.3528 180.239 43.0101 182.188 44.8281L185.262 47.6757C186.341 48.6499 187.456 49.6845 188.651 50.6588L188.446 50.7592C188.481 50.1666 188.516 49.5389 188.551 48.9061C188.752 45.5865 188.938 42.4225 189.109 39.5448C189.214 38.1085 189.239 36.7375 189.395 35.4568C189.511 34.2594 189.841 33.0924 190.369 32.0117C190.807 31.1134 191.472 30.3449 192.298 29.7818C192.929 29.3684 193.654 29.1214 194.407 29.0637C194.879 29.0244 195.354 29.0825 195.803 29.2344C195.96 29.2807 196.111 29.3483 196.25 29.4353C196.25 29.4353 196.094 29.37 195.788 29.2846C195.341 29.1574 194.874 29.1165 194.412 29.1641C193.684 29.2395 192.985 29.493 192.378 29.9024C191.588 30.4673 190.952 31.222 190.53 32.097C190.027 33.1628 189.714 34.3084 189.606 35.4819C189.465 36.7475 189.45 38.1186 189.35 39.5549L188.812 48.9161C188.777 49.5489 188.737 50.1817 188.707 50.7693V51.0254L188.511 50.8697C187.285 49.8653 186.191 48.8609 185.111 47.8564C184.031 46.852 183.017 45.9079 182.042 44.9938C180.104 43.1608 178.386 41.4784 176.97 40.0872C175.554 38.6961 174.434 37.5159 173.676 36.7023C173.289 36.3005 173.008 35.9791 172.812 35.7582L172.596 35.5121C172.53 35.4568 172.505 35.4267 172.51 35.4267Z" fill="#263238"/>
<path d="M169.115 44.5876C169.332 44.2026 169.589 43.8423 169.884 43.5129C170.386 42.8751 171.099 42.0063 171.918 41.0671C172.736 40.128 173.495 39.2993 174.057 38.7117C174.345 38.3765 174.666 38.0719 175.016 37.8027C174.776 38.1732 174.5 38.5197 174.193 38.8373L172.113 41.2379L170.024 43.6334C169.752 43.9795 169.448 44.299 169.115 44.5876Z" fill="#263238"/>
<path d="M190.023 54.5318C189.712 53.9178 189.457 53.2775 189.259 52.6184C188.976 51.9915 188.747 51.3412 188.576 50.6748C189.321 51.8461 189.813 53.1596 190.023 54.5318Z" fill="#263238"/>
<path d="M191.404 53.4617C190.813 53.0974 190.27 52.6604 189.787 52.1609C189.247 51.7188 188.763 51.2129 188.346 50.6543C189.48 51.4562 190.508 52.3996 191.404 53.4617Z" fill="#263238"/>
<path d="M40.9822 128.276L24.8511 142.835L20.4316 137.18L34.5689 119.668L40.9822 128.276Z" fill="#FFBE9D"/>
<path d="M25.2218 143.382L25.7743 142.88L20.6818 136.627L18.3867 138.636L18.6931 139.028C20.0641 140.77 25.7944 147.791 27.1101 148.605C28.5766 149.509 25.2218 143.382 25.2218 143.382Z" fill="#1C1C1C"/>
<g opacity="0.5">
<path d="M20.3599 140.775C20.7898 140.239 21.0047 139.563 20.9625 138.877C20.9321 138.199 20.6448 137.558 20.159 137.084L18.4766 138.591L20.3599 140.775Z" fill="white"/>
</g>
<path opacity="0.5" d="M26.7737 146.455C26.7737 146.455 27.8384 148.705 27.3412 148.74C26.844 148.776 20.8124 141.9 18.3867 138.636L18.5324 138.525L25.5282 146.606C25.5282 146.606 26.4472 146.119 26.7737 146.455Z" fill="white"/>
<path d="M18.4512 138.431C18.4739 138.47 18.5008 138.507 18.5315 138.541L18.7726 138.858L19.6916 139.993C20.4701 140.947 21.5699 142.247 22.8104 143.659C24.0508 145.07 25.2059 146.325 26.0547 147.224L27.0591 148.279L27.3353 148.56C27.3669 148.596 27.4023 148.628 27.4408 148.656L27.3504 148.545L27.0842 148.254C26.818 147.958 26.4866 147.601 26.0798 147.179C25.2461 146.27 24.1011 145.01 22.8606 143.598C21.6201 142.187 20.5153 140.891 19.7167 139.947L18.7776 138.832L18.5215 138.531C18.5017 138.495 18.4781 138.462 18.4512 138.431Z" fill="#263238"/>
<path d="M25.4336 146.687C25.6567 146.573 25.8928 146.487 26.1367 146.431C26.3853 146.402 26.6364 146.402 26.885 146.431C26.652 146.303 26.3797 146.267 26.1216 146.33C25.8562 146.36 25.6112 146.487 25.4336 146.687Z" fill="#263238"/>
<path d="M24.7695 144.115C24.9 144.146 25.0358 144.146 25.1663 144.115C25.3822 144.085 25.553 144.035 25.548 144.005C25.2821 143.982 25.0148 144.025 24.7695 144.13V144.115Z" fill="#263238"/>
<path d="M24.5996 143.403C24.5996 143.403 24.7402 143.468 24.926 143.488C25.1119 143.508 25.2625 143.488 25.2676 143.488C25.2726 143.488 25.1219 143.423 24.9361 143.403C24.7503 143.383 24.5996 143.373 24.5996 143.403Z" fill="#263238"/>
<path d="M24.8945 142.594C24.8945 142.594 24.9799 142.765 25.1306 142.94C25.2812 143.116 25.4219 143.247 25.4419 143.227C25.462 143.207 25.3566 143.056 25.2009 142.88C25.0452 142.704 24.9146 142.574 24.8945 142.594Z" fill="#263238"/>
<path d="M25.2012 142.132C25.2214 142.297 25.2935 142.452 25.4071 142.574C25.5728 142.79 25.7586 142.915 25.7737 142.895C25.7888 142.875 25.6381 142.724 25.4874 142.514C25.4023 142.379 25.3065 142.251 25.2012 142.132Z" fill="#263238"/>
<path d="M25.4732 143.859C25.5654 144.006 25.6827 144.135 25.8197 144.241C25.9585 144.367 26.11 144.478 26.2717 144.572C26.3659 144.637 26.4691 144.688 26.5781 144.723C26.6428 144.748 26.7143 144.748 26.779 144.723C26.8139 144.704 26.8425 144.676 26.8613 144.641C26.88 144.606 26.8881 144.566 26.8844 144.527C26.8455 144.392 26.7772 144.267 26.6845 144.161C26.5918 144.055 26.4769 143.97 26.3479 143.914C26.219 143.857 26.0792 143.83 25.9384 143.833C25.7977 143.837 25.6594 143.871 25.5335 143.934C25.4896 143.955 25.4503 143.984 25.418 144.02C25.5764 143.949 25.7469 143.91 25.9202 143.904C26.0976 143.902 26.2718 143.951 26.4224 144.045C26.5153 144.099 26.5962 144.171 26.6601 144.258C26.724 144.344 26.7696 144.442 26.794 144.547C26.794 144.648 26.7137 144.688 26.6132 144.658C26.5141 144.621 26.4184 144.575 26.327 144.522C26.1674 144.431 26.0147 144.329 25.87 144.216C25.6138 143.995 25.4883 143.844 25.4732 143.859Z" fill="#263238"/>
<path d="M25.5436 143.975C25.6659 143.952 25.775 143.884 25.85 143.784C25.9419 143.683 26.0074 143.56 26.0408 143.428C26.0727 143.344 26.0816 143.253 26.0665 143.165C26.0515 143.077 26.0132 142.994 25.9555 142.925C25.9116 142.894 25.8576 142.881 25.8044 142.889C25.7512 142.896 25.7028 142.924 25.6692 142.966C25.6163 143.029 25.577 143.102 25.5537 143.182C25.5134 143.309 25.4898 143.44 25.4834 143.573C25.4643 143.693 25.4764 143.816 25.5185 143.93C25.537 143.814 25.5471 143.696 25.5487 143.578C25.568 143.454 25.5982 143.331 25.6391 143.212C25.6742 143.086 25.7897 142.92 25.8952 143.001C25.9327 143.06 25.9574 143.126 25.9678 143.195C25.9781 143.264 25.9739 143.335 25.9555 143.403C25.9283 143.523 25.8752 143.636 25.7998 143.734C25.7213 143.821 25.6356 143.902 25.5436 143.975Z" fill="#263238"/>
<path d="M20.2051 137.099C20.2051 137.099 20.3758 137.255 20.5817 137.556C20.8535 137.947 21.0117 138.406 21.0388 138.882C21.0563 139.356 20.9453 139.827 20.7173 140.243C20.5365 140.559 20.3708 140.745 20.3859 140.745C20.4009 140.745 20.4361 140.715 20.5064 140.64C20.608 140.533 20.6973 140.415 20.7726 140.288C21.0317 139.868 21.1577 139.38 21.1342 138.887C21.1061 138.393 20.9312 137.92 20.632 137.526C20.5441 137.408 20.443 137.3 20.3306 137.205C20.2603 137.124 20.2101 137.094 20.2051 137.099Z" fill="#263238"/>
<path d="M21.6055 141.022C21.7962 141.367 22.0309 141.686 22.3035 141.971C22.5529 142.279 22.8417 142.552 23.1623 142.785C23.1623 142.785 22.8108 142.393 22.3839 141.906C21.957 141.419 21.6557 141.007 21.6055 141.022Z" fill="#263238"/>
<path d="M20.577 139.837C20.5469 139.837 20.5218 139.942 20.4666 140.058C20.4113 140.173 20.3511 140.274 20.3711 140.294C20.3912 140.314 20.4917 140.239 20.557 140.098C20.6222 139.957 20.6022 139.837 20.577 139.837Z" fill="#263238"/>
<path d="M20.7369 138.902C20.7118 138.902 20.6817 138.993 20.6717 139.113C20.6616 139.234 20.6717 139.329 20.7068 139.329C20.742 139.329 20.7621 139.239 20.7721 139.118C20.7821 138.998 20.7621 138.902 20.7369 138.902Z" fill="#263238"/>
<path d="M20.4316 138.044C20.4316 138.044 20.4869 138.145 20.5321 138.26C20.5773 138.376 20.5873 138.481 20.6175 138.486C20.6476 138.491 20.6827 138.366 20.6175 138.225C20.5522 138.085 20.4417 138.019 20.4316 138.044Z" fill="#263238"/>
<path d="M20.1504 137.486C20.1504 137.486 20.1504 137.556 20.1504 137.621C20.1504 137.687 20.2157 137.737 20.2408 137.727C20.2659 137.717 20.2408 137.657 20.2408 137.586C20.2408 137.516 20.1755 137.476 20.1504 137.486Z" fill="#263238"/>
<path d="M69.6729 128.125L71.6164 150.117H63.3048L59.6387 128.125H69.6729Z" fill="#FFBE9D"/>
<path d="M71.3752 150.322V149.584L63.3047 149.549L63.4001 152.597H63.9023C66.1221 152.637 75.182 152.658 76.6435 152.155C78.2204 151.613 71.3752 150.322 71.3752 150.322Z" fill="#1C1C1C"/>
<g opacity="0.5">
<path d="M66.2535 152.427C66.1118 151.755 65.7252 151.159 65.1687 150.755C64.6222 150.358 63.947 150.178 63.2754 150.253L63.3557 152.498L66.2535 152.427Z" fill="white"/>
</g>
<path opacity="0.5" d="M74.7147 151.071C74.7147 151.071 77.1253 151.674 76.8441 152.076C76.5628 152.477 67.4025 152.804 63.3496 152.578V152.397L74.0367 152.111C74.0367 152.111 74.2476 151.111 74.7147 151.071Z" fill="white"/>
<path d="M63.2285 152.417H63.3691H63.7659H65.2223C66.4577 152.417 68.1602 152.417 70.0385 152.331C71.9168 152.246 73.6193 152.171 74.8497 152.085L76.3061 151.975L76.7029 151.935H76.3061L74.8447 152.015C73.6143 152.085 71.9168 152.171 70.0385 152.236C68.1602 152.301 66.4577 152.331 65.2223 152.346H63.7659H63.3691L63.2285 152.417Z" fill="#263238"/>
<path d="M74.0415 152.256C74.0967 152.012 74.1793 151.774 74.2876 151.548C74.4324 151.339 74.6009 151.146 74.7898 150.976C74.5417 151.073 74.3403 151.262 74.2273 151.503C74.0746 151.723 74.0085 151.991 74.0415 152.256Z" fill="#263238"/>
<path d="M71.6309 151.136C71.656 151.136 71.7665 151.011 71.8769 150.82C71.9874 150.629 72.0577 150.468 72.0326 150.453C71.9303 150.542 71.8481 150.651 71.7916 150.775C71.7125 150.882 71.6577 151.005 71.6309 151.136Z" fill="#263238"/>
<path d="M70.9735 150.82C70.9735 150.82 71.1141 150.75 71.2497 150.62C71.3853 150.489 71.4757 150.368 71.4556 150.353C71.4355 150.338 71.315 150.419 71.1794 150.549C71.0438 150.68 70.9534 150.79 70.9735 150.82Z" fill="#263238"/>
<path d="M70.5371 150.077C70.6714 150.121 70.8142 150.133 70.9539 150.112C71.0969 150.124 71.2407 150.105 71.3758 150.057C71.2403 150.011 71.0958 149.997 70.9539 150.017C70.7229 150.022 70.5371 150.047 70.5371 150.077Z" fill="#263238"/>
<path d="M70.3711 149.545C70.5122 149.633 70.6771 149.675 70.8432 149.666C71.0149 149.693 71.191 149.665 71.3454 149.585C71.1885 149.568 71.0302 149.568 70.8733 149.585C70.7074 149.557 70.5393 149.544 70.3711 149.545Z" fill="#263238"/>
<path d="M71.877 150.428C72.0431 150.457 72.213 150.457 72.3792 150.428C72.5655 150.398 72.7487 150.351 72.9266 150.287C73.0336 150.252 73.1364 150.205 73.2329 150.147C73.2937 150.109 73.3384 150.05 73.3585 149.981C73.3645 149.943 73.3597 149.904 73.3446 149.868C73.3295 149.833 73.3047 149.802 73.2731 149.78C73.0733 149.689 72.8477 149.671 72.6358 149.728C72.4238 149.786 72.2388 149.917 72.113 150.097C72.0359 150.201 71.9828 150.321 71.9573 150.448C71.9454 150.493 71.9454 150.539 71.9573 150.584C72.0081 150.425 72.0826 150.274 72.1783 150.137C72.2896 149.998 72.4375 149.894 72.6052 149.835C72.703 149.794 72.808 149.773 72.914 149.773C73.0201 149.773 73.1251 149.794 73.2229 149.835C73.3083 149.896 73.2781 149.991 73.1877 150.051C73.0979 150.103 73.0038 150.147 72.9065 150.182C72.7354 150.249 72.559 150.301 72.3792 150.338C72.0778 150.403 71.877 150.413 71.877 150.428Z" fill="#263238"/>
<path d="M72.0169 150.448C72.0728 150.338 72.0888 150.212 72.0621 150.091C72.0424 149.956 71.9888 149.829 71.9064 149.72C71.8622 149.643 71.7985 149.58 71.7217 149.536C71.645 149.491 71.558 149.468 71.4695 149.469C71.4178 149.483 71.3735 149.516 71.3455 149.562C71.3175 149.608 71.308 149.662 71.3188 149.715C71.3315 149.797 71.3642 149.875 71.4142 149.941C71.4853 150.053 71.5715 150.154 71.6704 150.242C71.7519 150.334 71.8556 150.403 71.9717 150.443C71.9717 150.443 71.8662 150.353 71.7156 150.197C71.6323 150.103 71.5567 150.002 71.4896 149.896C71.4142 149.785 71.359 149.594 71.4896 149.564C71.6201 149.534 71.7557 149.675 71.8361 149.77C71.9122 149.867 71.9654 149.981 71.9918 150.102C72.0095 150.216 72.0179 150.332 72.0169 150.448Z" fill="#263238"/>
<path d="M63.3398 150.217C63.3398 150.217 63.5709 150.187 63.9325 150.217C64.4079 150.258 64.8621 150.432 65.2432 150.719C65.6228 151.004 65.9165 151.388 66.092 151.829C66.2276 152.171 66.2477 152.402 66.2677 152.397C66.2755 152.343 66.2755 152.289 66.2677 152.236C66.246 152.091 66.2107 151.948 66.1623 151.809C66.0027 151.342 65.705 150.933 65.3085 150.639C64.9099 150.349 64.4348 150.183 63.9425 150.162C63.7954 150.149 63.6476 150.149 63.5006 150.162C63.4442 150.171 63.3899 150.19 63.3398 150.217Z" fill="#263238"/>
<path d="M67.2363 151.618C67.6234 151.692 68.0186 151.714 68.4115 151.684C68.8059 151.686 69.1991 151.639 69.5817 151.543C69.5817 151.513 69.0543 151.568 68.4065 151.588C67.7586 151.608 67.2363 151.593 67.2363 151.618Z" fill="#263238"/>
<path d="M65.6641 151.664C65.6641 151.664 65.7093 151.774 65.7695 151.89C65.8298 152.005 65.8599 152.116 65.885 152.116C65.9101 152.116 65.9252 151.985 65.8549 151.849C65.7846 151.714 65.6791 151.643 65.6641 151.664Z" fill="#263238"/>
<path d="M65.0469 150.951C65.0469 150.951 65.082 151.051 65.1674 151.132C65.2528 151.212 65.3382 151.262 65.3583 151.242C65.3783 151.222 65.3231 151.142 65.2327 151.061C65.1423 150.981 65.0619 150.931 65.0469 150.951Z" fill="#263238"/>
<path d="M64.1881 150.639C64.1881 150.669 64.2986 150.664 64.4191 150.699C64.5397 150.734 64.625 150.8 64.6451 150.78C64.6652 150.76 64.5949 150.649 64.4442 150.609C64.2936 150.569 64.1781 150.619 64.1881 150.639Z" fill="#263238"/>
<path d="M63.5762 150.504C63.5762 150.529 63.6163 150.569 63.6816 150.595C63.7469 150.62 63.8122 150.595 63.8223 150.595C63.8323 150.595 63.7821 150.529 63.7168 150.504C63.6515 150.479 63.5862 150.479 63.5762 150.504Z" fill="#263238"/>
<path d="M55.0627 63.5808C55.0627 63.5808 61.5663 106.771 60.6221 108.875C59.678 110.98 38.6102 132.53 38.6102 132.53L30.6953 118.99C30.6953 118.99 44.6367 103.547 44.4358 102.748C44.235 101.95 34.3916 60.1055 34.3916 60.1055L55.0627 63.5808Z" fill="#DA2B08"/>
<path d="M57.3779 79.5303C57.3126 79.0683 52.0645 67.2713 52.0645 67.2713L54.6107 63.6755L55.0627 63.5801L57.3779 79.5303Z" fill="#DA2B08"/>
<path d="M30.6967 59.5127L30.2999 61.1148C29.151 65.8423 29.8706 70.831 32.3088 75.0411L49.9264 105.591C51.1781 107.755 52.0894 110.1 52.6283 112.541L57.0226 132.308H71.4864C71.4864 132.308 69.6985 118.749 68.1065 108.86C66.9012 101.392 56.9071 78.2251 52.0658 67.2568L55.0791 63.5656L49.8711 62.6967L30.6967 59.5127Z" fill="#DA2B08"/>
<path d="M52.4473 67.1865C52.6491 67.8471 52.8958 68.4931 53.1855 69.12C53.6877 70.3002 54.3306 71.9324 55.0337 73.7454C55.7368 75.5584 56.3545 77.2157 56.7964 78.411C57.0087 79.0681 57.2637 79.7106 57.5598 80.3344C57.5416 80.1473 57.4994 79.9634 57.4342 79.787C57.3388 79.4455 57.1882 78.9483 56.9923 78.3407C56.5955 77.1253 55.9879 75.463 55.3049 73.64C54.6218 71.8169 53.9037 70.1998 53.3713 69.0397C53.1052 68.4571 52.8691 67.9901 52.7235 67.6737C52.6535 67.4997 52.5606 67.3359 52.4473 67.1865Z" fill="#455A64"/>
<path d="M54.0282 118.542C54.0394 118.429 54.0394 118.315 54.0282 118.201C53.9981 117.945 53.9629 117.623 53.9177 117.222C53.8677 116.704 53.7906 116.189 53.6867 115.68C53.5712 115.087 53.4607 114.399 53.2648 113.671C53.1744 113.299 53.079 112.908 52.9786 112.506C52.8781 112.104 52.7375 111.687 52.6069 111.255C52.3659 110.387 52.0244 109.488 51.6929 108.533C50.9054 106.478 50.0085 104.466 49.0061 102.507C47.1494 98.9828 45.0937 95.5672 42.8489 92.2768C42.0002 91.0112 41.2971 89.9917 40.8049 89.2936L40.2374 88.5152C40.1737 88.4201 40.1014 88.331 40.0215 88.249C40.0648 88.3556 40.1204 88.4567 40.1872 88.5504L40.7145 89.379C41.2167 90.1273 41.8696 91.1518 42.6832 92.3923C44.3355 94.9536 46.6155 98.5092 48.755 102.637C49.743 104.58 50.6331 106.572 51.4217 108.604C51.7582 109.548 52.1097 110.442 52.3608 111.301C52.4914 111.727 52.627 112.139 52.7425 112.541C52.858 112.943 52.9484 113.324 53.0439 113.696C53.2548 114.429 53.3753 115.107 53.5059 115.705C53.6365 116.303 53.7269 116.81 53.7871 117.212C53.8474 117.613 53.9077 117.93 53.9529 118.181C53.9641 118.304 53.9894 118.425 54.0282 118.542Z" fill="#455A64"/>
<path d="M33.0711 73.6001C33.0711 73.6001 33.031 73.5549 32.9606 73.4494L32.6543 72.9472C32.8957 72.5679 33.2115 72.2414 33.5827 71.9876C33.9539 71.7338 34.3727 71.558 34.8138 71.4707C35.4734 71.3223 36.1554 71.3018 36.8227 71.4104C37.6062 71.5474 38.376 71.7541 39.1228 72.0282C39.9855 72.2947 40.8253 72.6306 41.6339 73.0326C42.5568 73.4924 43.2826 74.2699 43.6779 75.2222C43.8751 75.7421 43.9084 76.31 43.7733 76.8494C43.6085 77.3721 43.3914 77.8769 43.1254 78.356C42.8538 78.8233 42.7068 79.3524 42.6985 79.8928C42.7424 80.438 42.992 80.9461 43.3966 81.3141C44.3609 82.2733 45.7872 82.4491 46.9674 83.0467C48.1192 83.6295 49.0577 84.561 49.6492 85.7084C50.2044 86.7287 50.4652 87.8832 50.4025 89.0431C50.3431 90.054 50.0174 91.0312 49.4583 91.8756C48.66 93.1016 47.4679 94.0191 46.0784 94.4771C45.7042 94.5949 45.3188 94.674 44.9284 94.7131C44.793 94.7231 44.657 94.7231 44.5216 94.7131C45.0328 94.6384 45.5367 94.5208 46.0282 94.3616C47.3713 93.8791 48.5161 92.964 49.2826 91.7601C49.8121 90.9392 50.1169 89.9936 50.1664 89.018C50.2136 87.8985 49.9549 86.7874 49.4181 85.8038C48.8422 84.7065 47.938 83.8164 46.8318 83.2576C46.2643 82.9764 45.6264 82.7855 44.9886 82.5445C44.3203 82.3243 43.7071 81.9629 43.1907 81.4848C42.7392 81.0702 42.4627 80.4991 42.4173 79.8878C42.4263 79.3039 42.5836 78.7319 42.8743 78.2255C43.135 77.759 43.3486 77.2677 43.5121 76.759C43.6362 76.2677 43.6046 75.75 43.4217 75.2775C43.0544 74.3766 42.3728 73.6397 41.5033 73.2033C40.7086 72.7945 39.8823 72.4502 39.0324 72.1738C38.3022 71.8928 37.5472 71.681 36.7775 71.541C36.1342 71.4227 35.4739 71.4313 34.8339 71.5661C34.4056 71.6452 33.9972 71.8078 33.6318 72.0448C33.2664 72.2818 32.9513 72.5884 32.7045 72.9472L32.9807 73.4494C33.0164 73.4961 33.0467 73.5466 33.0711 73.6001Z" fill="#FAFAFA"/>
<path d="M69.5881 118.597C69.2332 118.285 68.8316 118.031 68.3979 117.844C67.8805 117.641 67.3411 117.499 66.7908 117.422C66.153 117.316 65.4097 117.251 64.5961 117.121C63.6945 116.991 62.8245 116.697 62.0298 116.252C60.5086 115.401 59.3484 114.026 58.7654 112.383C58.1824 110.741 58.2164 108.942 58.8609 107.322C59.338 106.142 60.0561 105.118 60.257 103.978C60.3843 102.862 60.2217 101.733 59.7849 100.698C59.4031 99.7389 59.0777 98.7579 58.8106 97.7603C58.5941 96.871 58.5941 95.9427 58.8106 95.0534C59.1254 93.7658 59.8519 92.616 60.8798 91.779C61.2472 91.4678 61.665 91.2215 62.1152 91.0508C61.7052 91.2884 61.3141 91.5571 60.945 91.8543C59.9693 92.7017 59.2856 93.8352 58.9914 95.0936C58.7832 95.955 58.7832 96.8537 58.9914 97.7151C59.2708 98.701 59.6062 99.6702 59.9959 100.618C60.4549 101.689 60.628 102.86 60.4981 104.018C60.2871 105.238 59.5489 106.278 59.0969 107.423C58.4742 108.984 58.4361 110.718 58.9898 112.305C59.5434 113.892 60.6515 115.226 62.1102 116.061C62.8865 116.505 63.7375 116.803 64.6212 116.94C65.4248 117.08 66.1681 117.156 66.8109 117.276C67.3704 117.375 67.9154 117.544 68.433 117.779C68.7589 117.925 69.0618 118.118 69.332 118.351C69.5078 118.497 69.5982 118.587 69.5881 118.597Z" fill="#FAFAFA"/>
<path d="M62.8379 133.007C62.7877 133.007 62.7726 132.354 62.5114 131.344C62.3581 130.755 62.1479 130.181 61.8837 129.632C61.5535 128.963 61.1546 128.33 60.6934 127.744C60.2211 127.165 59.6892 126.638 59.1065 126.172C58.6277 125.788 58.113 125.452 57.5697 125.167C56.6406 124.695 56.0028 124.539 56.0178 124.489C56.1723 124.491 56.3253 124.52 56.4698 124.575C56.641 124.613 56.809 124.665 56.972 124.73C57.1987 124.806 57.4202 124.897 57.635 125.002C58.2036 125.263 58.7424 125.584 59.242 125.961C60.4686 126.889 61.4453 128.107 62.0846 129.506C62.345 130.074 62.5437 130.669 62.6772 131.279C62.7331 131.512 62.7734 131.749 62.7977 131.987C62.8264 132.165 62.8399 132.345 62.8379 132.525C62.8659 132.684 62.8659 132.847 62.8379 133.007Z" fill="#FAFAFA"/>
<path d="M55.4142 76.1969C55.4142 76.1969 55.3489 76.1969 55.2183 76.2371C55.0269 76.2643 54.8341 76.281 54.6408 76.2873C53.9306 76.3109 53.2206 76.2348 52.5315 76.0613C51.5029 75.8134 50.529 75.3775 49.6588 74.7757C48.5744 74.0512 47.6827 73.0736 47.0606 71.9274C46.4385 70.7811 46.1047 69.5007 46.0881 68.1967C46.0644 67.1385 46.2346 66.0849 46.5903 65.088C46.8231 64.4155 47.1476 63.7784 47.5546 63.1946C47.6618 63.0365 47.7793 62.8855 47.9061 62.7427C47.9915 62.6422 48.0417 62.592 48.0467 62.597C47.5119 63.3888 47.0815 64.2463 46.7661 65.1483C46.448 66.1301 46.3052 67.1603 46.3442 68.1917C46.3711 69.4522 46.6964 70.6884 47.2936 71.7988C47.8907 72.9093 48.7426 73.8623 49.7794 74.5798C50.6216 75.1741 51.5616 75.6161 52.5566 75.8856C53.4913 76.1145 54.4521 76.2192 55.4142 76.1969Z" fill="#FAFAFA"/>
<path d="M42.5373 104.376C42.6345 104.41 42.7286 104.452 42.8186 104.502C43.0044 104.587 43.2655 104.733 43.597 104.928C44.5354 105.497 45.3666 106.227 46.0528 107.083C46.5269 107.684 46.8908 108.364 47.1275 109.092C47.3905 109.935 47.449 110.828 47.2983 111.698C47.1479 112.674 46.6822 113.573 45.9725 114.26C45.2292 114.983 44.1394 115.224 43.5066 116.017C42.8738 116.811 42.7332 117.85 42.6378 118.82C42.6071 119.783 42.438 120.737 42.1356 121.652C41.795 122.479 41.1746 123.16 40.3828 123.576C39.7098 123.943 38.9674 124.165 38.2032 124.228C37.1084 124.289 36.0108 124.18 34.9489 123.907C34.5722 123.817 34.286 123.741 34.0901 123.686C33.9894 123.667 33.8915 123.635 33.7988 123.591C33.9022 123.596 34.0048 123.611 34.1052 123.636L34.969 123.807C36.0234 124.04 37.106 124.119 38.1831 124.043C38.9172 123.972 39.6286 123.749 40.2723 123.39C41.0148 122.989 41.5952 122.343 41.9146 121.562C42.1971 120.665 42.3543 119.734 42.3816 118.795C42.4186 118.287 42.4958 117.783 42.6127 117.288C42.7306 116.762 42.9677 116.271 43.3057 115.852C44.0289 114.983 45.1237 114.747 45.8168 114.074C46.488 113.429 46.9306 112.582 47.0773 111.663C47.2263 110.827 47.1782 109.967 46.9367 109.152C46.7156 108.448 46.3759 107.788 45.9323 107.198C45.2691 106.347 44.4699 105.61 43.5669 105.019C43.2505 104.808 42.9943 104.652 42.8186 104.552C42.7179 104.505 42.6234 104.446 42.5373 104.376Z" fill="#FAFAFA"/>
<path d="M44.08 0.457777C41.2927 -0.235276 38.2945 1.5074 36.9084 4.01846C35.5223 6.52952 35.5072 9.60809 36.1601 12.4004C36.4363 13.5705 36.823 14.7809 36.5518 15.9561C36.2605 17.2166 35.2561 18.1959 34.774 19.4012C33.8549 21.7265 35.0251 24.3028 36.1701 26.5226C36.6723 27.527 37.3604 28.657 38.4753 28.878C39.7258 29.1241 40.8256 28.1247 41.8803 27.4065C43.7419 26.1502 46.0076 25.6393 48.2282 25.9752C50.7393 26.3619 53.0093 27.8032 55.5304 27.8484C56.6723 27.8566 57.798 27.5781 58.8044 27.0385C59.8108 26.4989 60.6657 25.7154 61.2908 24.7598C62.0391 23.5897 62.2952 21.8269 61.2155 20.9631C60.5023 20.3956 59.4125 20.4157 58.7847 19.7528C58.0214 18.9442 58.3528 17.6435 58.7446 16.6089C59.1363 15.5744 59.528 14.3088 58.83 13.445C58.0515 12.4707 56.3641 12.6565 55.6208 11.6571C54.8775 10.6577 55.661 9.14605 55.6208 7.82021C55.5715 7.23634 55.3909 6.67114 55.0927 6.16678C54.7944 5.66242 54.3861 5.23192 53.8982 4.90738C52.9541 4.21935 52.8235 3.99837 51.5228 1.63295" fill="#263238"/>
<path d="M40.1928 23.4237L50.2371 24.2824C50.2371 24.2824 57.5543 23.2127 60.3567 41.7695L71.4756 41.3125L71.9779 48.705L56.6855 49.4583L54.8826 48.3786L55.0634 63.5806L29.7669 61.7174C30.3394 58.2672 33.0363 53.7271 33.9403 50.8143C33.0212 48.5142 27.9389 39.1379 27.6878 34.3217C27.0047 21.1336 40.1928 23.4237 40.1928 23.4237Z" fill="#1C1C1C"/>
<path opacity="0.3" d="M56.0123 37.0283C56.0123 37.0283 57.7902 39.0372 57.8203 40.7296C57.8655 43.4416 57.1825 44.8327 58.0312 47.7958L55.6106 48.3783C55.6106 48.3783 55.2389 47.6551 55.5553 46.1083C55.8717 44.5615 56.4844 42.6782 56.7556 40.9958C56.9963 39.6269 56.7323 38.2172 56.0123 37.0283Z" fill="black"/>
<path d="M55.6112 48.3788C55.537 48.1881 55.4864 47.9891 55.4605 47.7862C55.3893 47.2327 55.3893 46.6723 55.4605 46.1188C55.5679 45.3056 55.7358 44.5015 55.9627 43.7132C56.2482 42.7615 56.4696 41.7917 56.6257 40.8104C56.7746 39.8392 56.669 38.846 56.3193 37.9277C55.9985 37.1926 55.561 36.5143 55.0236 35.9189C54.1096 34.8793 53.4617 34.3018 53.517 34.2666C53.6883 34.3758 53.8481 34.5019 53.9941 34.6433C54.4124 35.0054 54.8098 35.391 55.1843 35.7984C55.759 36.3988 56.2262 37.0936 56.5654 37.8524C56.9461 38.8084 57.0623 39.8493 56.9019 40.8657C56.7489 41.8597 56.5189 42.8403 56.2138 43.7986C55.9761 44.5746 55.7866 45.3646 55.6463 46.164C55.562 46.7037 55.5334 47.2507 55.561 47.7962C55.5979 47.9881 55.6147 48.1834 55.6112 48.3788Z" fill="#263238"/>
<g opacity="0.2">
<path d="M55.9422 48.1886L48.4492 48.3593C47.8553 48.4154 47.2563 48.3453 46.6915 48.1534C45.903 47.8219 45.3958 47.0536 44.9538 46.3203C43.638 44.1508 42.4327 41.9209 41.3379 39.6309C41.3379 39.6309 43.3166 45.9236 44.5571 48.6707C44.6776 49.0173 44.9267 49.3045 45.2529 49.4727C45.5791 49.6409 45.9575 49.6774 46.3098 49.5747C49.5707 49.5806 52.8153 49.1137 55.9422 48.1886Z" fill="black"/>
</g>
<path d="M104.928 31.6154C106.032 31.5368 107.139 31.7426 108.142 32.213C108.569 32.4215 109.037 32.5313 109.513 32.5345H110.738V16.7901C110.738 16.4725 110.675 16.1579 110.554 15.8645C110.432 15.5711 110.254 15.3046 110.029 15.0802C109.804 14.8558 109.537 14.678 109.243 14.5569C108.95 14.4358 108.635 14.3738 108.317 14.3745H92.6384V13.3098C92.6435 12.8163 92.7602 12.3304 92.9799 11.8885C93.5769 10.6643 93.7703 9.28223 93.5323 7.94112C93.2536 6.32899 92.3799 4.88024 91.0839 3.88165C89.788 2.88306 88.1644 2.40742 86.5345 2.54888C84.9045 2.69033 83.3871 3.43858 82.2826 4.6455C81.1781 5.85242 80.567 7.43005 80.5702 9.06608C80.5701 9.97097 80.76 10.8658 81.1277 11.6926C81.3136 12.1068 81.4127 12.5546 81.4189 13.0084V14.3745H66.1266C65.4859 14.3745 64.8715 14.629 64.4185 15.082C63.9654 15.535 63.7109 16.1494 63.7109 16.7901V59.3225C63.7109 59.581 63.7619 59.837 63.8608 60.0758C63.9597 60.3147 64.1047 60.5317 64.2875 60.7145C64.4704 60.8973 64.6874 61.0424 64.9262 61.1413C65.1651 61.2402 65.4211 61.2911 65.6796 61.2911H108.769C109.291 61.2898 109.791 61.082 110.16 60.7131C110.529 60.3442 110.737 59.8442 110.738 59.3225V43.9497H108.995C108.592 43.9502 108.193 44.0287 107.82 44.1808C107.049 44.4958 106.223 44.6578 105.39 44.6579C103.658 44.7191 101.973 44.09 100.705 42.909C99.4376 41.7279 98.691 40.0917 98.6298 38.3601C98.5685 36.6286 99.1976 34.9436 100.379 33.6759C101.56 32.4082 103.196 31.6616 104.928 31.6003V31.6154Z" fill="#DA2B08"/>
<path opacity="0.2" d="M105.217 31.091C106.321 31.0124 107.428 31.2181 108.431 31.6886C108.858 31.8971 109.326 32.0069 109.802 32.01H111.027V16.2657C111.027 15.948 110.965 15.6335 110.843 15.3401C110.721 15.0467 110.543 14.7802 110.318 14.5558C110.093 14.3314 109.826 14.1536 109.532 14.0325C109.239 13.9114 108.924 13.8494 108.607 13.85H92.9274V12.7854C92.9325 12.2919 93.0493 11.806 93.2689 11.3641C93.866 10.1399 94.0594 8.75782 93.8214 7.41671C93.5427 5.80458 92.6689 4.35583 91.373 3.35724C90.077 2.35865 88.4534 1.88301 86.8235 2.02446C85.1936 2.16592 83.6762 2.91417 82.5717 4.12109C81.4672 5.32801 80.856 6.90563 80.8593 8.54167C80.8592 9.44656 81.0491 10.3414 81.4167 11.1682C81.6026 11.5824 81.7018 12.0301 81.708 12.484V13.85H66.4156C65.775 13.85 65.1605 14.1046 64.7075 14.5576C64.2545 15.0106 64 15.625 64 16.2657V58.7981C64 59.0566 64.0509 59.3126 64.1499 59.5514C64.2488 59.7903 64.3938 60.0073 64.5766 60.1901C64.7594 60.3729 64.9764 60.5179 65.2153 60.6169C65.4541 60.7158 65.7101 60.7667 65.9687 60.7667H109.058C109.58 60.7654 110.08 60.5576 110.449 60.1887C110.818 59.8197 111.026 59.3198 111.027 58.7981V43.4253H109.284C108.882 43.4258 108.482 43.5043 108.109 43.6564C107.338 43.9713 106.512 44.1334 105.679 44.1335C103.947 44.1947 102.262 43.5656 100.994 42.3846C99.7267 41.2035 98.9801 39.5672 98.9188 37.8357C98.8576 36.1042 99.4866 34.4192 100.668 33.1515C101.849 31.8838 103.485 31.1372 105.217 31.0759V31.091Z" fill="white"/>
<path d="M40.0577 23.7755L39.2793 6.04736L46.3103 0.713867L52.7085 3.84265C52.7085 3.84265 52.9244 11.878 52.7085 15.3634C52.4925 18.8488 48.982 19.2204 48.982 19.2204C48.982 19.2204 49.0674 21.2594 49.1478 23.4038C49.1709 24.0196 49.0688 24.6337 48.8478 25.2089C48.6267 25.7841 48.2912 26.3085 47.8616 26.7503C47.432 27.1921 46.9173 27.5421 46.3485 27.7792C45.7797 28.0163 45.1687 28.1355 44.5525 28.1296C43.3889 28.1154 42.2749 27.6563 41.439 26.8466C40.6032 26.0369 40.109 24.938 40.0577 23.7755Z" fill="#FFBE9D"/>
<path d="M52.0248 9.69795C52.0248 9.78635 51.9986 9.87277 51.9495 9.94627C51.9004 10.0198 51.8305 10.0771 51.7489 10.1109C51.6672 10.1447 51.5773 10.1536 51.4906 10.1363C51.4039 10.1191 51.3243 10.0765 51.2618 10.014C51.1993 9.95149 51.1567 9.87185 51.1394 9.78514C51.1222 9.69844 51.1311 9.60857 51.1649 9.5269C51.1987 9.44522 51.256 9.37542 51.3295 9.32631C51.403 9.27719 51.4894 9.25098 51.5778 9.25098C51.6964 9.25098 51.8101 9.29807 51.8939 9.38189C51.9777 9.46572 52.0248 9.5794 52.0248 9.69795Z" fill="#263238"/>
<path d="M52.4557 9.21132C52.3955 9.27159 52.069 8.99035 51.5869 8.96524C51.1048 8.94013 50.7482 9.17115 50.698 9.10586C50.6478 9.04057 50.7331 8.97026 50.8888 8.86479C51.1002 8.72558 51.351 8.65865 51.6036 8.67404C51.8563 8.68944 52.0971 8.78633 52.29 8.95018C52.4356 9.07573 52.4808 9.16612 52.4557 9.21132Z" fill="#263238"/>
<path d="M46.8568 9.69795C46.8568 9.78635 46.8306 9.87277 46.7815 9.94627C46.7324 10.0198 46.6626 10.0771 46.5809 10.1109C46.4992 10.1447 46.4094 10.1536 46.3227 10.1363C46.236 10.1191 46.1563 10.0765 46.0938 10.014C46.0313 9.95149 45.9887 9.87185 45.9715 9.78514C45.9542 9.69844 45.9631 9.60857 45.9969 9.5269C46.0307 9.44522 46.088 9.37542 46.1615 9.32631C46.235 9.27719 46.3215 9.25098 46.4099 9.25098C46.5284 9.25098 46.6421 9.29807 46.7259 9.38189C46.8097 9.46572 46.8568 9.5794 46.8568 9.69795Z" fill="#263238"/>
<path d="M47.1335 9.21118C47.0732 9.27144 46.7468 8.99021 46.2646 8.9651C45.7825 8.93999 45.4259 9.171 45.3757 9.10572C45.3255 9.04043 45.4109 8.97011 45.5666 8.86465C45.7722 8.72565 46.0166 8.65533 46.2646 8.66377C46.5175 8.68024 46.7586 8.77701 46.9527 8.93998C47.1134 9.07558 47.1586 9.16598 47.1335 9.21118Z" fill="#263238"/>
<path d="M48.9962 19.2103C47.3404 19.14 45.7391 18.5981 44.3809 17.6484C44.3809 17.6484 45.5359 20.2549 49.0313 20.1143L48.9962 19.2103Z" fill="#EB996E"/>
<path d="M48.8655 13.2688C49.1221 13.206 49.3849 13.1723 49.649 13.1684C49.7695 13.1684 49.89 13.1684 49.9202 13.0579C49.9341 12.9233 49.9097 12.7875 49.8498 12.6662C49.7461 12.3548 49.6356 12.02 49.5184 11.6617C49.2924 10.9536 49.0965 10.3108 48.9609 9.84372C48.8721 9.59375 48.8131 9.33414 48.7852 9.07031C48.917 9.29946 49.0199 9.54406 49.0915 9.79852C49.2572 10.2606 49.4782 10.8933 49.7042 11.6015L50.0206 12.6059C50.0929 12.7631 50.1089 12.9405 50.0658 13.1081C50.0481 13.1509 50.0207 13.189 49.9859 13.2194C49.951 13.2499 49.9096 13.272 49.8649 13.2839C49.7948 13.2904 49.7241 13.2904 49.654 13.2839C49.3915 13.3104 49.1268 13.3054 48.8655 13.2688Z" fill="#263238"/>
<path d="M48.5095 13.6855C48.321 13.7352 48.1482 13.832 48.0073 13.9668C47.9207 14.04 47.8636 14.1424 47.8469 14.2546C47.8302 14.3668 47.8549 14.4813 47.9164 14.5767C47.9779 14.672 48.072 14.7417 48.1812 14.7727C48.2904 14.8038 48.4071 14.794 48.5095 14.7452C48.6015 14.7252 48.6881 14.6857 48.7634 14.6294C48.8388 14.5731 48.9012 14.5013 48.9465 14.4188C48.9887 14.3328 49.0055 14.2365 48.9948 14.1413C48.9842 14.0461 48.9465 13.9559 48.8862 13.8814C48.8234 13.8138 48.7396 13.7694 48.6483 13.7557C48.557 13.7421 48.4638 13.7598 48.384 13.8061" fill="#EB996E"/>
<path d="M49.1313 14.3794C49.1313 14.4497 48.7345 14.5601 48.3077 14.3141C47.8808 14.068 47.7653 13.6612 47.8356 13.6461C47.9059 13.6311 48.0867 13.8972 48.4382 14.0881C48.7898 14.2789 49.1212 14.304 49.1313 14.3794Z" fill="#263238"/>
<path d="M46.7014 0.0205894C45.9633 -0.00497958 45.2287 0.13254 44.5499 0.423342C43.8711 0.714143 43.2647 1.15107 42.7741 1.703C41.7997 2.83032 41.3042 4.29358 41.393 5.78097C41.383 6.33972 41.5598 6.88583 41.8952 7.33281C42.3974 7.91035 43.2461 8.02586 44.0145 8.10119C44.7949 8.24579 45.5984 8.2045 46.3599 7.98066C47.1031 7.6944 47.7209 6.92601 47.5551 6.15261C47.1885 6.65482 47.4949 7.39809 48.0172 7.71449C48.5699 7.98561 49.1874 8.09693 49.8 8.0359H52.4316C52.7319 8.06558 53.0339 8.00061 53.2954 7.85009C53.436 7.7071 53.5466 7.5375 53.6207 7.35123C53.6949 7.16496 53.7311 6.96576 53.7273 6.76531C53.8679 5.36413 53.9985 3.87256 53.3557 2.62205C52.7171 1.51411 51.6754 0.695506 50.4479 0.336986C49.2476 -0.0597622 47.9368 0.121036 46.6863 0.0406822" fill="#263238"/>
<path d="M39.2796 23.2732C40.2388 23.7754 42.0568 21.7967 42.6494 20.8877C43.177 19.9299 43.3546 18.8183 43.1516 17.7438C43.0261 16.6641 42.7398 15.6044 42.7147 14.5196C42.6795 12.7619 43.3425 11.0794 43.6538 9.34681C43.9879 7.46211 43.9073 5.52726 43.4178 3.67684C43.2269 2.95868 42.9156 2.1702 42.2125 1.899C41.9186 1.80093 41.6041 1.78226 41.3007 1.84488C40.9973 1.9075 40.7159 2.04918 40.4849 2.25558C40.0302 2.67492 39.6735 3.18934 39.4403 3.76221L38.8828 7.99084L39.2996 13.9119L39.2796 23.2732Z" fill="#263238"/>
<path d="M64.5604 45.5707L67.1217 54.3092C67.1217 54.3092 53.7176 59.1857 46.4606 59.0953C39.6557 59.015 37.7071 58.2416 35.3165 52.7474C32.926 47.2532 30.194 40.9454 29.6365 37.3144C29.6365 37.3144 24.1674 22.1375 38.8119 23.6341L40.8208 35.185C40.8208 35.185 42.4429 40.5436 42.5584 40.855C43.6533 43.7477 45.0695 47.9864 46.4405 48.4986C47.8116 49.0109 64.5604 45.5707 64.5604 45.5707Z" fill="#1C1C1C"/>
<path d="M64.5601 45.5707C64.4465 45.6134 64.3287 45.6437 64.2085 45.6611L63.2041 45.877C62.3102 46.0628 61.0145 46.3391 59.4074 46.7107C57.8003 47.0823 55.8919 47.5394 53.7023 47.9411C51.3245 48.4127 48.9043 48.6365 46.4805 48.6091H46.3951L46.3649 48.5287C46.0887 47.8105 45.7974 47.0522 45.5212 46.2788C43.5927 40.8599 42.1263 35.878 40.9411 32.3123C40.3535 30.5244 39.8613 29.083 39.5097 28.0937C39.344 27.5915 39.2084 27.2349 39.108 26.9537C39.0535 26.8223 39.0114 26.6861 38.9824 26.5469C38.9824 26.5469 39.0477 26.6775 39.1582 26.9336C39.2687 27.1897 39.4193 27.5664 39.6052 28.0585C39.9868 29.0378 40.5041 30.4692 41.1118 32.252C42.3472 35.8077 43.8438 40.7896 45.7673 46.1884C46.0435 46.9618 46.3298 47.695 46.606 48.4333L46.4855 48.3529C48.8928 48.3829 51.2971 48.1709 53.6621 47.7201C55.8316 47.3284 57.7551 46.8814 59.3722 46.545C60.9894 46.2085 62.2851 45.9473 63.1891 45.7866L64.2236 45.6209C64.3348 45.5981 64.4471 45.5814 64.5601 45.5707Z" fill="#263238"/>
<path d="M67.1208 54.3097C66.9962 54.382 66.865 54.4425 66.7291 54.4905C66.468 54.6009 66.0813 54.7516 65.5791 54.9374C64.5746 55.3091 63.0981 55.8012 61.255 56.3386C59.4119 56.876 57.2072 57.4636 54.7514 58.0863C52.0947 58.8276 49.3711 59.3037 46.6205 59.5076C45.8936 59.5421 45.1652 59.5237 44.4409 59.4523C43.7317 59.3873 43.0324 59.2406 42.3568 59.0154C41.0914 58.5572 39.9316 57.8483 38.9467 56.9312C37.3173 55.3593 35.9597 53.5282 34.929 51.5123C34.025 49.8199 33.4224 48.3936 32.9905 47.4042C32.7846 46.902 32.6289 46.5254 32.5285 46.2592C32.4677 46.13 32.419 45.9955 32.3828 45.8574C32.4595 45.9777 32.5235 46.1056 32.5737 46.2391C32.6992 46.5203 32.87 46.892 33.0759 47.3641C33.5228 48.3384 34.1606 49.7496 35.0847 51.427C36.1263 53.4076 37.4833 55.2056 39.1024 56.7504C40.0682 57.634 41.2001 58.3169 42.4321 58.7593C43.0836 58.9745 43.7576 59.1143 44.4409 59.1761C45.1534 59.2475 45.8702 59.266 46.5854 59.2313C49.3179 59.03 52.0243 58.5624 54.666 57.8352C57.1268 57.2275 59.3366 56.665 61.1947 56.1477C63.0529 55.6305 64.5194 55.1433 65.5339 54.8269L66.699 54.4252C66.8364 54.3759 66.9775 54.3373 67.1208 54.3097Z" fill="#263238"/>
<path opacity="0.2" d="M34.8145 51.4219C34.8145 51.4219 37.3255 61.0644 43.8543 60.8685C50.383 60.6726 56.5151 57.8803 56.5151 57.8803L56.2238 57.579C56.2238 57.579 45.1751 59.9595 42.1066 58.4629C36.2759 55.6304 34.8145 51.4219 34.8145 51.4219Z" fill="black"/>
<path d="M66.2123 53.3054H68.2663C70.1295 53.1246 71.1691 53.0944 71.6914 52.6023C72.3895 51.9343 71.4303 51.2865 71.4303 51.2865C71.4303 51.2865 72.7762 50.8194 72.6506 50.0008C72.5653 49.4383 71.9274 49.3781 71.9274 49.3781C71.9274 49.3781 73.1177 48.911 73.3537 48.4138C73.6701 47.7408 72.8515 47.3793 72.8515 47.3793C74.4737 46.3748 74.328 45.3704 73.9514 45.29C73.5747 45.2097 72.3141 45.7923 72.3141 45.7923C71.2444 46.0986 68.3266 46.9875 69.4063 45.3805C70.4861 43.7734 70.7121 42.1311 70.466 41.644C70.3972 41.538 70.297 41.4561 70.1795 41.4097C70.0619 41.3632 69.9329 41.3546 69.8102 41.385C69.6875 41.4154 69.5774 41.4833 69.4951 41.5792C69.4128 41.6751 69.3625 41.7943 69.3511 41.9202C69.1845 42.5523 68.9292 43.1576 68.5928 43.7181C68.3388 44.1797 68.0095 44.5956 67.6185 44.9485C67.1615 45.3553 66.7547 45.6818 66.4081 45.953L64.5801 47.7107L66.2123 53.3054Z" fill="#FFBE9D"/>
</svg>
