<svg width="21" height="25" viewBox="0 0 21 25" fill="none" xmlns="http://www.w3.org/2000/svg">
<path fill-rule="evenodd" clip-rule="evenodd" d="M14.9988 0.791992C15.2134 2.24973 14.6201 3.67784 13.8374 4.68824C12.9999 5.77202 11.5565 6.61026 10.158 6.56651C9.90272 5.17086 10.5564 3.73288 11.3517 2.76622C12.2242 1.69938 13.7195 0.880896 14.9988 0.791992ZM19.2 21.3105C19.921 20.2055 20.1903 19.6481 20.75 18.4006C16.6793 16.8526 16.027 11.0653 20.0557 8.84415C18.8269 7.30315 17.1001 6.40987 15.4701 6.40987C14.2957 6.40987 13.491 6.71636 12.7594 6.99499C12.1498 7.22718 11.591 7.44003 10.9113 7.44003C10.1768 7.44003 9.52635 7.20682 8.84529 6.96262C8.09691 6.69429 7.31153 6.4127 6.33699 6.4127C4.50784 6.4127 2.56086 7.53034 1.32646 9.44107C-0.408715 12.1322 -0.11274 17.1912 2.70113 21.501C3.70688 23.0434 5.05069 24.7763 6.80831 24.7918C7.53761 24.7991 8.02291 24.5814 8.54808 24.3458C9.14919 24.0762 9.80252 23.7832 10.9337 23.7772C12.0716 23.7704 12.7146 24.067 13.3078 24.3405C13.8194 24.5765 14.294 24.7954 15.0171 24.7876C16.7761 24.7735 18.1942 22.8529 19.2 21.3105Z" fill="#0B0B0A"/>
</svg>
