<svg width="25" height="25" viewBox="0 0 25 25" fill="none" xmlns="http://www.w3.org/2000/svg">
<path d="M12.5 0.791992C19.1274 0.791992 24.5 6.1974 24.5 12.8653C24.5 18.8914 20.1118 23.8863 14.375 24.792V16.3553H17.1711L17.7031 12.8653H14.375V10.6016C14.375 9.64679 14.84 8.71512 16.3306 8.71512H17.8438V5.74395C17.8438 5.74395 17.6846 5.71663 17.4229 5.68059C17.0118 5.62398 16.3477 5.54585 15.6498 5.51827C15.4867 5.51182 15.3216 5.50814 15.1576 5.50814C12.4166 5.50814 10.625 7.17954 10.625 10.2054V12.8653H7.57812V16.3553H10.625V24.792C4.8882 23.8863 0.5 18.8914 0.5 12.8653C0.5 6.1974 5.87258 0.791992 12.5 0.791992Z" fill="#1877F2"/>
</svg>
