<svg width="193" height="193" viewBox="0 0 193 193" fill="none" xmlns="http://www.w3.org/2000/svg">
<circle opacity="0.1" cx="96.5" cy="96.5" r="96.5" fill="#D6D6D6"/>
<circle opacity="0.1" cx="96.5" cy="96.5" r="76.5" fill="#D6D6D6"/>
<circle opacity="0.1" cx="96.5" cy="96.5" r="55.5" fill="#D6D6D6"/>
<path d="M96.626 113.811C96.258 114.024 95.8416 114.153 95.4109 114.174L81.5318 114.847C77.5926 115.036 74.204 114.65 71.1686 113.672C64.527 111.534 58.9536 107.078 55.4789 101.119L44.0349 81.5102C42.7136 79.2473 43.0098 76.3571 44.7638 74.3166L60.4777 56.091C61.4051 54.9989 62.7029 54.2389 64.1212 53.952L87.6406 49.1261C90.2713 48.5824 92.928 49.7415 94.2446 52.0032L105.697 71.6268C109.17 77.5754 110.318 84.6273 108.932 91.4838C108.296 94.6291 106.971 97.7824 104.885 101.125L97.5323 112.925C97.3053 113.293 96.9922 113.595 96.626 113.811Z" fill="url(#paint0_linear_1449_9957)"/>
<g filter="url(#filter0_f_1449_9957)">
<path d="M90.4885 102.128C90.239 102.272 89.9608 102.367 89.6772 102.396L80.538 103.328C77.9441 103.591 75.7332 103.481 73.7762 102.994C69.4942 101.931 65.9995 99.4048 63.9388 95.8778L57.1512 84.2722C56.3675 82.9329 56.6692 81.1482 57.8967 79.8305L68.892 68.0583C69.5415 67.3534 70.422 66.8384 71.364 66.6093L86.9878 62.7683C88.7355 62.3363 90.4372 62.9482 91.2178 64.2869L98.0104 75.9011C100.07 79.4218 100.562 83.7064 99.3982 87.9659C98.8638 89.9199 97.8765 91.9045 96.3825 94.0335L91.1166 101.55C90.9538 101.785 90.737 101.981 90.4885 102.128Z" fill="#1EA51F" fill-opacity="0.5"/>
</g>
<g filter="url(#filter1_b_1449_9957)">
<mask id="path-6-outside-1_1449_9957" maskUnits="userSpaceOnUse" x="64.2685" y="50.4825" width="93.2532" height="105.163" fill="black">
<rect fill="white" x="64.2685" y="50.4825" width="93.2532" height="105.163"/>
<path d="M104.215 148.122C103.657 148.036 103.118 147.821 102.654 147.481L87.695 136.53C83.4508 133.42 80.2551 130.173 77.9176 126.604C72.8005 118.799 70.7147 109.474 72.0538 100.342L76.45 70.2864C76.9567 66.8174 79.662 64.0523 83.1749 63.3971L114.601 57.5842C116.469 57.224 118.447 57.521 120.156 58.4126L148.563 73.126C151.743 74.7676 153.538 78.2068 153.028 81.6706L148.628 111.749C147.296 120.867 142.635 129.185 135.509 135.172C132.239 137.918 128.248 140.093 123.31 141.827L105.891 147.959C105.35 148.153 104.775 148.204 104.215 148.122Z"/>
</mask>
<path d="M104.215 148.122C103.657 148.036 103.118 147.821 102.654 147.481L87.695 136.53C83.4508 133.42 80.2551 130.173 77.9176 126.604C72.8005 118.799 70.7147 109.474 72.0538 100.342L76.45 70.2864C76.9567 66.8174 79.662 64.0523 83.1749 63.3971L114.601 57.5842C116.469 57.224 118.447 57.521 120.156 58.4126L148.563 73.126C151.743 74.7676 153.538 78.2068 153.028 81.6706L148.628 111.749C147.296 120.867 142.635 129.185 135.509 135.172C132.239 137.918 128.248 140.093 123.31 141.827L105.891 147.959C105.35 148.153 104.775 148.204 104.215 148.122Z" fill="#72DC60" fill-opacity="0.35"/>
<path d="M104.064 149.111C104.61 149.195 105.12 148.821 105.204 148.275C105.287 147.729 104.912 147.218 104.366 147.134L104.064 149.111ZM102.654 147.481L103.243 146.674L103.243 146.674L102.654 147.481ZM87.695 136.53L87.1053 137.337L87.1057 137.337L87.695 136.53ZM77.9176 126.604L78.7534 126.057L78.7532 126.057L77.9176 126.604ZM72.0538 100.342L73.043 100.489L73.043 100.489L72.0538 100.342ZM76.45 70.2864L77.4392 70.4331L77.4392 70.4329L76.45 70.2864ZM83.1749 63.3971L82.9913 62.4134L82.9899 62.4137L83.1749 63.3971ZM114.601 57.5842L114.785 58.5679L114.792 58.5665L114.601 57.5842ZM120.156 58.4126L119.696 59.2995L119.698 59.3007L120.156 58.4126ZM148.563 73.126L148.105 74.0141L148.106 74.0148L148.563 73.126ZM153.028 81.6706L152.039 81.5228L152.039 81.5239L153.028 81.6706ZM148.628 111.749L147.639 111.602L147.639 111.602L148.628 111.749ZM135.509 135.172L136.153 135.938L136.153 135.938L135.509 135.172ZM123.31 141.827L122.978 140.883L122.977 140.883L123.31 141.827ZM105.891 147.959L105.557 147.016L105.553 147.017L105.891 147.959ZM104.359 147.133C103.812 147.053 103.305 147.431 103.226 147.977C103.147 148.524 103.526 149.032 104.072 149.112L104.359 147.133ZM104.366 147.134C103.958 147.071 103.571 146.914 103.243 146.674L102.064 148.288C102.664 148.727 103.355 149.001 104.064 149.111L104.366 147.134ZM103.243 146.674L88.2842 135.723L87.1057 137.337L102.064 148.288L103.243 146.674ZM88.2846 135.724C84.1159 132.669 81.0119 129.505 78.7534 126.057L77.0818 127.152C79.4983 130.841 82.7856 134.172 87.1053 137.337L88.2846 135.724ZM78.7532 126.057C73.7688 118.454 71.7398 109.375 73.043 100.489L71.0647 100.195C69.6896 109.572 71.8323 119.144 77.082 127.152L78.7532 126.057ZM73.043 100.489L77.4392 70.4331L75.4609 70.1397L71.0647 100.196L73.043 100.489ZM77.4392 70.4329C77.8823 67.3996 80.2533 64.9599 83.3599 64.3804L82.9899 62.4137C79.0708 63.1447 76.0311 66.2353 75.4608 70.1399L77.4392 70.4329ZM83.3584 64.3807L114.785 58.5679L114.417 56.6006L82.9913 62.4134L83.3584 64.3807ZM114.792 58.5665C116.435 58.2498 118.182 58.5104 119.696 59.2995L120.617 57.5257C118.711 56.5316 116.504 56.1982 114.41 56.602L114.792 58.5665ZM119.698 59.3007L148.105 74.0141L149.021 72.2378L120.614 57.5244L119.698 59.3007ZM148.106 74.0148C150.916 75.4654 152.485 78.494 152.039 81.5228L154.017 81.8184C154.591 77.9196 152.571 74.0698 149.02 72.2372L148.106 74.0148ZM152.039 81.5239L147.639 111.602L149.617 111.895L154.017 81.8174L152.039 81.5239ZM147.639 111.602C146.342 120.476 141.807 128.573 134.865 134.405L136.153 135.938C143.464 129.796 148.249 121.259 149.617 111.895L147.639 111.602ZM134.866 134.405C131.706 137.058 127.827 139.18 122.978 140.883L123.643 142.771C128.669 141.006 132.772 138.777 136.153 135.938L134.866 134.405ZM122.977 140.883L105.557 147.016L106.224 148.903L123.644 142.77L122.977 140.883ZM105.553 147.017C105.171 147.154 104.761 147.192 104.359 147.133L104.072 149.112C104.789 149.217 105.529 149.151 106.229 148.902L105.553 147.017Z" fill="url(#paint1_linear_1449_9957)" mask="url(#path-6-outside-1_1449_9957)"/>
</g>
<g filter="url(#filter2_bd_1449_9957)">
<path d="M106.063 112.835C105.19 112.705 104.367 112.255 103.793 111.503L96.4211 101.824C95.2839 100.322 95.5915 98.2174 97.1122 97.1177C98.6336 96.0137 100.793 96.3343 101.935 97.8327L107.24 104.794L124.725 92.1246C126.251 91.0212 128.41 91.3419 129.548 92.8395C130.69 94.3423 130.382 96.4516 128.862 97.5468L108.616 112.218C107.853 112.772 106.936 112.966 106.063 112.835Z" fill="url(#paint2_linear_1449_9957)"/>
<path d="M97.171 97.1988L97.1709 97.1989C95.6958 98.2655 95.3972 100.306 96.5007 101.764L103.873 111.442C104.429 112.172 105.229 112.609 106.078 112.736C106.926 112.863 107.817 112.675 108.558 112.137L108.558 112.137L128.803 97.4658L128.803 97.4656C130.277 96.4035 130.577 94.3583 129.469 92.9C128.364 91.4458 126.266 91.134 124.784 92.2057L97.171 97.1988ZM97.171 97.1988C98.6484 96.1266 100.746 96.4381 101.856 97.8932C101.856 97.8932 101.856 97.8932 101.856 97.8933L107.161 104.854L107.22 104.932L107.299 104.875L124.784 92.2057L97.171 97.1988Z" stroke="url(#paint3_linear_1449_9957)" stroke-opacity="0.5" stroke-width="0.2"/>
</g>
<defs>
<filter id="filter0_f_1449_9957" x="40.7188" y="46.6309" width="75.2969" height="72.8359" filterUnits="userSpaceOnUse" color-interpolation-filters="sRGB">
<feFlood flood-opacity="0" result="BackgroundImageFix"/>
<feBlend mode="normal" in="SourceGraphic" in2="BackgroundImageFix" result="shape"/>
<feGaussianBlur stdDeviation="8" result="effect1_foregroundBlur_1449_9957"/>
</filter>
<filter id="filter1_b_1449_9957" x="46.6582" y="32.4346" width="131.455" height="140.726" filterUnits="userSpaceOnUse" color-interpolation-filters="sRGB">
<feFlood flood-opacity="0" result="BackgroundImageFix"/>
<feGaussianBlur in="BackgroundImageFix" stdDeviation="12"/>
<feComposite in2="SourceAlpha" operator="in" result="effect1_backgroundBlur_1449_9957"/>
<feBlend mode="normal" in="SourceGraphic" in2="effect1_backgroundBlur_1449_9957" result="shape"/>
</filter>
<filter id="filter2_bd_1449_9957" x="80.7354" y="76.4688" width="64.5029" height="51.4053" filterUnits="userSpaceOnUse" color-interpolation-filters="sRGB">
<feFlood flood-opacity="0" result="BackgroundImageFix"/>
<feGaussianBlur in="BackgroundImageFix" stdDeviation="7.5"/>
<feComposite in2="SourceAlpha" operator="in" result="effect1_backgroundBlur_1449_9957"/>
<feColorMatrix in="SourceAlpha" type="matrix" values="0 0 0 0 0 0 0 0 0 0 0 0 0 0 0 0 0 0 127 0" result="hardAlpha"/>
<feOffset dx="5" dy="5"/>
<feGaussianBlur stdDeviation="5"/>
<feColorMatrix type="matrix" values="0 0 0 0 0.454902 0 0 0 0 0.870588 0 0 0 0 0.376471 0 0 0 0.5 0"/>
<feBlend mode="normal" in2="effect1_backgroundBlur_1449_9957" result="effect2_dropShadow_1449_9957"/>
<feBlend mode="normal" in="SourceGraphic" in2="effect2_dropShadow_1449_9957" result="shape"/>
</filter>
<linearGradient id="paint0_linear_1449_9957" x1="87.5099" y1="39.9997" x2="69.5475" y2="106.742" gradientUnits="userSpaceOnUse">
<stop stop-color="#9BF763"/>
<stop offset="1" stop-color="#26AB5B"/>
</linearGradient>
<linearGradient id="paint1_linear_1449_9957" x1="89.8993" y1="64.0578" x2="139.398" y2="135.126" gradientUnits="userSpaceOnUse">
<stop stop-color="white" stop-opacity="0.25"/>
<stop offset="1" stop-color="white" stop-opacity="0"/>
</linearGradient>
<linearGradient id="paint2_linear_1449_9957" x1="127.703" y1="96.0165" x2="90.6688" y2="92.0459" gradientUnits="userSpaceOnUse">
<stop stop-color="white"/>
<stop offset="1" stop-color="white" stop-opacity="0.2"/>
</linearGradient>
<linearGradient id="paint3_linear_1449_9957" x1="99.9915" y1="95.5381" x2="128.027" y2="100.039" gradientUnits="userSpaceOnUse">
<stop stop-color="white"/>
<stop offset="1" stop-color="white" stop-opacity="0"/>
</linearGradient>
</defs>
</svg>
