<svg width="27" height="72" viewBox="0 0 27 72" fill="none" xmlns="http://www.w3.org/2000/svg">
<ellipse cx="13.2187" cy="10" rx="10.9199" ry="10" fill="#1B1D21"/>
<ellipse cx="13.2189" cy="9.9996" rx="4.75995" ry="4.35897" fill="white"/>
<path fill-rule="evenodd" clip-rule="evenodd" d="M3.3916 59C3.3916 54.0294 7.7917 50 13.2195 50C18.6473 50 23.0474 54.0294 23.0474 59C23.0474 62.0264 21.0711 64.5918 18.794 66.399L15.036 69.3816C13.9935 70.209 12.4455 70.209 11.4029 69.3816L7.64495 66.399C5.36785 64.5918 3.3916 62.0264 3.3916 59ZM13.7238 55.3102C13.5373 54.8995 12.9021 54.8995 12.7156 55.3102L11.8535 57.2082C11.7754 57.3802 11.5993 57.4981 11.3967 57.5143L9.35645 57.6767C8.88829 57.714 8.68684 58.2395 9.02682 58.5366L10.5766 59.8908C10.7171 60.0136 10.7758 60.1955 10.7307 60.3686L10.2059 62.3835C10.0932 62.8161 10.6071 63.158 11.0216 62.9262L12.9351 61.8559C13.1098 61.7582 13.3296 61.7582 13.5043 61.8559L15.4178 62.9262C15.8323 63.158 16.3462 62.8161 16.2335 62.3835L15.7088 60.3692C15.6636 60.1958 15.7227 60.0136 15.8637 59.8908L17.4187 58.5373C17.7598 58.2404 17.5585 57.7139 17.0897 57.6767L15.0428 57.5142C14.8401 57.4981 14.664 57.3801 14.5858 57.2081L13.7238 55.3102Z" fill="#4FBF67"/>
<circle cx="13.127" cy="26" r="1" fill="#4FBF67"/>
<circle cx="13.127" cy="30" r="1" fill="#4FBF67"/>
<circle cx="13.127" cy="34" r="1" fill="#4FBF67"/>
<circle cx="13.127" cy="38" r="1" fill="#4FBF67"/>
<circle cx="13.127" cy="42" r="1" fill="#4FBF67"/>
</svg>
