<svg width="121" height="120" viewBox="0 0 121 120" fill="none" xmlns="http://www.w3.org/2000/svg">
<path d="M18.6176 74.8166C18.6176 74.8166 18.9344 70.6358 18.0728 66.6278C17.2112 62.6198 15.1184 59.5334 12.5528 58.3286C9.98722 57.1238 6.91282 58.7654 9.12802 61.5086C11.3432 64.2518 15.9368 69.143 15.9104 76.2926L18.6176 74.8166Z" fill="#E0E0E0"/>
<path d="M17.3 74.6705H17.3312C17.3715 74.6692 17.4097 74.6522 17.4376 74.623C17.4654 74.5938 17.4807 74.5548 17.48 74.5145C17.24 65.7593 14.3216 61.3745 10.952 59.1545C10.9186 59.1326 10.8778 59.1249 10.8387 59.133C10.7996 59.1411 10.7652 59.1644 10.7432 59.1977C10.732 59.214 10.7241 59.2324 10.72 59.2518C10.716 59.2712 10.7159 59.2912 10.7197 59.3107C10.7235 59.3301 10.7311 59.3486 10.7422 59.3651C10.7532 59.3815 10.7674 59.3956 10.784 59.4065C14.108 61.6073 16.9376 65.9009 17.1752 74.5265C17.1763 74.5612 17.1893 74.5944 17.2121 74.6206C17.2348 74.6468 17.2658 74.6645 17.3 74.6705Z" fill="white"/>
<path d="M5.57842 66.9592C5.62642 67.4392 6.01762 67.8136 6.39202 68.128C6.76642 68.4424 7.17202 68.7784 7.27282 69.2536C7.47922 70.2136 6.33922 71.1016 6.58642 72.052C6.65201 72.248 6.75694 72.4284 6.89479 72.5824C7.03263 72.7363 7.20047 72.8605 7.38802 72.9472C7.69501 73.0983 8.00986 73.2329 8.33122 73.3504C8.48892 73.3978 8.64917 73.4363 8.81122 73.4656C9.29153 73.5089 9.74434 73.7087 10.1 74.0344C10.6232 74.6032 10.5584 75.4744 10.7432 76.2328C10.9688 77.1328 11.504 77.6728 12.7304 78.0904L16.9304 75.7096C17.9768 74.644 18.3464 72.8296 17.3816 71.5792C16.8032 70.8352 15.7208 70.7416 15.1736 69.9952C14.6936 69.328 14.9672 68.3632 14.6672 67.5952C14.3672 66.8272 13.568 66.5584 12.8144 66.4264C12.0608 66.2944 11.2592 66.6064 10.5248 66.3376C9.79042 66.0688 9.10642 65.6344 8.34322 65.4448C7.97285 65.3348 7.58222 65.3109 7.2012 65.3749C6.82017 65.439 6.45884 65.5893 6.14482 65.8144C5.9627 65.9431 5.81554 66.1152 5.71664 66.3151C5.61775 66.515 5.57024 66.7363 5.57842 66.9592Z" fill="#EBEBEB"/>
<path d="M13.4072 70.7389C13.3996 70.722 13.3881 70.7072 13.3736 70.6957C11.4008 67.8973 8.30483 66.5677 7.26083 66.3349C7.24608 66.3295 7.23034 66.3273 7.21468 66.3284C7.19901 66.3296 7.18377 66.3341 7.16998 66.3416C7.15619 66.3491 7.14416 66.3595 7.13469 66.372C7.12523 66.3846 7.11856 66.399 7.11511 66.4143C7.11167 66.4297 7.11153 66.4455 7.11472 66.4609C7.11791 66.4763 7.12434 66.4908 7.13359 66.5035C7.14284 66.5162 7.15469 66.5268 7.16836 66.5346C7.18202 66.5423 7.19718 66.5471 7.21283 66.5485C8.20403 66.7693 11.0768 67.9885 13.0112 70.5661C12.2229 70.3001 11.3881 70.1999 10.5592 70.2717C9.73032 70.3436 8.92522 70.586 8.19443 70.9837C8.1701 70.9994 8.15295 71.0241 8.14666 71.0524C8.14038 71.0807 8.14546 71.1103 8.16083 71.1349C8.17089 71.1494 8.1841 71.1615 8.19947 71.1702C8.21485 71.1789 8.23199 71.1841 8.24963 71.1853C8.27198 71.186 8.29393 71.1792 8.31203 71.1661C9.061 70.7611 9.88946 70.5249 10.7394 70.4739C11.5892 70.4229 12.44 70.5584 13.232 70.8709C14.3847 72.521 14.9624 74.5046 14.876 76.5157C14.8746 76.5432 14.8838 76.5702 14.9016 76.5911C14.9195 76.6121 14.9447 76.6255 14.972 76.6285C15.0009 76.6291 15.0289 76.6184 15.05 76.5987C15.0711 76.579 15.0836 76.5517 15.0848 76.5229C15.1766 74.4629 14.587 72.43 13.4072 70.7389Z" fill="white"/>
<path d="M104.802 77.6318C104.761 74.5117 104.819 71.6318 106.403 67.2014C107.73 63.479 111.143 59.7253 113.447 59.8837C115.595 60.0325 116.07 62.6701 114.138 65.0173C112.206 67.3646 107.999 71.8549 107.739 75.0974L106.916 78.7765L104.802 77.6318Z" fill="#E0E0E0"/>
<path d="M105.754 76.8447C105.784 76.8371 105.809 76.8205 105.828 76.7972C105.847 76.7739 105.858 76.7451 105.86 76.7151C106.196 69.4575 110.25 63.4095 113.631 61.5495C113.663 61.5317 113.687 61.502 113.696 61.4669C113.706 61.4318 113.702 61.3942 113.684 61.3623C113.666 61.3305 113.636 61.3071 113.601 61.2972C113.566 61.2873 113.529 61.2917 113.497 61.3095C110.06 63.1983 105.925 69.3447 105.577 76.7031C105.576 76.7211 105.578 76.7391 105.584 76.7561C105.59 76.773 105.6 76.7886 105.612 76.802C105.624 76.8154 105.638 76.8263 105.655 76.834C105.671 76.8417 105.688 76.8462 105.706 76.8471L105.754 76.8447Z" fill="white"/>
<path d="M107.708 79.2162C107.84 78.1218 108.843 76.1898 110.682 74.4306C112.717 72.4866 115.496 71.2986 115.962 69.9618C116.528 68.3586 115.11 67.5018 112.765 68.0034C109.945 68.6058 106.82 71.8314 106.285 78.4218L107.708 79.2162Z" fill="#EBEBEB"/>
<path d="M107.077 78.1906C107.103 78.1846 107.126 78.1711 107.145 78.152C107.163 78.1328 107.175 78.1087 107.18 78.0826C108.258 72.3226 112.107 69.7474 113.994 69.1882C114.028 69.1777 114.057 69.1538 114.075 69.1219C114.092 69.0899 114.095 69.0525 114.085 69.0178C114.08 69.0003 114.072 68.9838 114.061 68.9695C114.05 68.9552 114.036 68.9433 114.02 68.9346C114.004 68.9258 113.986 68.9204 113.968 68.9186C113.95 68.9168 113.932 68.9187 113.914 68.9242C111.831 69.541 108.01 72.1522 106.909 78.0298C106.905 78.0476 106.906 78.066 106.909 78.0838C106.913 78.1015 106.92 78.1184 106.93 78.1334C106.941 78.1483 106.954 78.1611 106.969 78.1709C106.984 78.1808 107.001 78.1875 107.019 78.1906C107.038 78.1954 107.058 78.1954 107.077 78.1906Z" fill="white"/>
<path d="M22.9904 109.628C2.59043 97.8511 2.59043 78.7543 22.9904 66.9751C43.3904 55.1959 76.4672 55.1983 96.8672 66.9751C117.267 78.7519 117.267 97.8511 96.8672 109.628C76.4672 121.405 43.3904 121.407 22.9904 109.628Z" fill="#FAFAFA"/>
<path d="M63.14 100.94L68.7247 97.7142C68.7609 97.7019 68.7923 97.6787 68.8146 97.6477C68.8368 97.6167 68.8488 97.5795 68.8488 97.5414C68.8488 97.5032 68.8368 97.466 68.8146 97.435C68.7923 97.404 68.7609 97.3808 68.7247 97.3686L67.3568 96.579C67.2639 96.5316 67.161 96.5068 67.0568 96.5068C66.9525 96.5068 66.8497 96.5316 66.7568 96.579L61.172 99.8046C61.1358 99.8168 61.1044 99.84 61.0822 99.871C61.0599 99.902 61.0479 99.9392 61.0479 99.9774C61.0479 100.016 61.0599 100.053 61.0822 100.084C61.1044 100.115 61.1358 100.138 61.172 100.15L61.856 100.544L54.8432 104.593C54.6776 104.689 54.7472 104.72 54.824 104.765C54.9008 104.811 54.9584 104.849 55.124 104.765L62.1344 100.719L62.5375 100.959C62.6323 101.004 62.7363 101.025 62.8411 101.022C62.9458 101.019 63.0483 100.991 63.14 100.94Z" fill="#E0E0E0"/>
<path d="M61.0304 94.7504C60.5945 94.7594 60.1636 94.6552 59.78 94.448L59.6672 94.376L59.4608 94.2296L61.22 93.9728L61.3784 93.6416L60.8984 93.3632L59.2184 93.6032L59.2736 93.4448C59.3742 93.2051 59.5572 93.0093 59.7896 92.8928C60.1676 92.6922 60.5905 92.5915 61.0184 92.6C61.2077 92.5992 61.3965 92.6169 61.5824 92.6528L67.3136 89.3456C67.2443 89.2014 67.2273 89.0377 67.2656 88.8824C67.308 88.7492 67.3771 88.626 67.4688 88.5203C67.5604 88.4147 67.6725 88.3289 67.7984 88.268C68.1776 88.0682 68.6011 87.9675 69.0296 87.9752C69.4659 87.9658 69.897 88.0709 70.28 88.28C70.3188 88.302 70.3564 88.3261 70.3928 88.352L70.5992 88.496L68.84 88.7528L68.6816 89.0864L69.1616 89.3648L70.8416 89.1248L70.7864 89.2808C70.6858 89.5211 70.5029 89.7177 70.2704 89.8352C69.8919 90.0346 69.4693 90.1353 69.0416 90.128C68.8522 90.1279 68.6633 90.1094 68.4776 90.0728L62.7464 93.3824C62.8155 93.5257 62.8325 93.6887 62.7944 93.8432C62.7522 93.9765 62.6832 94.0998 62.5915 94.2055C62.4999 94.3112 62.3876 94.397 62.2616 94.4576C61.8828 94.6584 61.459 94.7592 61.0304 94.7504Z" fill="#E0E0E0"/>
<path d="M36.8792 107.237C46.9913 107.237 55.1888 102.504 55.1888 96.6648C55.1888 90.826 46.9913 86.0928 36.8792 86.0928C26.7671 86.0928 18.5696 90.826 18.5696 96.6648C18.5696 102.504 26.7671 107.237 36.8792 107.237Z" fill="#E0E0E0"/>
<path d="M66.8431 97.2721L91.1407 83.2441L104.715 91.0801L80.4175 105.108L66.8431 97.2721Z" fill="#E0E0E0"/>
<path d="M60.5744 89.098L51.0968 83.626C50.7536 83.4292 50.7536 83.1052 51.0968 82.906L66.4232 74.0596C66.6165 73.9614 66.8303 73.9102 67.0472 73.9102C67.264 73.9102 67.4778 73.9614 67.6712 74.0596L77.1488 79.5292C77.492 79.7284 77.492 80.0524 77.1488 80.2492L61.8224 89.098C61.629 89.1962 61.4152 89.2474 61.1984 89.2474C60.9815 89.2474 60.7677 89.1962 60.5744 89.098Z" fill="#E0E0E0"/>
<path d="M59.8736 92.8226C59.7416 92.897 59.4944 92.8945 59.4152 92.9833V93.3074L60.9224 93.0889L61.4912 93.4226L61.2752 93.8761L59.7536 93.773V94.097C59.7858 94.1213 59.8195 94.1437 59.8544 94.1642C60.2145 94.3464 60.6124 94.4413 61.016 94.4413C61.4195 94.4413 61.8175 94.3464 62.1776 94.1642C62.3103 94.1046 62.4247 94.0106 62.5091 93.8921C62.5935 93.7736 62.6447 93.6347 62.6576 93.4898V93.1658L62.5688 93.1802C62.568 93.1746 62.568 93.1689 62.5688 93.1633L68.2712 89.8705C68.8509 89.9991 69.4573 89.9228 69.9872 89.6546C70.1922 89.5541 70.3547 89.384 70.4456 89.1746V88.8482L68.9384 89.393L68.3696 89.0593L68.5856 88.6058L70.1072 88.3849V88.0586C70.1072 88.0586 68.3288 87.941 67.6808 88.2986C67.5166 88.3848 67.3782 88.5132 67.28 88.6705L67.1936 88.6393V88.961C67.1926 89.0809 67.2268 89.1986 67.292 89.2993L61.5896 92.5921C61.0081 92.468 60.4016 92.5494 59.8736 92.8226Z" fill="#37474F"/>
<path d="M68.2711 89.8806V89.5566L62.5687 92.8494V93.1734L68.2711 89.8806Z" fill="#37474F"/>
<path d="M67.292 88.9899L61.5896 92.2827C61.01 92.1544 60.404 92.2298 59.8736 92.4963C59.6686 92.5967 59.506 92.7669 59.4152 92.9763L60.9224 92.7579L61.4912 93.0915L61.2752 93.5427L59.7536 93.7659C59.7858 93.7902 59.8195 93.8126 59.8544 93.8331C60.2145 94.0153 60.6124 94.1102 61.016 94.1102C61.4195 94.1102 61.8175 94.0153 62.1776 93.8331C62.6576 93.5643 62.7824 93.1707 62.5688 92.8323L68.2712 89.5395C68.851 89.6668 69.457 89.5906 69.9872 89.3235C70.1922 89.2231 70.3547 89.0529 70.4456 88.8435L68.9384 89.0643L68.3696 88.7307L68.5856 88.2771L70.1072 88.0539L70.0064 87.9891C69.6463 87.8069 69.2483 87.7119 68.8448 87.7119C68.4412 87.7119 68.0433 87.8069 67.6832 87.9891C67.22 88.2579 67.0784 88.6515 67.292 88.9899Z" fill="#455A64"/>
<path d="M68.4896 88.8099L68.3696 88.7403L68.5856 88.2867L70.1072 88.0635V88.3899L68.5856 88.6107L68.4896 88.8099Z" fill="#263238"/>
<path d="M61.3712 93.3507L61.4912 93.0987L60.9224 92.7627L59.4152 92.9835V93.3099L60.9224 93.0891L61.3712 93.3507Z" fill="#263238"/>
<path d="M63.3632 97.6127L64.5632 99.6767L68.5856 97.3559C68.6787 97.2982 68.7534 97.2152 68.801 97.1166C68.8486 97.018 68.8671 96.9078 68.8544 96.7991C68.8386 96.5061 68.7539 96.221 68.6071 95.967C68.4603 95.713 68.2555 95.4973 68.0096 95.3375C67.9246 95.2755 67.8245 95.2375 67.7198 95.2273C67.6151 95.2172 67.5097 95.2353 67.4144 95.2799L63.3632 97.6127Z" fill="#BA68C8"/>
<path d="M63.1231 98.0399C63.1063 98.3543 62.6624 98.4215 62.6624 98.4215L63.5047 99.8831C63.5047 99.8831 63.7855 99.5375 64.0663 99.6743C64.4815 99.8543 64.8056 99.6311 64.8056 99.1343C64.7894 98.8418 64.7045 98.5572 64.5577 98.3036C64.411 98.0501 64.2064 97.8347 63.9608 97.6751C63.5288 97.4231 63.1735 97.5911 63.1231 98.0399Z" fill="#BA68C8"/>
<path opacity="0.05" d="M63.1231 98.0399C63.1063 98.3543 62.6624 98.4215 62.6624 98.4215L63.5047 99.8831C63.5047 99.8831 63.7855 99.5375 64.0663 99.6743C64.4815 99.8543 64.8056 99.6311 64.8056 99.1343C64.7894 98.8418 64.7045 98.5572 64.5577 98.3036C64.411 98.0501 64.2064 97.8347 63.9608 97.6751C63.5288 97.4231 63.1735 97.5911 63.1231 98.0399Z" fill="black"/>
<path opacity="0.05" d="M62.8616 98.3594C62.7973 98.3885 62.7296 98.4094 62.66 98.4218L63.5024 99.8834C63.549 99.8305 63.6013 99.783 63.6584 99.7418C63.6344 99.4672 63.5506 99.2012 63.413 98.9624C63.2753 98.7236 63.0872 98.5178 62.8616 98.3594Z" fill="black"/>
<path d="M61.7816 98.5246L61.8512 98.647C61.8272 98.7321 61.8151 98.8201 61.8152 98.9086C61.8313 99.2014 61.9162 99.4864 62.063 99.7403C62.2098 99.9942 62.4143 100.21 62.66 100.37C62.7346 100.415 62.8155 100.448 62.9 100.469L62.9696 100.591L63.2504 100.43C63.3353 100.368 63.4022 100.285 63.4444 100.189C63.4866 100.093 63.5024 99.9873 63.4904 99.883C63.4747 99.5903 63.3903 99.3054 63.2439 99.0515C63.0976 98.7975 62.8934 98.5817 62.648 98.4214C62.5626 98.3594 62.4621 98.3215 62.3571 98.3113C62.252 98.3012 62.1461 98.3193 62.0504 98.3638L61.7816 98.5246Z" fill="#BA68C8"/>
<path d="M63.2215 100.047C63.2058 99.7538 63.1214 99.469 62.975 99.215C62.8287 98.9611 62.6245 98.7452 62.3791 98.5849C61.9135 98.3161 61.5343 98.5345 61.5343 99.0649C61.5508 99.3577 61.6359 99.6425 61.7826 99.8964C61.9293 100.15 62.1337 100.366 62.3791 100.527C62.8447 100.8 63.2215 100.584 63.2215 100.047Z" fill="#BA68C8"/>
<path opacity="0.15" d="M63.2215 100.047C63.2058 99.7538 63.1214 99.469 62.975 99.215C62.8287 98.9611 62.6245 98.7452 62.3791 98.5849C61.9135 98.3161 61.5343 98.5345 61.5343 99.0649C61.5508 99.3577 61.6359 99.6425 61.7826 99.8964C61.9293 100.15 62.1337 100.366 62.3791 100.527C62.8447 100.8 63.2215 100.584 63.2215 100.047Z" fill="black"/>
<path opacity="0.15" d="M62.0503 100.264C62.1128 100.334 62.1828 100.397 62.2591 100.452L62.4559 99.89L62.2159 99.7148L62.0503 100.264Z" fill="black"/>
<path opacity="0.2" d="M68.1584 96.2209C68.1869 96.2748 68.1939 96.3376 68.1778 96.3964C68.1618 96.4552 68.1239 96.5058 68.072 96.5377L65.192 98.1961C65.1381 98.2256 65.075 98.2333 65.0156 98.2177C64.9563 98.2021 64.9051 98.1643 64.8728 98.1121C64.8442 98.0582 64.8373 97.9955 64.8533 97.9366C64.8694 97.8778 64.9072 97.8273 64.9592 97.7953L67.8392 96.1369C67.893 96.1074 67.9561 96.0997 68.0155 96.1153C68.0749 96.1309 68.126 96.1687 68.1584 96.2209Z" fill="black"/>
<path opacity="0.2" d="M67.64 95.6041C67.6622 95.6153 67.6808 95.6324 67.6939 95.6536C67.7069 95.6748 67.7138 95.6992 67.7138 95.7241C67.7138 95.749 67.7069 95.7733 67.6939 95.7945C67.6808 95.8157 67.6622 95.8329 67.64 95.8441L64.712 97.5241C64.6577 97.5503 64.5971 97.5606 64.5372 97.5538C64.4773 97.547 64.4206 97.5234 64.3736 97.4857C64.3513 97.4745 64.3327 97.4573 64.3196 97.4361C64.3066 97.4149 64.2997 97.3906 64.2997 97.3657C64.2997 97.3408 64.3066 97.3164 64.3196 97.2952C64.3327 97.274 64.3513 97.2569 64.3736 97.2457L67.2992 95.5657C67.3537 95.539 67.4148 95.5284 67.4752 95.5352C67.5355 95.542 67.5927 95.5659 67.64 95.6041Z" fill="black"/>
<path opacity="0.2" d="M68.4344 96.9791C68.4336 96.9549 68.4264 96.9313 68.4135 96.9108C68.4007 96.8902 68.3825 96.8735 68.361 96.8622C68.3396 96.851 68.3155 96.8457 68.2912 96.8468C68.267 96.848 68.2435 96.8555 68.2232 96.8687L65.2952 98.5487C65.2455 98.5827 65.2063 98.63 65.1821 98.6851C65.1579 98.7403 65.1497 98.8011 65.1584 98.8607C65.1592 98.885 65.1664 98.9086 65.1793 98.9291C65.1922 98.9496 65.2103 98.9664 65.2318 98.9776C65.2533 98.9888 65.2773 98.9942 65.3016 98.993C65.3258 98.9919 65.3493 98.9843 65.3696 98.9711L68.2976 97.2911C68.3471 97.257 68.3862 97.2097 68.4103 97.1546C68.4345 97.0995 68.4428 97.0387 68.4344 96.9791Z" fill="black"/>
<path d="M54.98 103.452V104.013L56.3864 103.557C56.5252 103.295 56.7163 103.064 56.948 102.878L62.2904 99.794L62.4536 99.326L62.2904 99.2324L56.948 102.316C56.8599 102.361 56.7616 102.382 56.663 102.376C56.5644 102.371 56.469 102.339 56.3864 102.285L54.98 103.452Z" fill="#455A64"/>
<path d="M55.1455 103.548V104.109L56.5519 103.653C56.6901 103.391 56.8813 103.159 57.1135 102.974L62.4559 99.8902V99.3262L57.1135 102.41C57.0257 102.455 56.9275 102.477 56.8288 102.472C56.7302 102.466 56.6346 102.435 56.5519 102.381L55.1455 103.548Z" fill="#37474F"/>
<path d="M55.1456 104.11L54.9824 104.014V103.452L55.1456 103.548V104.11Z" fill="#263238"/>
<path d="M54.9824 103.452L55.1456 103.548L56.552 102.381L56.3888 102.285L54.9824 103.452Z" fill="#455A64"/>
<path d="M75.0032 31.1852H62.6336C62.5859 31.1852 62.5401 31.1662 62.5063 31.1325C62.4726 31.0987 62.4536 31.0529 62.4536 31.0052C62.4536 30.9575 62.4726 30.9117 62.5063 30.8779C62.5401 30.8442 62.5859 30.8252 62.6336 30.8252H75.0032C75.0509 30.8252 75.0967 30.8442 75.1305 30.8779C75.1642 30.9117 75.1832 30.9575 75.1832 31.0052C75.1832 31.0529 75.1642 31.0987 75.1305 31.1325C75.0967 31.1662 75.0509 31.1852 75.0032 31.1852Z" fill="#37474F"/>
<path d="M46.58 39.1847C45.392 36.9167 43.4744 32.0159 43.4744 32.0159L43.5152 25.4375C43.4672 25.4375 44.4032 25.7207 44.6888 25.7879C46.5416 26.4719 47.0528 26.7983 47.8472 28.4279C48.4784 29.7263 50.6048 35.6471 51.3608 37.6511L55.8848 34.4327C57.0248 33.4727 57.2912 32.1047 57.9872 31.2527C58.6832 30.4007 59.4728 30.1655 60.26 29.4431C61.0472 28.7207 61.3448 28.1831 61.6472 28.7615C61.9496 29.3399 61.0904 30.4031 60.9416 30.6599C60.8384 30.8423 60.5768 30.9767 60.5168 31.1807C60.4184 31.5311 60.9392 31.4759 61.1624 31.4207C62.2664 31.1807 63.2696 30.2495 63.9512 29.3975C64.2176 29.0639 65.1896 27.7679 65.4368 28.8143C65.6384 29.6663 64.9376 30.2111 64.8872 30.9959C64.8627 31.4307 64.7483 31.8556 64.5512 32.2439C64.3856 32.5991 64.4624 33.0119 64.3448 33.3839C63.9824 34.5407 63.0632 34.9367 61.9952 35.3039C60.9272 35.6711 59.7728 35.9231 58.8872 36.6047C57.812 37.4351 55.2128 40.2335 53.6312 41.9159C51.6224 44.0543 50.2976 44.5559 49.1216 43.2959C47.9456 42.0359 47.0288 40.0247 46.58 39.1847Z" fill="#FFA8A7"/>
<path d="M65.444 28.826C65.204 27.7796 64.2248 29.066 63.9584 29.4092C63.2768 30.2612 62.2784 31.1924 61.1696 31.4324C60.9464 31.4804 60.4256 31.5356 60.524 31.1924C60.584 30.9884 60.8456 30.854 60.9488 30.6716C61.0976 30.4148 61.9568 29.3492 61.6544 28.7732C61.352 28.1972 61.0568 28.7301 60.2672 29.4549C59.4776 30.1797 58.6904 30.4149 57.9944 31.2645C57.2984 32.1141 57.0344 33.4869 55.892 34.4445L55.5824 34.6652C55.7696 35.93 56.5424 37.1685 57.6632 37.7373C58.1576 37.2573 58.5896 36.8565 58.8944 36.6188C59.78 35.9372 60.9632 35.6589 62.0024 35.318C63.0416 34.9773 63.9896 34.5596 64.352 33.3981C64.4696 33.0261 64.3928 32.6133 64.5584 32.2581C64.7556 31.8698 64.87 31.4448 64.8944 31.0101C64.9448 30.2229 65.6456 29.678 65.444 28.826Z" fill="#455A64"/>
<path d="M56.1247 34.2236C56.1031 34.6412 56.3359 35.7548 56.8663 36.3476C57.2271 36.7296 57.6625 37.0335 58.1455 37.2404L58.3375 37.0916C58.3375 37.0916 58.5199 37.1108 58.0303 37.6028C57.5407 38.0948 57.4255 38.2772 57.1519 38.2364C56.8783 38.1956 56.1055 37.7564 55.5823 36.9428C55.2017 36.3702 54.976 35.7087 54.9271 35.0228C54.9415 34.7828 55.2775 34.61 55.5823 34.3892C55.8871 34.1684 56.2039 33.8012 56.3743 33.9476L56.1247 34.2236Z" fill="#BA68C8"/>
<path opacity="0.2" d="M56.1247 34.2236C56.1031 34.6412 56.3359 35.7548 56.8663 36.3476C57.2271 36.7296 57.6625 37.0335 58.1455 37.2404L58.3375 37.0916C58.3375 37.0916 58.5199 37.1108 58.0303 37.6028C57.5407 38.0948 57.4255 38.2772 57.1519 38.2364C56.8783 38.1956 56.1055 37.7564 55.5823 36.9428C55.2017 36.3702 54.976 35.7087 54.9271 35.0228C54.9415 34.7828 55.2775 34.61 55.5823 34.3892C55.8871 34.1684 56.2039 33.8012 56.3743 33.9476L56.1247 34.2236Z" fill="black"/>
<path d="M44.0983 25.5459C45.3103 25.8267 46.2583 26.2851 46.8343 26.7747C47.7223 27.5427 48.1279 28.7403 48.7327 30.3747C49.3375 32.0091 50.8927 35.9907 50.8927 35.9907C49.0926 36.5637 47.559 37.7658 46.5727 39.3771L42.4543 30.8067L44.0983 25.5459Z" fill="#E0E0E0"/>
<path d="M51.3799 37.6557C50.5811 38.0582 49.9337 38.7081 49.5343 39.5085C49.5343 39.5085 49.5343 38.1861 51.2143 37.1973L51.3799 37.6557Z" fill="#F28F8F"/>
<path d="M30.1687 26.2373C30.1687 26.2373 28.7599 27.4757 28.3999 28.8149C28.2247 29.4725 28.0615 30.0149 28.6183 33.6725C29.1487 37.1597 29.5255 37.1597 29.7967 39.8189L29.4079 46.4741C31.4935 48.9173 41.2327 50.1605 46.1047 46.8701C46.1047 46.8701 46.3159 36.7661 45.9727 32.6045C45.7327 29.7749 44.5447 26.8733 44.0983 25.5461C42.7735 25.3061 41.4991 25.1621 41.4991 25.1621L36.6271 24.8789L30.1687 26.2373Z" fill="#FAFAFA"/>
<path d="M43.7937 16.2622C44.4321 14.7934 43.8057 12.8446 43.0401 11.9302C41.9337 10.6078 40.2129 10.0366 37.6161 10.1974C35.6433 10.3198 33.7017 11.1406 33.3321 13.1662C31.7481 13.6462 31.9281 16.243 32.3217 17.3926C33.1233 19.7254 34.6977 21.7534 34.7217 22.9462L43.7937 16.2622Z" fill="#37474F"/>
<path d="M43.7913 21.7461C43.4793 22.8717 42.8313 23.6973 41.7873 23.8605C41.2405 23.912 40.6901 23.912 40.1433 23.8605L40.1841 25.3005C42.3441 28.0341 37.2897 28.5885 34.7937 25.5933L34.6449 20.7525C34.6449 20.7525 34.0089 21.4725 32.9649 20.7909C32.5402 20.4776 32.2367 20.0274 32.1055 19.5162C31.9743 19.0051 32.0236 18.4643 32.2449 17.9853C32.7657 16.8885 33.8073 17.3421 34.1289 17.6757C34.4505 18.0093 34.8225 18.6357 35.0889 18.5493C35.2428 18.5014 35.3823 18.416 35.495 18.3008C35.6077 18.1856 35.69 18.0442 35.7345 17.8893C35.9768 17.2064 36.0915 16.4848 36.0729 15.7605C36.3813 15.6029 36.6579 15.3897 36.8889 15.1317C37.3104 14.6883 37.5649 14.1123 37.6089 13.5021C39.8577 12.7989 42.4449 13.1301 43.3689 13.8549C43.9065 14.8029 43.9281 17.0061 44.0169 18.2757C44.1153 19.6557 44.0529 20.8053 43.7913 21.7461Z" fill="#FFA8A7"/>
<path d="M40.1432 23.8676C38.9912 23.8028 36.6752 23.2652 36.0632 22.6244C35.4512 21.9836 35.1848 20.666 35.1848 20.666C35.1848 20.666 35.276 22.3268 35.7536 23.066C36.2312 23.8052 37.4336 24.1196 38.1536 24.302C38.8155 24.4396 39.4846 24.5405 40.1576 24.6044L40.1432 23.8676Z" fill="#F28F8F"/>
<path d="M39.4136 17.5412C39.4137 17.6657 39.3654 17.7853 39.279 17.8748C39.1926 17.9644 39.0748 18.0169 38.9504 18.0212C38.8548 18.0246 38.7604 17.9993 38.6793 17.9486C38.5982 17.898 38.5341 17.8242 38.4952 17.7369C38.4562 17.6495 38.4443 17.5525 38.4609 17.4583C38.4775 17.3641 38.5218 17.277 38.5882 17.2082C38.6546 17.1394 38.7401 17.092 38.8336 17.0721C38.9272 17.0521 39.0245 17.0606 39.1132 17.0964C39.2019 17.1322 39.2779 17.1936 39.3314 17.2729C39.3849 17.3522 39.4136 17.4456 39.4136 17.5412Z" fill="#263238"/>
<path d="M38.7633 16.0535L37.8201 16.6895C37.7371 16.5596 37.7075 16.4027 37.7375 16.2516C37.7674 16.1004 37.8546 15.9667 37.9809 15.8783C38.0432 15.8367 38.1134 15.8082 38.187 15.7945C38.2607 15.7808 38.3364 15.7822 38.4095 15.7986C38.4827 15.8149 38.5517 15.846 38.6125 15.8898C38.6733 15.9336 38.7246 15.9893 38.7633 16.0535Z" fill="#263238"/>
<path d="M43.3401 16.3509L42.3057 15.8565C42.3344 15.7876 42.377 15.7252 42.4307 15.6732C42.4843 15.6213 42.5481 15.5808 42.6179 15.5543C42.6878 15.5278 42.7623 15.5158 42.837 15.5191C42.9116 15.5224 42.9848 15.5408 43.0521 15.5733C43.1901 15.6418 43.2968 15.7605 43.3503 15.905C43.4038 16.0495 43.4002 16.209 43.3401 16.3509Z" fill="#263238"/>
<path d="M42.98 17.3755C42.9772 17.4669 42.9475 17.5555 42.8947 17.6301C42.8418 17.7048 42.7682 17.7622 42.6829 17.7953C42.5976 17.8283 42.5045 17.8355 42.4151 17.8159C42.3258 17.7964 42.2442 17.7509 42.1805 17.6853C42.1168 17.6196 42.0739 17.5367 42.057 17.4468C42.0402 17.3569 42.0502 17.264 42.0858 17.1798C42.1215 17.0955 42.1811 17.0236 42.2573 16.9731C42.3336 16.9225 42.423 16.8956 42.5144 16.8955C42.6392 16.8993 42.7577 16.9515 42.8446 17.0411C42.9315 17.1307 42.9801 17.2507 42.98 17.3755Z" fill="#263238"/>
<path d="M40.4841 16.541L40.8201 19.8866L42.6177 19.3442L40.4841 16.541Z" fill="#F28F8F"/>
<path d="M39.4112 20.666L41.3312 21.0932C41.3101 21.2223 41.2629 21.3457 41.1925 21.4559C41.1221 21.566 41.0298 21.6606 40.9215 21.7339C40.8132 21.8072 40.6911 21.8575 40.5626 21.8819C40.4341 21.9063 40.302 21.9041 40.1744 21.8756C39.9162 21.8106 39.6929 21.6487 39.5508 21.4235C39.4087 21.1983 39.3587 20.9271 39.4112 20.666Z" fill="#B16668"/>
<path d="M40.1817 21.8758C40.2214 21.8828 40.2615 21.8876 40.3017 21.8902C40.2967 21.6563 40.2001 21.4338 40.0326 21.2704C39.8652 21.1071 39.6404 21.0159 39.4065 21.0166C39.4335 21.2215 39.522 21.4133 39.6605 21.5668C39.7989 21.7202 39.9807 21.828 40.1817 21.8758Z" fill="#F28F8F"/>
<path d="M31.94 16.0537C31.9995 16.6401 32.1434 17.2149 32.3672 17.7601C32.4944 17.5993 32.6408 17.4409 32.7896 17.2801C33.6582 16.4284 34.6706 15.7369 35.78 15.2377C38.3456 14.0377 41.4872 13.6345 44.0024 14.3329C43.9102 13.8345 43.7528 13.3503 43.5344 12.8929C42.932 11.5824 41.8841 10.5282 40.5773 9.91786C39.2704 9.30756 37.7894 9.18081 36.3978 9.56017C35.0063 9.93953 33.7945 10.8004 32.9782 11.9895C32.1618 13.1786 31.794 14.6188 31.94 16.0537Z" fill="#BA68C8"/>
<path d="M34.5799 9.99104C34.8847 9.84224 36.4183 9.38384 36.5431 9.34544C37.3375 9.10544 38.6167 9.11984 39.9295 10.1998C40.9547 11.0555 41.6754 12.2199 41.9839 13.519L40.3519 14.0302L39.8311 14.0806C39.6391 12.8806 38.0575 10.2958 35.8351 10.1998C35.7312 10.1927 35.627 10.1927 35.5231 10.1998C35.2287 10.2146 34.9383 10.2736 34.6615 10.375C34.3595 10.5863 34.0717 10.8172 33.7999 11.0662C33.8272 10.8353 33.9133 10.6152 34.0498 10.427C34.1864 10.2388 34.3689 10.0887 34.5799 9.99104Z" fill="#BA68C8"/>
<path opacity="0.45" d="M34.5799 9.99104C34.8847 9.84224 36.4183 9.38384 36.5431 9.34544C37.3375 9.10544 38.6167 9.11984 39.9295 10.1998C40.9547 11.0555 41.6754 12.2199 41.9839 13.519L40.3519 14.0302L39.8311 14.0806C39.6391 12.8806 38.0575 10.2958 35.8351 10.1998C35.7312 10.1927 35.627 10.1927 35.5231 10.1998C35.2287 10.2146 34.9383 10.2736 34.6615 10.375C34.3595 10.5863 34.0717 10.8172 33.7999 11.0662C33.8272 10.8353 33.9133 10.6152 34.0498 10.427C34.1864 10.2388 34.3689 10.0887 34.5799 9.99104Z" fill="white"/>
<path d="M39.836 14.0832C39.596 12.6864 37.4792 9.38163 34.6664 10.3776C34.3635 10.5888 34.0749 10.8197 33.8024 11.0688C33.8297 10.8379 33.9155 10.6178 34.0515 10.4293C34.1876 10.2407 34.3695 10.09 34.58 9.99123C35.312 9.63843 36.7808 9.46563 38.3 10.7112C39.3242 11.5662 40.0441 12.7298 40.352 14.028L39.836 14.0832Z" fill="#BA68C8"/>
<path opacity="0.3" d="M39.836 14.0832C39.596 12.6864 37.4792 9.38163 34.6664 10.3776C34.3635 10.5888 34.0749 10.8197 33.8024 11.0688C33.8297 10.8379 33.9155 10.6178 34.0515 10.4293C34.1876 10.2407 34.3695 10.09 34.58 9.99123C35.312 9.63843 36.7808 9.46563 38.3 10.7112C39.3242 11.5662 40.0441 12.7298 40.352 14.028L39.836 14.0832Z" fill="black"/>
<path d="M35.7344 14.7571C35.852 14.6539 36.4208 13.4299 38.4464 12.3571C39.6968 11.6899 42.26 11.6563 43.4096 11.6755C45.4232 11.7091 45.9032 12.1363 45.9296 12.4339C45.9296 12.5035 45.9632 12.8299 45.9728 12.9019C45.982 12.969 45.9667 13.0372 45.9296 13.0939C45.6296 13.5499 44.0096 14.3419 44.0096 14.3419C41.4944 13.6435 38.3528 14.0467 35.7872 15.2467L35.7344 14.7571Z" fill="#BA68C8"/>
<path opacity="0.15" d="M35.7344 14.7571C35.852 14.6539 36.4208 13.4299 38.4464 12.3571C39.6968 11.6899 42.26 11.6563 43.4096 11.6755C45.4232 11.7091 45.9032 12.1363 45.9296 12.4339C45.9296 12.5035 45.9632 12.8299 45.9728 12.9019C45.982 12.969 45.9667 13.0372 45.9296 13.0939C45.6296 13.5499 44.0096 14.3419 44.0096 14.3419C41.4944 13.6435 38.3528 14.0467 35.7872 15.2467L35.7344 14.7571Z" fill="black"/>
<path d="M35.78 15.2374C38.3456 14.0374 41.4872 13.6342 44.0024 14.3326C44.0024 14.3326 45.6296 13.5406 45.9224 13.0846C46.0856 12.8326 45.9392 12.187 43.4504 12.1462C42.2984 12.127 39.7352 12.1606 38.4848 12.8278C36.4664 13.9198 35.8976 15.1342 35.78 15.2374Z" fill="#BA68C8"/>
<path opacity="0.3" d="M35.78 15.2374C38.3456 14.0374 41.4872 13.6342 44.0024 14.3326C44.0024 14.3326 45.6296 13.5406 45.9224 13.0846C46.0856 12.8326 45.9392 12.187 43.4504 12.1462C42.2984 12.127 39.7352 12.1606 38.4848 12.8278C36.4664 13.9198 35.8976 15.1342 35.78 15.2374Z" fill="black"/>
<path d="M43.5296 88.7848C43.6064 87.5104 44.2904 74.6729 44.2904 74.6729L38.0504 79.072C39.1376 86.4112 39.3776 88.624 39.4232 89.848C39.3975 89.9507 39.3878 90.0568 39.3944 90.1624C39.428 91.6168 41.1704 92.3752 42.536 93.3256C43.7001 94.1646 44.9334 94.9033 46.2224 95.5336C47.2088 95.9872 49.196 96.0016 49.4312 95.3992C47.7704 94.2328 45.848 92.9608 44.5184 91.6217C43.892 90.9809 43.436 90.3112 43.5296 88.7848Z" fill="#FFA8A7"/>
<path d="M52.2632 96.926C52.3472 96.926 52.4912 97.802 52.04 98.1836C51.5216 98.6228 49.988 99.3548 47.9408 99.1316C45.8936 98.9084 44.7752 98.3252 43.9448 97.6916C43.1144 97.058 41.9504 96.1508 41.0216 95.9708C40.16 95.8028 39.2216 95.4452 38.9408 95.198C38.66 94.9508 38.6792 93.8252 38.6792 93.8252L52.2632 96.926Z" fill="#263238"/>
<path d="M45.8793 92.1045C45.7449 91.9797 45.6153 91.8645 45.4881 91.7253C45.0593 91.2583 44.7273 90.711 44.5113 90.115C44.3787 89.8303 44.2757 89.5327 44.2041 89.2269C44.1393 88.8741 44.0985 88.5069 44.0385 88.1637C44.0169 88.0317 44.0385 87.7413 43.8753 87.6837C43.6851 87.6624 43.4929 87.6983 43.3233 87.7869C42.9081 87.9645 42.4737 88.1013 42.0465 88.2525C41.8065 88.3365 41.3145 88.4661 41.2425 88.7325C41.1705 88.9989 41.2905 89.3301 41.2425 89.6181C41.2209 89.7309 41.1729 89.8581 41.0409 89.8437C40.8009 89.8437 40.7409 89.4981 40.6785 89.3301C40.5441 88.9773 40.4385 88.8117 40.0569 88.7085C39.8577 88.6533 39.4689 88.627 39.3369 88.4494L39.2865 87.9694C39.1774 87.9914 39.0749 88.0384 38.987 88.1067C38.8991 88.1749 38.8283 88.2627 38.7801 88.3629C38.6145 88.7061 38.7249 89.1837 38.7801 89.5485C38.8477 89.9109 38.8783 90.2792 38.8713 90.6478C38.8423 90.9628 38.7918 91.2756 38.7201 91.5837C38.6182 92.1217 38.5675 92.6682 38.5689 93.2157C38.564 93.4698 38.5833 93.7237 38.6265 93.9741C38.6642 94.1814 38.7791 94.3666 38.9481 94.4925C39.2054 94.7193 39.5024 94.8967 39.8241 95.0157C40.2633 95.1909 40.7169 95.3253 41.1633 95.4813C42.0825 95.7981 43.1529 96.4653 44.0937 97.1781C45.0345 97.8909 47.0961 98.6397 48.4281 98.6397C50.4633 98.6397 51.8841 97.9677 52.2681 97.2669C52.3041 96.7869 52.3329 96.3069 52.1145 95.9661C51.3945 94.8669 49.8177 94.5117 48.5481 93.9069C47.9956 93.6281 47.4617 93.3138 46.9497 92.9661C46.5694 92.7093 46.2114 92.4211 45.8793 92.1045Z" fill="#37474F"/>
<path d="M49.3352 94.2373C46.8416 94.9429 45.9752 96.6253 45.608 97.9861C46.5023 98.3679 47.457 98.5889 48.428 98.6389C50.4632 98.6389 51.884 97.9669 52.268 97.2661C52.304 96.7861 52.3328 96.3061 52.1144 95.9653C51.5504 95.0773 50.42 94.6741 49.3352 94.2373Z" fill="#455A64"/>
<path d="M41.1561 95.4715L41.2617 95.5123C41.1633 93.5923 40.3713 92.3203 38.6361 92.0635C38.586 92.4422 38.5611 92.8238 38.5617 93.2059C38.5568 93.4599 38.5761 93.7139 38.6193 93.9643C38.657 94.1715 38.7719 94.3568 38.9409 94.4827C39.1982 94.7095 39.4952 94.8868 39.8169 95.0059C40.2561 95.1811 40.7097 95.3155 41.1561 95.4715Z" fill="#455A64"/>
<path d="M33.2481 78.4527L26.7441 77.0391C26.5737 81.0639 26.6769 86.5095 26.5401 90.2871C26.5137 91.0071 26.1465 95.8071 26.3505 97.2807C26.6577 99.5007 29.6313 99.3567 29.8761 98.0511C30.1209 96.7455 30.3369 91.1631 30.3873 90.5847C30.5241 88.1655 31.9065 84.1047 32.8737 79.7847C32.9217 79.5855 33.2025 78.6591 33.2481 78.4527Z" fill="#FFA8A7"/>
<path d="M30.9273 99.0302C30.9033 100.324 30.7137 101.19 30.2289 101.963C29.7441 102.736 28.7769 103.014 27.7761 102.829C26.7753 102.645 25.4769 102.109 25.1361 100.996C24.7953 99.8822 24.8241 99.1286 24.9945 97.9238L30.9273 99.0302Z" fill="#263238"/>
<path d="M26.5929 88.0625C26.1873 88.1057 26.1129 91.6169 25.9497 93.3593C25.7817 95.2265 25.1889 96.0185 25.0329 97.5521C24.8553 99.3041 24.9945 100.077 25.7337 101.104C26.4729 102.131 28.9713 103.075 30.1089 101.522C31.0353 100.255 31.0137 98.8817 30.8457 97.1537C30.6705 95.3609 30.6633 92.4857 30.6849 91.1177C30.7041 89.8121 31.1001 88.4321 30.7377 88.3001C30.6609 88.6505 30.6129 88.9505 30.5721 89.1377C30.4833 89.5505 30.3849 90.0497 30.2601 89.9561C30.2601 89.9561 30.2961 89.5889 30.3009 89.4209C30.3057 89.2529 30.3417 89.1425 30.2289 89.0345C30.1161 88.9265 29.6265 88.8593 29.4585 88.8377C29.0529 88.7801 28.6473 88.7345 28.2369 88.7153C28.0329 88.7153 27.8265 88.7153 27.6225 88.7153C27.4483 88.72 27.2755 88.7483 27.1089 88.7993C27.0621 88.8137 27.0189 88.8379 26.9821 88.8701C26.9453 88.9024 26.9157 88.942 26.8953 88.9865C26.882 89.0522 26.882 89.12 26.8953 89.1857C26.9009 89.3059 26.8896 89.4263 26.8617 89.5433C26.8473 89.5961 26.8113 89.6609 26.7513 89.6513C26.6913 89.6417 26.6553 89.6081 26.6385 89.4905C26.61 89.2516 26.5972 89.0111 26.6001 88.7705C26.6001 88.6577 26.6001 88.5017 26.6001 88.3889C26.6001 88.2761 26.5905 88.1729 26.5929 88.0625Z" fill="#37474F"/>
<path d="M24.9657 98.5651C24.9441 99.6499 25.0497 100.387 25.6281 101.191C26.3673 102.218 29.0625 103.156 30.1881 101.603C30.7545 100.831 30.8745 99.9379 30.9081 99.0307C30.1497 97.8955 26.0625 97.5331 24.9657 98.5651Z" fill="#455A64"/>
<path d="M46.3688 35.4668C46.3688 35.4668 41.432 36.578 34.0304 36.0692C34.0304 40.9604 34.5464 46.5716 32.204 46.5404L29.408 46.4732C29.252 53.798 28.0136 69.0692 28.0136 69.0692C27.9032 69.9692 26.6 73.7948 26.552 77.0492C26.4776 82.154 26.3696 86.0228 26.3696 86.0228C26.3696 86.0228 29.2208 87.1508 31.316 86.3684C31.316 86.3684 34.04 75.518 34.8056 72.1316C35.7152 68.0972 37.5944 60.6428 37.5944 60.6428L37.8224 71.258C37.5559 73.397 37.5269 75.559 37.736 77.7044C37.976 79.8644 38.852 85.8428 38.852 85.8428C38.852 85.8428 41.4752 86.3708 43.7504 85.6964C43.7504 85.6964 45.1208 72.8396 45.2336 70.8596C45.356 68.6996 46.0376 48.8588 46.1 47.0084C46.724 37.6796 46.3688 35.4668 46.3688 35.4668Z" fill="#455A64"/>
<path d="M34.0305 36.0688C33.6849 31.6384 33.6945 27.9976 32.0337 25.8448L34.1553 25.3984C34.1553 25.3984 35.9913 29.464 35.9913 36.22L34.0305 36.0688Z" fill="#455A64"/>
<path d="M44.4201 35.9538C44.4201 31.1274 43.3569 26.9898 41.6721 25.1826L44.0985 25.545C44.0985 25.545 46.3689 29.1978 46.3689 35.9538H44.4201Z" fill="#455A64"/>
<path d="M36.6969 37.0818C36.6969 37.0818 40.5969 37.3218 43.8729 36.7002L44.0217 40.0194L40.7529 42.069L36.6969 40.7442V37.0818Z" fill="#37474F"/>
<path d="M30.4161 46.7148C32.2953 47.4948 36.8577 47.9628 40.5201 47.9148C44.1825 47.8668 46.1001 47.0052 46.1001 47.0052L46.0401 49.2372C46.0401 49.2372 39.5409 51.9636 30.1377 48.7572L30.4161 46.7148Z" fill="#BA68C8"/>
<path opacity="0.3" d="M30.4161 46.7148C32.2953 47.4948 36.8577 47.9628 40.5201 47.9148C44.1825 47.8668 46.1001 47.0052 46.1001 47.0052L46.0401 49.2372C46.0401 49.2372 39.5409 51.9636 30.1377 48.7572L30.4161 46.7148Z" fill="black"/>
<path d="M37.5945 60.6421L39.3369 53.6005C39.3369 53.6005 41.9481 53.6341 43.6569 52.0381C43.6569 52.0381 43.4169 53.8357 40.3137 54.7957L38.7009 60.3901L37.7865 71.0581L37.5945 60.6421Z" fill="#37474F"/>
<path d="M34.8201 25.0986L34.8345 25.5786C35.2101 26.6437 35.4826 27.7423 35.6481 28.8594C36.1521 31.9002 36.2385 35.8866 36.2385 40.3794V52.7586C36.2385 52.7586 30.6105 53.1186 28.8225 48.8226L29.5425 39.8178C29.5425 39.8178 28.5105 35.1618 28.2297 32.5002C27.9489 29.8386 27.4473 27.9738 29.9361 25.9386L34.8201 25.0986Z" fill="#BA68C8"/>
<path d="M29.024 37.2998C29.3048 38.7254 29.5472 39.8174 29.5472 39.8174L29.5208 40.1702C31.2608 41.3078 33.8408 42.0374 36.2408 41.927V39.4118C33.62 39.5318 30.74 38.639 29.024 37.2998Z" fill="#F0F0F0"/>
<path d="M36.236 46.9245V44.3997C33.7688 44.5125 31.0784 43.7277 29.3384 42.5205L29.156 44.9037C30.884 46.1925 33.68 47.0397 36.236 46.9245Z" fill="#F0F0F0"/>
<path d="M40.2728 25.041C41.8474 25.9892 42.9861 27.5184 43.4432 29.2987C44.2016 32.2795 44.3144 34.6315 44.42 38.4595C44.5256 42.2875 44.3696 52.9674 44.3696 52.9674C44.3696 52.9674 46.0496 52.2307 46.4192 51.4315C46.4192 51.4315 46.8992 37.8691 46.3688 33.0618C45.8384 28.2546 44.0984 25.5451 44.0984 25.5451C44.0984 25.5451 42.8552 25.0362 40.2728 25.041Z" fill="#BA68C8"/>
<path d="M44.4608 41.4449C45.1872 41.4238 45.9101 41.3371 46.6208 41.1857C46.6208 40.3457 46.6208 39.5057 46.6208 38.6729C45.8966 38.8251 45.1599 38.9102 44.42 38.9273C44.4464 39.6521 44.456 40.5137 44.4608 41.4449Z" fill="#F0F0F0"/>
<path d="M46.58 46.1947C46.5944 45.4219 46.6112 44.5675 46.6208 43.6699C45.9143 43.8142 45.1962 43.8946 44.4752 43.9099C44.4752 44.7619 44.4752 45.6139 44.4752 46.4275C45.1822 46.4104 45.8864 46.3325 46.58 46.1947Z" fill="#F0F0F0"/>
<path d="M31.1937 25.99C29.7537 25.99 28.0737 25.9276 27.1305 28.006C26.8233 28.6828 25.8753 32.662 24.8217 36.3316C22.9353 33.9316 21.3249 31.4716 21.1161 31.0348C20.5569 29.866 20.5497 29.0764 19.9785 27.8692C19.6495 27.2083 19.3952 26.5128 19.2201 25.7956C19.0833 25.3156 18.6561 25.6684 18.5001 25.8844C18.2503 26.2489 18.1126 26.6786 18.1041 27.1204C18.1041 27.4324 18.1041 27.7516 18.0801 28.0588C18.0561 28.366 17.9529 28.354 17.7033 28.2148C17.1897 27.9268 16.7433 27.43 16.3257 27.0316C15.9081 26.6332 15.3369 26.2588 14.8857 25.8316C14.4345 25.4044 14.2065 24.97 13.8393 24.538C13.5633 24.214 13.0929 23.794 12.7305 24.2572C12.5145 24.538 12.7137 24.8644 12.8097 25.1452C12.9201 25.4644 12.8097 25.6996 12.7497 26.014C12.6436 26.3556 12.6537 26.7228 12.7785 27.058C12.9513 27.3964 13.1049 27.6052 13.0593 28.0036C13.0233 28.3324 12.9057 28.6468 12.9537 28.9852C12.9921 29.2636 13.1937 29.4652 13.3329 29.7052C13.5787 30.1314 13.8833 30.5208 14.2377 30.862C14.6554 31.285 15.1073 31.6727 15.5889 32.0212C16.7433 32.9188 17.1729 33.1996 17.5593 33.4996C18.1377 33.946 18.7353 35.0908 19.0713 35.722C19.7265 36.9604 21.1401 40.4116 23.0265 42.8812C24.1185 44.3044 25.6041 44.758 26.9145 43.15C27.6009 42.3052 28.1841 40.966 28.5633 39.9532C30.0201 36.0724 31.0737 32.8804 31.0737 32.8804C31.0737 32.8804 32.2497 29.254 31.1937 25.99Z" fill="#FFA8A7"/>
<path d="M21.8145 32.1604C21.4401 31.594 21.1905 31.1836 21.1161 31.03C20.5569 29.8612 20.5497 29.0716 19.9785 27.8644C19.6499 27.205 19.3955 26.5112 19.2201 25.7956C19.0833 25.3156 18.6561 25.6684 18.5001 25.8844C18.2503 26.2489 18.1126 26.6786 18.1041 27.1204C18.1041 27.4324 18.1041 27.7516 18.0801 28.0588C18.0561 28.366 17.9529 28.354 17.7033 28.2148C17.1897 27.9268 16.7433 27.43 16.3257 27.0316C15.9081 26.6332 15.3369 26.2588 14.8857 25.8316C14.4345 25.4044 14.2065 24.97 13.8393 24.538C13.5633 24.214 13.0929 23.794 12.7305 24.2572C12.5145 24.538 12.7137 24.8644 12.8097 25.1452C12.9201 25.4644 12.8097 25.6996 12.7497 26.014C12.6436 26.3556 12.6537 26.7228 12.7785 27.058C12.9513 27.3964 13.1049 27.6052 13.0593 28.0036C13.0233 28.3324 12.9057 28.6468 12.9537 28.9852C12.9921 29.2636 13.1937 29.4652 13.3329 29.7052C13.5787 30.1314 13.8833 30.5208 14.2377 30.862C14.6554 31.285 15.1073 31.6727 15.5889 32.0212C16.7433 32.9188 17.1729 33.1996 17.5593 33.4996C18.1089 33.9244 18.6753 34.978 19.0185 35.6212C20.1657 34.8868 21.2049 33.4756 21.8145 32.1604Z" fill="#455A64"/>
<path d="M21.4497 31.6005L21.2697 31.3317C21.2697 31.3317 21.3417 31.0173 21.6345 31.4661C21.8978 31.8398 22.1253 32.2376 22.3137 32.6541C22.3497 32.8245 22.0593 34.2933 21.1473 35.0229C20.2353 35.7525 19.4337 35.9709 19.1793 35.9397C18.9249 35.9085 18.8529 35.6781 18.6993 35.3733C18.5457 35.0685 18.1905 34.6941 18.2985 34.4133L18.5049 34.7037C19.3239 34.4936 20.058 34.036 20.6073 33.3933C21.4161 32.3637 21.4497 31.6005 21.4497 31.6005Z" fill="#BA68C8"/>
<path opacity="0.2" d="M21.4497 31.6005L21.2697 31.3317C21.2697 31.3317 21.3417 31.0173 21.6345 31.4661C21.8978 31.8398 22.1253 32.2376 22.3137 32.6541C22.3497 32.8245 22.0593 34.2933 21.1473 35.0229C20.2353 35.7525 19.4337 35.9709 19.1793 35.9397C18.9249 35.9085 18.8529 35.6781 18.6993 35.3733C18.5457 35.0685 18.1905 34.6941 18.2985 34.4133L18.5049 34.7037C19.3239 34.4936 20.058 34.036 20.6073 33.3933C21.4161 32.3637 21.4497 31.6005 21.4497 31.6005Z" fill="black"/>
<path d="M24.8217 36.3316C25.512 37.6378 25.9293 39.0709 26.0481 40.5436C26.2881 38.3572 25.6233 36.358 25.0089 35.6836L24.8217 36.3316Z" fill="#F28F8F"/>
<path d="M31.4313 25.6797C30.0585 25.8957 29.7657 25.9197 28.8897 26.2221C28.0137 26.5245 27.3849 26.8245 26.5761 29.4621C25.7985 32.0061 25.0737 34.9005 25.0737 34.9005C25.0737 34.9005 25.8417 36.9117 29.6337 37.3005L31.6425 31.6989C31.6425 31.6989 32.2617 28.3197 31.4313 25.6797Z" fill="#EBEBEB"/>
<path d="M17.9409 28.7675C17.9592 28.9182 17.9324 29.071 17.864 29.2065C17.7955 29.342 17.6884 29.4541 17.5562 29.5288C17.424 29.6035 17.2727 29.6373 17.1213 29.6259C16.9699 29.6146 16.8252 29.5587 16.7056 29.4652C16.586 29.3717 16.4968 29.2449 16.4492 29.1007C16.4016 28.9565 16.3979 28.8015 16.4384 28.6552C16.4789 28.5089 16.5618 28.3778 16.6768 28.2786C16.7917 28.1795 16.9335 28.1166 17.0841 28.0979C17.1844 28.0852 17.2862 28.0924 17.3837 28.1192C17.4812 28.146 17.5724 28.1919 17.6521 28.2542C17.7317 28.3164 17.7983 28.3938 17.8478 28.4819C17.8974 28.57 17.9291 28.6671 17.9409 28.7675Z" fill="#263238"/>
<path d="M61.8729 31.1846H61.0233C60.8043 31.1846 60.5943 31.2715 60.4395 31.4264C60.2847 31.5812 60.1977 31.7912 60.1977 32.0102V40.991C60.1977 42.073 59.7678 43.1108 59.0027 43.876C58.2375 44.6411 57.1998 45.071 56.1177 45.071H21.0705C19.9884 45.071 18.9506 44.6411 18.1855 43.876C17.4203 43.1108 16.9905 42.073 16.9905 40.991V29.2982C16.9905 29.2504 17.0094 29.2046 17.0432 29.1709C17.077 29.1371 17.1227 29.1182 17.1705 29.1182C17.2182 29.1182 17.264 29.1371 17.2978 29.1709C17.3315 29.2046 17.3505 29.2504 17.3505 29.2982V40.907C17.3505 41.4055 17.4487 41.8991 17.6395 42.3596C17.8304 42.8201 18.1101 43.2385 18.4627 43.5909C18.8153 43.9432 19.2339 44.2227 19.6945 44.4132C20.1551 44.6038 20.6488 44.7017 21.1473 44.7014H56.0409C56.5394 44.7017 57.033 44.6038 57.4937 44.4132C57.9543 44.2227 58.3729 43.9432 58.7255 43.5909C59.0781 43.2385 59.3578 42.8201 59.5486 42.3596C59.7395 41.8991 59.8377 41.4055 59.8377 40.907V32.0102C59.8377 31.6957 59.9626 31.3942 60.1849 31.1718C60.4073 30.9495 60.7088 30.8246 61.0233 30.8246H62.4849C62.291 30.961 62.0863 31.0814 61.8729 31.1846Z" fill="#37474F"/>
<path d="M16.2681 29.0223C15.7281 28.7823 15.6705 28.3191 16.1409 27.9663C16.4069 27.7874 16.7114 27.6738 17.0297 27.6351C17.3479 27.5963 17.6708 27.6333 17.9721 27.7431C18.5121 27.9831 18.5697 28.4463 18.0993 28.7991C17.8332 28.9781 17.5287 29.0916 17.2104 29.1304C16.8922 29.1692 16.5693 29.1322 16.2681 29.0223Z" fill="#37474F"/>
<path d="M16.2056 28.7513C15.6488 28.5113 15.5888 28.0313 16.0736 27.6617C16.3474 27.4759 16.6611 27.3573 16.9893 27.3156C17.3175 27.2739 17.6509 27.3102 17.9624 27.4217C18.5192 27.6617 18.5792 28.1417 18.0944 28.5113C17.8207 28.6971 17.507 28.8156 17.1788 28.8573C16.8506 28.899 16.5172 28.8627 16.2056 28.7513Z" fill="#263238"/>
<path d="M16.1433 28.4706C15.5673 28.2306 15.5073 27.7218 16.0065 27.3474C16.289 27.1567 16.6126 27.0355 16.9509 26.9938C17.2892 26.9521 17.6325 26.991 17.9529 27.1074C18.5265 27.3474 18.5889 27.8562 18.0897 28.2306C17.8072 28.4213 17.4836 28.5425 17.1453 28.5842C16.807 28.626 16.4637 28.587 16.1433 28.4706Z" fill="#37474F"/>
<path d="M16.0786 28.1796C15.4858 27.9396 15.421 27.4092 15.937 27.0228C16.2287 26.8281 16.5621 26.705 16.9103 26.6633C17.2585 26.6216 17.6116 26.6625 17.941 26.7828C18.5338 27.0228 18.5986 27.5532 18.0826 27.942C17.7907 28.1362 17.4571 28.2589 17.109 28.3002C16.7608 28.3414 16.4078 28.3001 16.0786 28.1796Z" fill="#263238"/>
<path d="M16.0209 27.8746C15.4161 27.6178 15.3513 27.0898 15.8769 26.6938C16.1748 26.4957 16.5152 26.3707 16.8705 26.329C17.2259 26.2873 17.586 26.33 17.9217 26.4538C18.5265 26.7106 18.5913 27.241 18.0657 27.6346C17.7679 27.8331 17.4275 27.9583 17.0721 28C16.7167 28.0417 16.3565 27.9987 16.0209 27.8746Z" fill="#37474F"/>
<path d="M15.9585 18.858C14.9939 18.9757 14.1156 19.4716 13.5165 20.2367C12.9175 21.0018 12.6469 21.9734 12.7641 22.938C13.1169 25.818 15.5577 26.0148 15.6993 27.1788C15.7217 27.2899 15.7733 27.3929 15.8488 27.4773C15.9243 27.5616 16.021 27.6243 16.1289 27.6588C16.4212 27.7644 16.7341 27.7998 17.0426 27.7623C17.3511 27.7248 17.6464 27.6154 17.9049 27.4428C18.0014 27.3846 18.0806 27.3016 18.1342 27.2024C18.1878 27.1032 18.2139 26.9915 18.2097 26.8788C18.0681 25.7148 20.3913 24.9444 20.0409 22.0572C19.9832 21.579 19.8319 21.1168 19.5954 20.6971C19.359 20.2774 19.0421 19.9084 18.663 19.6113C18.2838 19.3141 17.8498 19.0947 17.3857 18.9654C16.9216 18.8362 16.4367 18.7997 15.9585 18.858Z" fill="#BA68C8"/>
<g opacity="0.6">
<path d="M15.9585 18.858C14.9939 18.9757 14.1156 19.4716 13.5165 20.2367C12.9175 21.0018 12.6469 21.9734 12.7641 22.938C13.1169 25.818 15.5577 26.0148 15.6993 27.1788C15.7217 27.2899 15.7733 27.3929 15.8488 27.4773C15.9243 27.5616 16.021 27.6243 16.1289 27.6588C16.4212 27.7644 16.7341 27.7998 17.0426 27.7623C17.3511 27.7248 17.6464 27.6154 17.9049 27.4428C18.0014 27.3846 18.0806 27.3016 18.1342 27.2024C18.1878 27.1032 18.2139 26.9915 18.2097 26.8788C18.0681 25.7148 20.3913 24.9444 20.0409 22.0572C19.9832 21.579 19.8319 21.1168 19.5954 20.6971C19.359 20.2774 19.0421 19.9084 18.663 19.6113C18.2838 19.3141 17.8498 19.0947 17.3857 18.9654C16.9216 18.8362 16.4367 18.7997 15.9585 18.858Z" fill="white"/>
</g>
<path d="M16.3401 27.4627C15.9465 27.2947 15.9033 26.9491 16.2465 26.6923C16.4405 26.5623 16.6624 26.4798 16.8942 26.4514C17.1261 26.4231 17.3613 26.4497 17.5809 26.5291C17.9745 26.6971 18.0177 27.0427 17.6745 27.2995C17.4808 27.4301 17.2588 27.5129 17.0269 27.5413C16.795 27.5696 16.5597 27.5427 16.3401 27.4627Z" fill="#BA68C8"/>
<path d="M17.4249 26.8457C17.3927 26.8497 17.3603 26.8409 17.3347 26.8211C17.309 26.8013 17.2923 26.7722 17.2881 26.7401C17.2031 26.0394 17.2031 25.3311 17.2881 24.6305C17.3117 24.4283 17.3486 24.2278 17.3985 24.0305C17.2821 24.0035 17.1687 23.9649 17.0601 23.9153C16.8668 23.8266 16.688 23.7092 16.5297 23.5673C16.41 23.7426 16.2652 23.8994 16.1001 24.0329C16.0079 24.1072 15.9082 24.1715 15.8025 24.2249C15.899 24.4046 15.9832 24.5906 16.0545 24.7817C16.305 25.4414 16.4758 26.1286 16.5633 26.8289C16.566 26.8615 16.5561 26.8939 16.5355 26.9194C16.5149 26.9449 16.4854 26.9615 16.4529 26.9657C16.4199 26.9684 16.3871 26.9581 16.3616 26.937C16.336 26.916 16.3197 26.8858 16.3161 26.8529C16.2299 26.1741 16.0639 25.5079 15.8217 24.8681C15.7515 24.6781 15.6673 24.4935 15.5697 24.3161C15.4491 24.3564 15.3206 24.3668 15.1951 24.3463C15.0697 24.3258 14.9511 24.2751 14.8497 24.1985C14.7737 24.1419 14.7203 24.0601 14.6992 23.9677C14.6781 23.8753 14.6906 23.7784 14.7345 23.6945C14.7648 23.6363 14.8119 23.5885 14.8696 23.5572C14.9274 23.526 14.9932 23.5128 15.0585 23.5193C15.2577 23.5361 15.4737 23.7113 15.6753 24.0185C15.7715 23.9719 15.8618 23.9139 15.9441 23.8457C16.1055 23.7189 16.245 23.5665 16.3569 23.3945C16.2702 23.3057 16.2023 23.2006 16.1569 23.0852C16.1116 22.9697 16.0898 22.8464 16.0929 22.7225C16.1052 22.6484 16.1412 22.5803 16.1954 22.5284C16.2496 22.4765 16.3191 22.4434 16.3936 22.4343C16.4681 22.4251 16.5436 22.4402 16.6088 22.4775C16.6739 22.5147 16.7253 22.572 16.7553 22.6409C16.7901 22.7608 16.7998 22.8867 16.7836 23.0106C16.7675 23.1345 16.726 23.2538 16.6617 23.3609C16.8111 23.502 16.9831 23.6172 17.1705 23.7017C17.2672 23.747 17.3686 23.7817 17.4729 23.8049C17.5953 23.4593 17.7609 23.2361 17.9529 23.1737C18.0149 23.1539 18.0813 23.1526 18.144 23.1701C18.2067 23.1876 18.2629 23.223 18.3057 23.2721C18.3669 23.3441 18.4005 23.4355 18.4005 23.5301C18.4005 23.6246 18.3669 23.716 18.3057 23.7881C18.2266 23.8856 18.125 23.9626 18.0096 24.0123C17.8942 24.0621 17.7685 24.0831 17.6433 24.0737C17.5891 24.2703 17.5506 24.4709 17.5281 24.6737C17.4501 25.3522 17.4501 26.0375 17.5281 26.7161C17.5305 26.7323 17.5296 26.7488 17.5256 26.7647C17.5216 26.7806 17.5144 26.7956 17.5046 26.8088C17.4948 26.8219 17.4825 26.833 17.4684 26.8414C17.4543 26.8498 17.4387 26.8553 17.4225 26.8577L17.4249 26.8457ZM15.0225 23.7593C15.0033 23.7593 14.9793 23.7737 14.9577 23.8145C14.9073 23.9033 14.9889 23.9825 15.0153 24.0065C15.0743 24.0487 15.1416 24.0779 15.2128 24.0919C15.284 24.106 15.3574 24.1047 15.4281 24.0881C15.2673 23.8625 15.1257 23.7641 15.0417 23.7593H15.0225ZM17.7321 23.8073C17.8048 23.8079 17.8767 23.7921 17.9424 23.7609C18.0081 23.7297 18.0658 23.684 18.1113 23.6273C18.1305 23.6009 18.1929 23.5025 18.1233 23.4281C18.1129 23.413 18.098 23.4017 18.0807 23.3956C18.0635 23.3896 18.0448 23.3892 18.0273 23.3945C17.9481 23.4233 17.8353 23.5529 17.7321 23.8097V23.8073ZM16.4241 22.6745C16.3617 22.6745 16.3449 22.7105 16.3377 22.7513C16.3377 22.8954 16.3887 23.0348 16.4817 23.1449C16.5453 23.0153 16.5614 22.8675 16.5273 22.7273C16.5202 22.707 16.5054 22.6903 16.486 22.6808C16.4667 22.6714 16.4445 22.67 16.4241 22.6769V22.6745Z" fill="white"/>
<path d="M18.3058 17.6979C18.2759 17.6863 18.2486 17.6688 18.2255 17.6464C18.2025 17.6241 18.1842 17.5974 18.1716 17.5678C18.1591 17.5383 18.1526 17.5066 18.1526 17.4745C18.1525 17.4424 18.1589 17.4106 18.1714 17.3811L18.6514 16.2099C18.6758 16.1515 18.7223 16.1051 18.7807 16.0809C18.8391 16.0566 18.9048 16.0564 18.9634 16.0803C18.993 16.0919 19.02 16.1093 19.0428 16.1314C19.0657 16.1536 19.0839 16.1801 19.0964 16.2093C19.1089 16.2386 19.1154 16.27 19.1157 16.3019C19.1159 16.3337 19.1098 16.3652 19.0978 16.3947L18.6178 17.5683C18.6062 17.5982 18.5887 17.6254 18.5663 17.6485C18.544 17.6715 18.5173 17.6898 18.4877 17.7024C18.4582 17.7149 18.4265 17.7214 18.3944 17.7214C18.3623 17.7215 18.3305 17.7151 18.301 17.7027L18.3058 17.6979Z" fill="#E0E0E0"/>
<path d="M15.5313 17.3521C15.492 17.3365 15.4575 17.3107 15.4314 17.2774C15.4052 17.2441 15.3884 17.2044 15.3825 17.1625L15.2073 15.9097C15.1984 15.8461 15.2151 15.7815 15.2538 15.7302C15.2925 15.6789 15.35 15.645 15.4137 15.6361C15.4773 15.6272 15.5419 15.644 15.5932 15.6827C15.6446 15.7214 15.6784 15.7789 15.6873 15.8425L15.8601 17.0953C15.8648 17.1269 15.8632 17.1591 15.8554 17.19C15.8475 17.2209 15.8336 17.25 15.8143 17.2755C15.7951 17.3009 15.771 17.3223 15.7434 17.3384C15.7159 17.3544 15.6853 17.3648 15.6537 17.3689C15.6121 17.3741 15.5699 17.3683 15.5313 17.3521Z" fill="#E0E0E0"/>
<path d="M12.9561 18.442C12.9174 18.4262 12.8834 18.4006 12.8577 18.3676L12.0801 17.3692C12.0605 17.344 12.0462 17.3152 12.0378 17.2844C12.0294 17.2537 12.0271 17.2215 12.0311 17.1899C12.0351 17.1583 12.0453 17.1277 12.0611 17.1C12.077 17.0723 12.0981 17.048 12.1233 17.0284C12.1485 17.0089 12.1773 16.9945 12.2081 16.9861C12.2389 16.9777 12.271 16.9755 12.3026 16.9795C12.3343 16.9835 12.3648 16.9937 12.3925 17.0095C12.4202 17.0253 12.4445 17.0464 12.4641 17.0716L13.2417 18.0676C13.2616 18.0927 13.2763 18.1215 13.2849 18.1523C13.2935 18.1832 13.2959 18.2154 13.2919 18.2472C13.2879 18.2789 13.2775 18.3095 13.2615 18.3372C13.2454 18.3649 13.224 18.3891 13.1985 18.4084C13.1648 18.4353 13.1245 18.4526 13.0819 18.4585C13.0392 18.4644 12.9958 18.4587 12.9561 18.442Z" fill="#E0E0E0"/>
<path d="M10.1001 20.1966C10.0406 20.1721 9.99325 20.1249 9.9685 20.0655C9.94374 20.0061 9.9436 19.9393 9.96811 19.8798C9.99261 19.8203 10.0398 19.7729 10.0992 19.7482C10.1586 19.7234 10.2254 19.7233 10.2849 19.7478L11.4561 20.2278C11.4856 20.2397 11.5124 20.2574 11.535 20.2798C11.5577 20.3021 11.5757 20.3287 11.5881 20.358C11.6004 20.3873 11.6069 20.4187 11.6071 20.4506C11.6073 20.4824 11.6013 20.5139 11.5893 20.5434C11.5773 20.5728 11.5597 20.5997 11.5373 20.6223C11.515 20.6449 11.4884 20.663 11.4591 20.6753C11.4298 20.6877 11.3983 20.6942 11.3665 20.6944C11.3347 20.6946 11.3032 20.6885 11.2737 20.6766L10.1025 20.1966H10.1001Z" fill="#E0E0E0"/>
<path d="M9.6753 23.6183C9.63643 23.6023 9.60245 23.5763 9.57676 23.5431C9.55106 23.5098 9.53456 23.4703 9.5289 23.4287C9.52417 23.3971 9.52577 23.3649 9.53363 23.334C9.54148 23.3031 9.55543 23.274 9.57465 23.2485C9.59387 23.2231 9.61798 23.2017 9.64556 23.1856C9.67315 23.1696 9.70365 23.1592 9.7353 23.1551L10.9881 22.9799C11.0518 22.971 11.1163 22.9877 11.1676 23.0264C11.219 23.0651 11.2528 23.1226 11.2617 23.1863C11.2706 23.2499 11.2539 23.3145 11.2152 23.3658C11.1765 23.4171 11.119 23.451 11.0553 23.4599L9.8025 23.6351C9.75937 23.6419 9.71518 23.6361 9.6753 23.6183Z" fill="#E0E0E0"/>
<path d="M21.6201 21.9549C21.5682 21.9367 21.5242 21.9012 21.4954 21.8544C21.4666 21.8076 21.4547 21.7524 21.4617 21.6979C21.4687 21.6433 21.4942 21.5929 21.534 21.5549C21.5737 21.517 21.6253 21.4938 21.6801 21.4893L22.9329 21.3141C22.9646 21.3094 22.997 21.3111 23.0281 21.3191C23.0591 21.3271 23.0883 21.3413 23.1138 21.3607C23.1393 21.3802 23.1607 21.4046 23.1766 21.4324C23.1925 21.4603 23.2027 21.4911 23.2065 21.5229C23.2112 21.5545 23.2096 21.5867 23.2018 21.6176C23.1939 21.6485 23.18 21.6776 23.1607 21.7031C23.1415 21.7286 23.1174 21.7499 23.0898 21.766C23.0622 21.782 23.0317 21.7924 23.0001 21.7965L21.7473 21.9693C21.7044 21.9769 21.6602 21.9719 21.6201 21.9549Z" fill="#E0E0E0"/>
<path d="M20.5353 19.3827C20.4955 19.3666 20.4606 19.3401 20.4345 19.3059C20.4139 19.2808 20.3985 19.2516 20.3895 19.2203C20.3804 19.189 20.3778 19.1562 20.3819 19.1239C20.3859 19.0915 20.3965 19.0603 20.413 19.0322C20.4295 19.0041 20.4515 18.9797 20.4777 18.9603L21.4761 18.1827C21.5013 18.1632 21.5302 18.1488 21.5609 18.1404C21.5917 18.132 21.6238 18.1298 21.6555 18.1338C21.6871 18.1378 21.7177 18.148 21.7454 18.1638C21.7731 18.1796 21.7974 18.2007 21.8169 18.2259C21.8365 18.2512 21.8509 18.28 21.8593 18.3107C21.8677 18.3415 21.8699 18.3736 21.8659 18.4053C21.8619 18.4369 21.8517 18.4675 21.8359 18.4952C21.8201 18.5229 21.7989 18.5472 21.7737 18.5667L20.7753 19.3443C20.7424 19.3715 20.7027 19.3894 20.6606 19.3962C20.6184 19.4029 20.5751 19.3983 20.5353 19.3827Z" fill="#E0E0E0"/>
<path d="M28.8201 47.0586L27.5481 47.7594C27.4655 47.8109 27.3963 47.8812 27.3462 47.9647C27.2962 48.0481 27.2666 48.1423 27.2601 48.2394C27.2289 49.3746 27.1233 53.8386 27.3057 55.9722C27.3186 56.0698 27.3528 56.1634 27.4059 56.2464C27.4589 56.3293 27.5296 56.3996 27.6129 56.4522C28.3329 56.8578 30.2865 57.9282 31.1817 58.1754C31.3862 58.2103 31.5963 58.1879 31.7889 58.1106L32.6913 57.7482C32.7754 57.7089 32.8472 57.6475 32.8992 57.5706C32.9512 57.4937 32.9813 57.4041 32.9865 57.3114C32.9865 55.0458 33.3993 51.9858 33.7737 49.5186C33.7838 49.4276 33.7663 49.3357 33.7235 49.2548C33.6807 49.1739 33.6146 49.1078 33.5337 49.065L29.3793 47.0394C29.2899 47.0033 29.194 46.9864 29.0976 46.9897C29.0013 46.993 28.9067 47.0165 28.8201 47.0586Z" fill="#455A64"/>
<path d="M27.3057 55.9629C27.1233 53.8293 27.2289 49.3653 27.2601 48.2301C27.2555 48.1939 27.2616 48.1572 27.2777 48.1244C27.2937 48.0917 27.3189 48.0644 27.3503 48.0458C27.3816 48.0271 27.4177 48.0181 27.4541 48.0197C27.4905 48.0213 27.5257 48.0336 27.5553 48.0549L31.4241 49.9749C31.5049 50.0203 31.5716 50.0871 31.6169 50.168C31.6622 50.2488 31.6844 50.3406 31.6809 50.4333C31.5993 51.4389 31.3521 55.2213 31.4769 57.8925C31.4819 57.9311 31.4774 57.9705 31.4638 58.007C31.4502 58.0436 31.4279 58.0763 31.3989 58.1023C31.3698 58.1283 31.3348 58.1468 31.297 58.1562C31.2591 58.1657 31.2195 58.1658 31.1817 58.1565C30.2865 57.9165 28.3353 56.8389 27.6129 56.4333C27.5308 56.3817 27.4608 56.3129 27.4077 56.2317C27.3547 56.1505 27.3199 56.0588 27.3057 55.9629Z" fill="#37474F"/>
<path d="M31.2201 58.1691C31.41 58.1901 31.6021 58.1637 31.7793 58.0923L32.6841 57.7299C32.7667 57.6891 32.837 57.6272 32.888 57.5505C32.939 57.4738 32.9688 57.385 32.9745 57.2931C33.1521 54.9675 33.3873 51.9699 33.7641 49.5027C33.7749 49.4199 33.7589 49.3358 33.7185 49.2627L31.6257 50.2227C31.6603 50.2918 31.676 50.3688 31.6713 50.4459C31.5873 51.4563 31.3425 55.2459 31.4673 57.9075C31.4704 57.9414 31.4662 57.9756 31.4551 58.0077C31.4439 58.0399 31.4261 58.0693 31.4027 58.0941C31.3793 58.1188 31.351 58.1383 31.3195 58.1512C31.288 58.1642 31.2541 58.1703 31.2201 58.1691Z" fill="#263238"/>
<path d="M27.8001 48.96L31.1889 50.5416L31.0257 53.4216L27.7089 51.9984C27.7089 51.9984 27.7401 49.9392 27.8001 48.96Z" fill="#263238"/>
<path d="M31.0377 53.2466L27.8601 51.8858C27.8601 51.8858 27.8889 50.0042 27.9417 49.0322L31.1817 50.5418L31.0377 53.2466Z" fill="#BA68C8"/>
<path opacity="0.4" d="M31.0377 53.2466L27.8601 51.8858C27.8601 51.8858 27.8889 50.0042 27.9417 49.0322L31.1817 50.5418L31.0377 53.2466Z" fill="black"/>
<path d="M29.6193 50.0664L28.9089 51.0936L29.3553 51.2472L29.0073 52.1544L29.8017 51.084L29.3553 50.916L29.6193 50.0664Z" fill="#FAFAFA"/>
<path d="M30.812 54.0815L30.7904 54.3671C30.7909 54.386 30.7865 54.4046 30.7775 54.4212C30.7686 54.4378 30.7555 54.4518 30.7394 54.4618C30.7234 54.4717 30.7051 54.4773 30.6862 54.478C30.6674 54.4786 30.6487 54.4743 30.632 54.4655L30.1184 54.2543C30.0768 54.2345 30.0418 54.2032 30.0176 54.164C29.9933 54.1249 29.9808 54.0796 29.9816 54.0335L29.9984 53.7431C29.9974 53.7243 30.0014 53.7056 30.01 53.6889C30.0187 53.6722 30.0316 53.6581 30.0475 53.6481C30.0634 53.6381 30.0817 53.6325 30.1005 53.6319C30.1193 53.6313 30.1379 53.6357 30.1544 53.6447L30.6752 53.8607C30.7168 53.8805 30.7518 53.9119 30.7761 53.951C30.8003 53.9902 30.8128 54.0355 30.812 54.0815Z" fill="#263238"/>
<path d="M30.8144 55.0101L30.8 55.2957C30.8007 55.3145 30.7966 55.333 30.7879 55.3497C30.7793 55.3663 30.7665 55.3804 30.7507 55.3905C30.735 55.4007 30.7169 55.4066 30.6982 55.4077C30.6795 55.4087 30.6608 55.4049 30.644 55.3965L30.1256 55.1925C30.0843 55.1734 30.0493 55.143 30.0247 55.1047C30 55.0665 29.9868 55.022 29.9864 54.9765V54.6837C29.9852 54.6651 29.989 54.6465 29.9973 54.6298C30.0056 54.6131 30.0183 54.5988 30.0339 54.5886C30.0495 54.5784 30.0675 54.5724 30.0862 54.5714C30.1048 54.5704 30.1234 54.5744 30.14 54.5829L30.6632 54.7917C30.7071 54.8092 30.7449 54.8393 30.7718 54.8781C30.7987 54.917 30.8135 54.9629 30.8144 55.0101Z" fill="#263238"/>
<path d="M30.8193 55.9386V56.2242C30.8205 56.2431 30.8166 56.262 30.8081 56.2789C30.7997 56.2959 30.7869 56.3103 30.7711 56.3208C30.7553 56.3313 30.737 56.3374 30.7181 56.3385C30.6992 56.3397 30.6803 56.3358 30.6633 56.3274L30.1449 56.133C30.1023 56.1149 30.0658 56.0849 30.0398 56.0466C30.0138 56.0083 29.9995 55.9633 29.9985 55.917V55.6242C29.9973 55.6055 30.0011 55.5869 30.0094 55.5702C30.0177 55.5535 30.0303 55.5393 30.046 55.529C30.0616 55.5188 30.0796 55.5129 30.0983 55.5119C30.1169 55.5109 30.1355 55.5148 30.1521 55.5234L30.6777 55.7226C30.7195 55.7413 30.755 55.7716 30.78 55.8099C30.8051 55.8482 30.8188 55.8928 30.8193 55.9386Z" fill="#263238"/>
<path d="M30.8241 56.8801V57.1657C30.8254 57.1845 30.8218 57.2033 30.8137 57.2203C30.8055 57.2373 30.7931 57.2518 30.7775 57.2625C30.762 57.2732 30.7439 57.2796 30.7252 57.2811C30.7064 57.2827 30.6875 57.2793 30.6705 57.2713L30.1473 57.0841C30.1049 57.0667 30.0684 57.0376 30.042 57.0002C30.0156 56.9628 30.0005 56.9186 29.9985 56.8729V56.5801C29.9966 56.5614 29.9997 56.5425 30.0075 56.5254C30.0154 56.5083 30.0276 56.4937 30.0431 56.4829C30.0585 56.4721 30.0765 56.4657 30.0952 56.4642C30.114 56.4627 30.1327 56.4663 30.1497 56.4745L30.6801 56.6665C30.7219 56.6847 30.7576 56.7145 30.7831 56.7523C30.8086 56.7902 30.8228 56.8345 30.8241 56.8801Z" fill="#263238"/>
<path d="M29.6601 53.5556L29.6457 53.8532C29.6468 53.872 29.6427 53.8907 29.6341 53.9074C29.6255 53.9241 29.6125 53.9382 29.5966 53.9482C29.5807 53.9582 29.5624 53.9638 29.5437 53.9644C29.5249 53.965 29.5062 53.9606 29.4897 53.9516L28.9809 53.7404C28.9385 53.7213 28.9025 53.6903 28.8773 53.6511C28.8522 53.6119 28.839 53.5662 28.8393 53.5196V53.2172C28.8378 53.1985 28.8414 53.1798 28.8497 53.1629C28.858 53.1461 28.8707 53.1319 28.8865 53.1218C28.9023 53.1117 28.9206 53.106 28.9393 53.1055C28.9581 53.105 28.9766 53.1096 28.9929 53.1188L29.5113 53.3348C29.5552 53.3528 29.5927 53.3834 29.6192 53.4227C29.6456 53.462 29.6599 53.5082 29.6601 53.5556Z" fill="#263238"/>
<path d="M29.6577 54.48L29.6433 54.7776C29.6443 54.7963 29.6403 54.815 29.6316 54.8317C29.623 54.8485 29.6101 54.8625 29.5942 54.8726C29.5783 54.8826 29.56 54.8882 29.5412 54.8888C29.5224 54.8894 29.5038 54.885 29.4873 54.876L28.9785 54.6672C28.9355 54.6484 28.899 54.6175 28.8734 54.5783C28.8478 54.5391 28.8343 54.4932 28.8345 54.4464V54.144C28.8329 54.1253 28.8365 54.1065 28.8448 54.0897C28.8531 54.0729 28.8658 54.0586 28.8816 54.0485C28.8974 54.0384 28.9157 54.0328 28.9344 54.0323C28.9532 54.0317 28.9717 54.0363 28.9881 54.0456L29.5065 54.2592C29.5507 54.2768 29.5888 54.3072 29.6157 54.3465C29.6426 54.3859 29.6572 54.4323 29.6577 54.48Z" fill="#263238"/>
<path d="M29.6529 55.4021V55.6997C29.6541 55.7183 29.6503 55.737 29.642 55.7537C29.6337 55.7704 29.6211 55.7846 29.6054 55.7948C29.5898 55.8051 29.5718 55.811 29.5531 55.812C29.5345 55.813 29.5159 55.809 29.4993 55.8005L28.9857 55.5941C28.9432 55.575 28.9072 55.544 28.8821 55.5047C28.8569 55.4655 28.8437 55.4199 28.8441 55.3733V55.0709C28.8423 55.0523 28.8456 55.0337 28.8537 55.0168C28.8617 55 28.8741 54.9857 28.8896 54.9753C28.9051 54.965 28.9231 54.9591 28.9417 54.9581C28.9603 54.9572 28.9788 54.9613 28.9953 54.9701L29.5137 55.1837C29.5553 55.203 29.5906 55.2338 29.6153 55.2725C29.6399 55.3112 29.653 55.3562 29.6529 55.4021Z" fill="#263238"/>
<path d="M29.6481 56.325V56.6226C29.6489 56.6411 29.6448 56.6594 29.6363 56.6758C29.6277 56.6921 29.6151 56.706 29.5995 56.7159C29.584 56.7259 29.5661 56.7316 29.5477 56.7325C29.5293 56.7334 29.5109 56.7294 29.4945 56.721L28.9809 56.517C28.9387 56.4986 28.9027 56.4685 28.8772 56.4302C28.8516 56.3919 28.8377 56.3471 28.8369 56.301V55.9962C28.8357 55.9776 28.8394 55.959 28.8478 55.9423C28.8561 55.9256 28.8687 55.9113 28.8843 55.9011C28.8999 55.8909 28.918 55.8849 28.9366 55.8839C28.9553 55.8829 28.9739 55.8869 28.9905 55.8954L29.5089 56.1066C29.5506 56.1259 29.5858 56.1567 29.6105 56.1955C29.6352 56.2342 29.6482 56.2791 29.6481 56.325Z" fill="#263238"/>
<path d="M28.5105 53.0404V53.35C28.5116 53.3685 28.5077 53.3869 28.4992 53.4034C28.4907 53.4199 28.4779 53.4337 28.4622 53.4435C28.4465 53.4534 28.4284 53.4588 28.4099 53.4592C28.3913 53.4596 28.373 53.4551 28.3569 53.446L27.8505 53.2348C27.808 53.2157 27.772 53.1846 27.7469 53.1454C27.7217 53.1062 27.7085 53.0606 27.7089 53.014V52.6972C27.7075 52.6791 27.7111 52.661 27.7192 52.6448C27.7272 52.6285 27.7395 52.6148 27.7548 52.605C27.77 52.5951 27.7876 52.5896 27.8057 52.5889C27.8238 52.5883 27.8418 52.5925 27.8577 52.6012L28.3713 52.8196C28.4133 52.839 28.4488 52.8702 28.4735 52.9094C28.4982 52.9486 28.5111 52.9941 28.5105 53.0404Z" fill="#263238"/>
<path d="M28.5153 53.9305V54.2401C28.5169 54.2585 28.5134 54.277 28.5053 54.2936C28.4971 54.3102 28.4845 54.3242 28.4689 54.3341C28.4533 54.344 28.4352 54.3494 28.4167 54.3498C28.3983 54.3501 28.38 54.3454 28.3641 54.3361L27.8577 54.1249C27.8147 54.1061 27.7782 54.0752 27.7526 54.036C27.727 53.9968 27.7135 53.9509 27.7137 53.9041V53.5873C27.712 53.5689 27.7155 53.5503 27.7237 53.5338C27.7318 53.5172 27.7444 53.5032 27.76 53.4932C27.7756 53.4833 27.7937 53.4779 27.8122 53.4776C27.8307 53.4772 27.8489 53.482 27.8649 53.4913L28.3785 53.7097C28.42 53.7295 28.455 53.7608 28.4793 53.8C28.5036 53.8391 28.516 53.8844 28.5153 53.9305Z" fill="#263238"/>
<path d="M28.5177 54.8279V55.1375C28.5187 55.156 28.5148 55.1745 28.5063 55.1909C28.4978 55.2074 28.485 55.2213 28.4693 55.2311C28.4536 55.2409 28.4355 55.2463 28.417 55.2467C28.3985 55.2472 28.3802 55.2426 28.3641 55.2335L27.8577 55.0223C27.8158 55.0022 27.7802 54.971 27.7548 54.932C27.7294 54.8931 27.7152 54.848 27.7137 54.8015V54.4847C27.712 54.4663 27.7155 54.4478 27.7237 54.4312C27.7318 54.4146 27.7444 54.4006 27.76 54.3907C27.7756 54.3808 27.7937 54.3754 27.8122 54.375C27.8307 54.3747 27.8489 54.3794 27.8649 54.3887L28.3785 54.6071C28.4205 54.6266 28.456 54.6578 28.4807 54.697C28.5054 54.7361 28.5182 54.7816 28.5177 54.8279Z" fill="#263238"/>
<path d="M28.52 55.7259V56.0355C28.5217 56.0539 28.5182 56.0725 28.51 56.089C28.5018 56.1056 28.4893 56.1196 28.4736 56.1296C28.458 56.1395 28.44 56.1449 28.4215 56.1452C28.403 56.1456 28.3848 56.1408 28.3688 56.1315L27.86 55.9203C27.8175 55.9012 27.7815 55.8702 27.7564 55.831C27.7312 55.7918 27.7181 55.7461 27.7184 55.6995V55.3827C27.7171 55.3647 27.7206 55.3465 27.7287 55.3303C27.7368 55.3141 27.7491 55.3003 27.7643 55.2905C27.7795 55.2807 27.7971 55.2751 27.8152 55.2745C27.8333 55.2738 27.8513 55.278 27.8672 55.2867L28.3808 55.5027C28.4222 55.5237 28.457 55.5556 28.4815 55.5949C28.506 55.6343 28.5194 55.6796 28.52 55.7259Z" fill="#263238"/>
</svg>
