<svg width="24" height="25" viewBox="0 0 24 25" fill="none" xmlns="http://www.w3.org/2000/svg">
<path fill-rule="evenodd" clip-rule="evenodd" d="M20.3077 20.9221C20.8745 20.4144 21.2308 19.6778 21.2308 18.8581V10.5079C21.2309 10.0838 21.1336 9.66525 20.9463 9.28467C20.7591 8.90408 20.4869 8.57159 20.1508 8.31285L13.6892 3.34301C13.205 2.97025 12.6111 2.76812 12 2.76812C11.3889 2.76812 10.795 2.97025 10.3108 3.34301L3.84923 8.31285C3.51288 8.57178 3.24055 8.90456 3.05329 9.28549C2.86602 9.66642 2.76884 10.0853 2.76923 10.5098V18.8581C2.76826 19.2209 2.8388 19.5804 2.97681 19.916C3.11483 20.2516 3.31761 20.5566 3.57359 20.8138C3.82956 21.071 4.13369 21.2752 4.46862 21.4148C4.80354 21.5544 5.16269 21.6266 5.52554 21.6273H6.46154V15.1658C6.46154 14.1865 6.85055 13.2474 7.54299 12.5549C8.23543 11.8625 9.17459 11.4735 10.1538 11.4735H13.8462C14.8254 11.4735 15.7646 11.8625 16.457 12.5549C17.1495 13.2474 17.5385 14.1865 17.5385 15.1658V21.6273H18.4745C19.1778 21.6236 19.8222 21.3578 20.3077 20.9221ZM24 18.8581C24 20.327 23.4165 21.7357 22.3778 22.7744C21.3392 23.813 19.9304 24.3965 18.4615 24.3965H5.53846C4.06957 24.3965 2.66084 23.813 1.62218 22.7744C0.583515 21.7357 0 20.327 0 18.8581V10.5079C5.77339e-05 9.65992 0.194842 8.82325 0.569338 8.06242C0.943833 7.30158 1.48804 6.63691 2.16 6.11962L8.62154 1.14978C9.58999 0.404254 10.7778 0 12 0C13.2222 0 14.41 0.404254 15.3785 1.14978L21.84 6.11962C22.5122 6.6371 23.0566 7.30207 23.4311 8.06325C23.8056 8.82442 24.0002 9.66146 24 10.5098V18.8581ZM14.7692 15.1658C14.7692 14.921 14.672 14.6862 14.4989 14.5131C14.3258 14.3399 14.091 14.2427 13.8462 14.2427H10.1538C9.90903 14.2427 9.67424 14.3399 9.50113 14.5131C9.32802 14.6862 9.23077 14.921 9.23077 15.1658V21.6273H14.7692V15.1658Z" fill="#130138"/>
</svg>
